<?xml version="1.0" encoding="UTF-8"?> <svg xmlns="http://www.w3.org/2000/svg" xmlns:xlink="http://www.w3.org/1999/xlink" id="Layer_1" data-name="Layer 1" viewBox="0 0 65.75 24"><defs><style> .cls-1 { fill: none; } .cls-1, .cls-2, .cls-3, .cls-4 { stroke-width: 0px; } .cls-2 { fill: url(#linear-gradient); } .cls-2, .cls-3 { fill-rule: evenodd; } .cls-3 { fill: #fff; } .cls-4 { fill: #3575b6; } </style><linearGradient id="linear-gradient" x1="1377.4" y1="-2030.54" x2="1377.4" y2="-2030.94" gradientTransform="translate(-37416.98 -55171.03) scale(27.17 -27.17)" gradientUnits="userSpaceOnUse"><stop offset="0" stop-color="#54aadd"></stop><stop offset=".21" stop-color="#4695ce"></stop><stop offset=".52" stop-color="#387cbc"></stop><stop offset=".79" stop-color="#2f6db1"></stop><stop offset="1" stop-color="#2c67ad"></stop></linearGradient></defs><g><path class="cls-4" d="M24.28,15.67c-.49,0-.93-.08-1.31-.25-.38-.17-.69-.41-.91-.73-.23-.32-.34-.71-.35-1.17h1.43c0,.19.06.37.15.52.09.15.22.28.39.37.17.09.36.14.59.14.2,0,.37-.03.52-.1.14-.06.26-.15.34-.27.08-.12.12-.26.12-.42,0-.18-.05-.33-.14-.46-.09-.13-.22-.24-.38-.33s-.35-.17-.56-.25c-.21-.07-.43-.15-.67-.23-.53-.17-.94-.41-1.22-.7-.28-.29-.42-.68-.42-1.16,0-.41.1-.76.29-1.05.2-.29.47-.51.82-.67.35-.15.75-.23,1.19-.23s.86.08,1.21.24.62.38.83.68c.2.3.31.65.32,1.05h-1.45c0-.15-.05-.29-.13-.41-.08-.13-.18-.23-.32-.3-.14-.08-.3-.12-.48-.12-.16,0-.31.02-.44.07-.13.05-.24.13-.31.24-.08.11-.12.24-.12.4s.04.29.12.4.18.2.32.28c.14.08.3.15.49.22.19.07.39.14.61.21.34.12.65.25.94.41s.51.36.68.61c.17.25.26.58.26,1,0,.36-.09.69-.28,1s-.46.55-.81.74c-.35.19-.79.28-1.31.28Z"></path><path class="cls-4" d="M27.34,16.67l2.41-8.66h1.31l-2.41,8.66h-1.31Z"></path><path class="cls-4" d="M34.43,15.55v-1.2h-3.31v-1.08l3.14-4.48h1.53v4.39h.86v1.18h-.86v1.2h-1.35ZM32.55,13.18h1.96v-2.9l-1.96,2.9Z"></path><path class="cls-4" d="M37.65,15.55v-6.76h1.35v6.76h-1.35ZM38.83,12.65v-1.09h3.3v1.09h-3.3ZM41.91,15.55v-6.76h1.35v6.76h-1.35Z"></path><path class="cls-4" d="M44.14,15.55l2.46-6.76h1.54l2.46,6.76h-1.43l-1.81-5.23-1.82,5.23h-1.41ZM45.22,14.04l.36-1.05h3.48l.35,1.05h-4.18Z"></path><path class="cls-4" d="M51.47,15.55v-6.76h1.35l3.06,4.59v-4.59h1.35v6.76h-1.35l-3.06-4.58v4.58h-1.35Z"></path><path class="cls-4" d="M58.1,15.55l2.46-6.76h1.54l2.46,6.76h-1.43l-1.81-5.23-1.82,5.23h-1.41ZM59.19,14.04l.36-1.05h3.48l.35,1.05h-4.18Z"></path></g><g><path class="cls-2" d="M1.57,17.43h10.89l10.65-10.66H1.57v10.66"></path><path class="cls-3" d="M14.35,8.9h-2.13v5s-1.85-5.01-1.85-5.01h-1.84l-1.58,4.18c-.17-1.06-1.27-1.43-2.13-1.71-.57-.18-1.18-.45-1.17-.75,0-.24.32-.47.96-.44.43.02.8.06,1.55.42l.74-1.28c-.68-.35-1.63-.57-2.4-.57h0c-.9,0-1.65.29-2.12.77-.32.34-.5.76-.51,1.24-.01.65.23,1.11.73,1.48.42.31.96.51,1.44.66.59.18,1.07.34,1.06.68,0,.12-.05.24-.14.33-.15.15-.37.21-.68.21-.6.01-1.05-.08-1.76-.5l-.66,1.3c.71.4,1.46.61,2.32.61h.19c.74-.01,1.35-.19,1.83-.58.03-.02.05-.04.08-.07l-.08.41h1.79s.32-.83.32-.83c.34.12.72.18,1.13.18s.77-.06,1.11-.17l.22.81h3.22s0-1.88,0-1.88h.69c1.66,0,2.64-.84,2.64-2.26,0-1.57-.95-2.26-2.98-2.26ZM9.45,13.18c-.23,0-.46-.04-.68-.12l.67-2.12h.01l.66,2.13c-.2.07-.43.11-.67.11h0ZM14.48,11.96h-.47v-1.71h.47c.62,0,1.12.21,1.12.84,0,.66-.5.87-1.12.87"></path><path class="cls-1" d="M1.57,6.77h21.79v10.66H1.57V6.77Z"></path></g></svg> 