<?xml version="1.0" encoding="UTF-8"?> <svg xmlns="http://www.w3.org/2000/svg" id="Layer_1" data-name="Layer 1" viewBox="0 0 65.75 24"><defs><style> .cls-1 { fill: none; } .cls-1, .cls-2 { stroke-width: 0px; } .cls-2 { fill: #fff; } </style></defs><g><path class="cls-2" d="M26.16,12.38c-.17-.25-.4-.46-.68-.62-.28-.15-.6-.29-.94-.41-.14-.04-.27-.09-.39-.12-.07-.03-.15-.06-.22-.08-.18-.07-.34-.14-.48-.22-.14-.08-.25-.17-.33-.28-.01-.01-.02-.03-.02-.04-.06-.1-.09-.22-.09-.36s.03-.25.09-.35c0-.02.01-.03.02-.05.08-.11.19-.19.32-.24.13-.05.28-.08.44-.07.09,0,.18.01.27.03.07.02.14.05.21.08.14.08.24.18.32.31.08.12.12.26.12.41h1.45c-.01-.41-.12-.76-.32-1.06-.2-.29-.48-.52-.83-.68-.28-.12-.6-.2-.95-.22-.08-.01-.16-.01-.25-.01-.29,0-.55.03-.8.1-.14.03-.27.07-.4.13-.35.15-.62.38-.82.67-.19.29-.29.64-.29,1.05,0,.48.14.87.42,1.16.26.27.62.48,1.09.64.04.02.09.04.13.05.24.08.46.16.67.23.09.03.17.06.25.1.11.05.22.1.31.15.16.09.28.2.38.32.09.13.14.29.14.47,0,.17-.04.31-.12.42-.08.12-.2.21-.34.27-.11.05-.23.08-.37.09-.05,0-.1,0-.15,0-.22,0-.42-.04-.59-.13-.12-.07-.23-.16-.31-.27-.03-.03-.06-.06-.08-.1-.09-.16-.14-.33-.15-.52h-1.43c.01.45.12.84.35,1.17.23.32.53.56.91.73.13.06.26.1.4.14.28.07.58.11.91.11.05,0,.09,0,.14-.01.46-.01.85-.1,1.18-.27.35-.19.62-.43.81-.74.18-.3.28-.64.28-1,0-.41-.09-.74-.26-.99Z"></path><path class="cls-2" d="M29.49,7.73l-2.42,8.67h1.32l2.41-8.67h-1.31Z"></path><path class="cls-2" d="M35.52,12.9v-4.39h-1.53l-3.14,4.49v1.08h3.31v1.2h1.36v-1.2h.86v-1.18h-.86ZM34.25,12.9h-1.96l1.96-2.9v2.9Z"></path><path class="cls-2" d="M41.65,8.51v6.77h1.35v-6.77h-1.35ZM38.57,11.28v1.09h3.3v-1.09h-3.3ZM37.39,8.51v6.77h1.35v-6.77h-1.35Z"></path><path class="cls-2" d="M48.79,12.71h-3.48l-.36,1.05h4.19l-.35-1.05ZM47.87,8.51h-1.53l-2.47,6.77h1.41l.53-1.52.36-1.05.93-2.66.92,2.66.36,1.05.52,1.52h1.43l-2.46-6.77Z"></path><path class="cls-2" d="M55.62,8.51v4.59l-3.06-4.59h-1.36v6.77h1.36v-4.58l3.06,4.58h1.35v-6.77h-1.35Z"></path><path class="cls-2" d="M62.76,12.71h-3.48l-.36,1.05h4.18l-.34-1.05ZM61.84,8.51h-1.54l-2.46,6.77h1.41l.53-1.52.36-1.05.93-2.66.92,2.66.36,1.05.52,1.52h1.43l-2.46-6.77Z"></path></g><g><path class="cls-2" d="M1.31,6.49v10.66h10.89l10.65-10.66H1.31ZM14.43,13.14h-.68v1.88h-3.23l-.22-.82c-.33.11-.71.17-1.12.17s-.78-.06-1.12-.18l-.32.83h-1.81l.09-.41s-.05.04-.07.06c-.48.39-1.09.57-1.83.58h-.2c-.85,0-1.6-.2-2.31-.6l.66-1.3c.71.42,1.14.51,1.75.5.31-.01.54-.06.68-.22.09-.08.14-.2.14-.33.01-.33-.47-.49-1.06-.67-.48-.15-1.02-.35-1.44-.66-.5-.37-.74-.83-.73-1.48.01-.48.18-.91.51-1.24.46-.48,1.22-.78,2.12-.78.78,0,1.72.22,2.41.57l-.74,1.29c-.75-.37-1.13-.4-1.55-.42-.64-.04-.96.19-.96.43-.01.3.6.57,1.17.76.85.27,1.96.64,2.13,1.7l1.58-4.18h1.84l1.85,5.01v-5.01h2.12c2.03,0,2.98.69,2.98,2.26,0,1.42-.98,2.26-2.64,2.26Z"></path><path class="cls-2" d="M9.86,12.79c-.2.07-.44.11-.68.11-.22,0-.45-.04-.67-.12l.67-2.12h.02l.66,2.13Z"></path><path class="cls-2" d="M15.34,10.82c0,.65-.5.86-1.12.86h-.47v-1.71h.47c.62,0,1.12.21,1.12.85Z"></path><polygon class="cls-1" points="23.09 6.5 23.09 17.16 12.19 17.16 22.84 6.5 23.09 6.5"></polygon></g></svg> 