<?xml version="1.0" encoding="UTF-8"?> <svg xmlns="http://www.w3.org/2000/svg" id="Layer_1" data-name="Layer 1" viewBox="0 0 65.75 24"><defs><style> .cls-1 { fill: #fff; stroke-width: 0px; } </style></defs><path class="cls-1" d="M9.07,15.58c-.4.24-.78.5-1.23.64-1.33.4-2.65.27-3.95-.15-.36-.12-.7-.29-1.05-.44-.15-.07-.19-.14-.1-.3.27-.51.54-1.03.79-1.55.09-.18.18-.14.31-.07.55.31,1.13.54,1.77.6.36.03.72.04,1.08-.03.22-.04.42-.13.57-.3.24-.28.23-.61-.03-.86-.21-.21-.49-.3-.75-.39-.59-.21-1.2-.37-1.77-.63-.67-.3-1.3-.66-1.69-1.31-.81-1.34-.3-3.04,1.13-3.83,1.13-.63,2.34-.65,3.58-.48.75.11,1.46.33,2.16.63.18.08.22.15.11.33-.29.48-.57.96-.84,1.46-.1.18-.19.22-.38.12-.75-.38-1.56-.54-2.4-.51-.27,0-.53.06-.77.2-.38.23-.4.57-.06.85.41.34.91.51,1.4.68.36.12.72.24,1.08.38,1,.38,1.86.92,2.16,2.13.24-.63.45-1.19.66-1.75.53-1.41,1.06-2.81,1.58-4.22.07-.18.17-.23.34-.23.76,0,1.52.01,2.28,0,.17,0,.23.08.28.22.66,1.8,1.32,3.6,1.98,5.4.2.55.41,1.1.61,1.66.1-.05.06-.13.06-.18,0-2.26,0-4.53,0-6.79,0-.28.1-.33.34-.33.93.02,1.86,0,2.79,0,.79,0,1.58.06,2.33.31,1.2.4,1.89,1.22,2.03,2.49.13,1.12-.05,2.15-.9,2.96-.61.58-1.37.82-2.19.93-.49.06-.99.06-1.48.04-.26-.01-.32.08-.31.32.01.8,0,1.6,0,2.4,0,.2,0,.3-.27.29-1.38-.01-2.76,0-4.14.02-.19,0-.27-.06-.32-.24-.09-.34-.21-.67-.32-1.01-.04-.14-.09-.2-.26-.16-.96.27-1.93.26-2.9,0-.17-.05-.24,0-.29.16-.1.34-.22.67-.32,1.01-.05.18-.15.24-.33.24-.75,0-1.5,0-2.25,0-.35,0-.35-.01-.24-.33.04-.12.12-.24.11-.38.03-.01.05-.03.01-.05-.01.01-.02.02-.03.04ZM20.59,9.86c0,.35,0,.7,0,1.05,0,.16.05.22.21.21.37,0,.74.01,1.11-.06.64-.12,1.01-.55,1.03-1.17.02-.64-.32-1.06-.96-1.22-.38-.09-.77-.05-1.16-.07-.18,0-.23.06-.22.23,0,.34,0,.68,0,1.03ZM13.88,9.67s-.06.03-.06.04c-.31.96-.61,1.92-.92,2.88-.04.13,0,.19.13.23.55.15,1.11.15,1.66,0,.12-.03.15-.08.11-.21-.08-.2-.13-.42-.2-.62-.24-.77-.48-1.53-.72-2.3Z"></path><path class="cls-1" d="M26.57,13.47c0-.85,0-1.69,0-2.54,0-.15-.01-.29.21-.29.98.03,1.96-.06,2.93.04.55.06,1.02.3,1.26.85.22.53.17,1.04-.2,1.5-.26.32-.27.32.09.55.44.29.56.73.54,1.21-.02.55-.26.98-.77,1.24-.43.22-.89.27-1.36.27-.81,0-1.62,0-2.42,0-.22,0-.28-.08-.28-.28,0-.86,0-1.71,0-2.57h0ZM28.83,13.99c-.36,0-.61,0-.85,0-.1,0-.17.02-.17.14,0,.3,0,.61,0,.91,0,.09.04.15.13.14.6-.01,1.2.07,1.79-.07.26-.06.39-.27.39-.53,0-.25-.12-.43-.36-.52-.34-.13-.69-.07-.93-.08ZM28.51,12.94c.16,0,.32.01.48,0,.16-.02.32-.06.47-.1.23-.06.35-.24.36-.46.01-.23-.1-.4-.31-.51-.13-.06-.27-.08-.42-.08-.28,0-.55,0-.83,0q-.47,0-.47.46,0,.7.7.7Z"></path><path class="cls-1" d="M36.01,13.47c0-.87,0-1.73,0-2.6,0-.16.05-.22.21-.22.86.01,1.72-.08,2.57.04,1.74.24,2.69,1.74,2.41,3.32-.25,1.42-1.54,2.3-2.8,2.29-.7,0-1.41,0-2.11.01-.22,0-.28-.07-.27-.28.01-.86,0-1.71,0-2.57,0,0,0,0,0,0ZM37.29,13.48h0c0,.47,0,.95,0,1.42,0,.17.04.24.22.23.27,0,.55,0,.82,0,1.15-.03,1.81-1.04,1.5-2.17-.22-.77-.78-1.15-1.59-1.16-.24,0-.48,0-.71,0-.2-.01-.25.07-.24.25,0,.47,0,.95,0,1.42Z"></path><path class="cls-1" d="M56.35,14.06c-.05.62.09,1.37-.09,2.11-.19.76-.67,1.2-1.42,1.35-.87.17-1.74.11-2.57-.23-.23-.09-.26-.2-.16-.4.08-.16.16-.32.22-.49.06-.17.15-.19.3-.11.42.22.87.32,1.34.31.63,0,1.08-.39,1.12-.95,0-.06.03-.14-.03-.18-.08-.05-.12.03-.16.07-.64.62-1.87.52-2.53-.11-.62-.59-.77-1.85-.29-2.64.58-.94,1.7-1.07,2.45-.74.14.06.27.17.4.27.12.09.18.08.16-.07-.03-.27.12-.3.33-.29.24,0,.48.01.71,0,.18,0,.23.06.23.23,0,.58,0,1.16,0,1.87ZM54.05,12.95c-.56,0-1.02.44-1.02.97,0,.56.46.99,1.04.98.6,0,1.03-.42,1.02-.99,0-.57-.44-.97-1.04-.96Z"></path><path class="cls-1" d="M44.23,14.58c-.41,0-.82,0-1.23,0-.23,0-.27.07-.16.28.29.55,1.1.71,1.66.29.25-.19.42-.2.61.05.01.01.03.03.04.04.44.38.43.43-.03.76-1.12.81-3.15.49-3.57-1.2-.22-.89-.05-1.73.66-2.37.67-.61,1.48-.68,2.29-.35.82.33,1.14,1.05,1.22,1.88.06.65.04.65-.61.65-.29,0-.59,0-.88,0,0,0,0,0,0,0ZM43.59,13.77h0c.22,0,.44-.01.66,0,.27.01.25-.13.18-.31-.16-.37-.47-.57-.85-.56-.37.02-.66.25-.8.63-.06.16-.02.24.15.23.22,0,.44,0,.66,0Z"></path><path class="cls-1" d="M33.56,14.78c.22-.67.41-1.28.61-1.89.07-.23.17-.45.21-.68.04-.2.13-.26.33-.25.27.01.55,0,.83,0,.19,0,.23.05.17.23-.32.85-.64,1.71-.96,2.56-.22.59-.46,1.19-.67,1.78-.38,1.06-1.13,1.31-2.28.89-.18-.07-.2-.18-.13-.33.03-.06.06-.12.09-.18.07-.15.1-.35.22-.45.14-.12.31.05.48.08.32.05.5-.15.39-.44-.49-1.27-.99-2.55-1.48-3.82-.11-.28-.08-.34.22-.33.22,0,.44.02.66,0,.29-.03.4.09.48.35.23.74.49,1.48.73,2.22.02.07.06.13.12.26Z"></path><path class="cls-1" d="M57.14,14.13c0-.63,0-1.25,0-1.88,0-.21.07-.3.28-.29.25.01.49,0,.74,0,.18,0,.27.06.25.25,0,.06-.04.15.04.18.09.04.13-.06.18-.1.65-.56,1.57-.54,2.13.05.22.23.33.52.35.82.07.99.01,1.98.03,2.96,0,.13-.07.19-.19.19-.31,0-.63.01-.94,0-.18,0-.14-.15-.14-.25,0-.7,0-1.41,0-2.11,0-.17-.02-.34-.09-.5-.12-.26-.31-.42-.62-.41-.34.01-.55.14-.67.43-.07.16-.08.33-.08.5,0,.69,0,1.39.01,2.08,0,.21-.07.27-.27.26-.24-.01-.48-.02-.71,0-.26.03-.3-.09-.3-.31.01-.63,0-1.25,0-1.88h0Z"></path><path class="cls-1" d="M47.75,16.38c-.6.02-1.13-.19-1.63-.51-.15-.09-.2-.18-.08-.34.14-.19.22-.47.41-.57.19-.1.38.18.59.25.3.11.59.2.92.17.17-.02.31-.08.34-.25.03-.18-.13-.27-.26-.33-.24-.1-.49-.16-.73-.24-.16-.06-.32-.12-.47-.19-.51-.25-.72-.67-.68-1.23.04-.55.35-.91.82-1.1.75-.29,1.49-.15,2.19.23.15.08.22.18.11.34-.03.04-.04.09-.06.13-.29.56-.28.55-.86.3-.23-.1-.47-.16-.72-.14-.13.01-.27.05-.3.21-.03.17.07.26.21.33.35.16.73.25,1.09.42.66.32.93.74.82,1.39-.11.65-.47.98-1.28,1.14-.14.03-.28,0-.43,0Z"></path><path class="cls-1" d="M28.84,8.18c.4.19.65.45.62.89-.02.35-.17.59-.49.74-.23.1-.47.16-.72.16-.47,0-.95,0-1.42,0-.17,0-.23-.05-.23-.23,0-1,0-1.99,0-2.99,0-.12,0-.23.17-.23.56.01,1.12-.05,1.68.03.66.1.99.65.75,1.22-.07.16-.21.26-.36.39ZM27.86,9.42c.19,0,.38.02.57,0,.33-.04.51-.34.39-.62-.1-.22-.32-.27-.53-.28-.27-.02-.55,0-.83,0-.21-.01-.25.08-.25.26,0,.66,0,.66.65.65ZM27.84,7.08c-.17,0-.31,0-.45,0-.06,0-.16-.01-.16.08,0,.25,0,.51,0,.76,0,.02.05.06.08.06.37,0,.74.07,1.09-.07.18-.07.26-.21.25-.4,0-.19-.1-.31-.28-.38-.18-.07-.37-.04-.53-.05Z"></path><path class="cls-1" d="M51.3,14.34c0,.57-.01,1.14,0,1.71,0,.22-.08.29-.28.29-.26,0-.51-.02-.77-.01-.18,0-.24-.07-.24-.26,0-.84,0-1.69,0-2.53,0-.18.05-.3.2-.41.29-.2.55-.43.83-.64.06-.04.12-.11.2-.06.07.04.04.12.04.18,0,.58,0,1.16,0,1.74,0,0,0,0,0,0Z"></path><path class="cls-1" d="M39.16,8.9c.18.63.7.81,1.24.48.18-.11.38-.06.48.12.06.09,0,.14-.06.19-.4.39-1.08.47-1.59.19-.49-.26-.77-.84-.67-1.4.17-.98,1.1-1.45,1.92-.97.39.23.65.83.57,1.26-.03.16-.14.12-.24.13-.54,0-1.08,0-1.64,0ZM39.81,8.5c.16,0,.32,0,.48,0,.14,0,.19-.03.14-.18-.09-.3-.34-.51-.64-.5-.29,0-.56.24-.62.53-.03.12.02.15.13.15.17,0,.34,0,.51,0Z"></path><path class="cls-1" d="M36.53,7.7c.27-.27.55-.42.91-.37.46.07.77.39.79.87.02.53,0,1.06,0,1.6,0,.27-.2.17-.33.18-.13,0-.3.06-.29-.18.01-.43,0-.86,0-1.28,0-.41-.2-.64-.53-.63-.35,0-.57.24-.57.64,0,.42-.01.84,0,1.25,0,.23-.13.22-.27.2-.14-.01-.34.09-.34-.2.01-.69,0-1.39,0-2.08,0-.15-.07-.33.21-.33.37,0,.37-.01.41.33Z"></path><path class="cls-1" d="M31.46,9.64c-.3.3-.61.46-1,.38-.43-.09-.7-.41-.72-.87-.01-.52,0-1.04,0-1.57,0-.29.2-.19.34-.2.15-.02.28-.02.27.21-.01.43,0,.85,0,1.28,0,.4.2.61.52.61.36,0,.58-.22.59-.62,0-.42.02-.84,0-1.25-.01-.27.15-.23.31-.23.16,0,.31-.03.31.23-.02.67,0,1.35-.01,2.02,0,.13.12.36-.18.35-.21,0-.5.1-.43-.34Z"></path><path class="cls-1" d="M44.45,10.03c-.29-.02-.61-.1-.9-.28-.14-.09-.16-.17-.06-.3.08-.1.11-.28.31-.14.21.15.46.22.72.22.16,0,.31-.04.34-.23.03-.18-.11-.25-.24-.3-.21-.08-.44-.14-.64-.22-.36-.15-.52-.42-.47-.75.05-.34.3-.6.65-.67.38-.08.73.01,1.08.17.15.07.15.16.06.27-.08.1-.08.31-.3.19-.18-.1-.38-.17-.59-.17-.15,0-.3.05-.33.21-.03.16.1.23.23.28.15.06.3.11.46.16.54.19.75.45.68.87-.07.42-.43.69-.99.69Z"></path><path class="cls-1" d="M33.44,10.04c-.33,0-.63-.12-.92-.27-.11-.06-.22-.12-.1-.25.09-.1.09-.36.34-.19.2.13.42.22.67.21.18,0,.37-.03.4-.24.04-.21-.15-.26-.3-.32-.21-.08-.43-.14-.64-.23-.26-.11-.41-.3-.42-.59-.01-.32.11-.56.39-.7.48-.25.94-.13,1.38.11.18.1.01.19-.02.28-.04.1-.08.24-.24.15-.18-.11-.38-.17-.59-.18-.15-.01-.3.02-.35.18-.05.18.09.26.22.31.17.07.34.12.51.18.48.18.67.43.62.83-.05.4-.37.66-.85.7-.04,0-.08,0-.11,0Z"></path><path class="cls-1" d="M42.21,10.03c-.29-.03-.6-.12-.89-.3-.15-.1-.1-.18-.02-.27.07-.08.08-.29.28-.15.23.16.49.25.78.23.15,0,.29-.06.32-.23.04-.17-.1-.24-.22-.29-.17-.07-.34-.12-.51-.18-.51-.17-.69-.41-.62-.87.05-.36.41-.64.86-.64.28,0,.55.07.8.18.15.06.19.16.1.31-.08.14-.12.28-.33.15-.18-.11-.38-.18-.6-.15-.12.02-.25.05-.28.2-.03.15.08.23.2.28.16.07.32.12.48.18.54.19.75.47.68.87-.08.44-.44.69-1.03.68Z"></path><path class="cls-1" d="M51.33,11.17s0,.08,0,.11c-.03.21.11.51-.07.61-.16.09-.37-.17-.56-.26-.13-.06-.24-.15-.37-.21-.27-.11-.38-.28-.36-.59.03-.41,0-.42.41-.42.25,0,.49,0,.74,0,.16,0,.22.05.21.22-.01.18,0,.36,0,.54,0,0,0,0,0,0Z"></path><path class="cls-1" d="M35.39,8.69c0,.36-.01.72,0,1.08.01.26-.17.2-.31.2-.14,0-.31.06-.31-.2.01-.73,0-1.46,0-2.2,0-.28.19-.2.34-.21.14,0,.29-.03.28.2-.01.37,0,.74,0,1.11Z"></path><path class="cls-1" d="M35.08,7c-.24.05-.33-.02-.33-.28,0-.27.09-.32.33-.3.2.01.36-.01.35.28,0,.27-.09.36-.35.31Z"></path><path class="cls-1" d="M9.07,15.58s.02-.02.03-.04c.03.03.01.04-.01.05,0,0-.02-.02-.02-.02Z"></path></svg> 