<?xml version="1.0" encoding="UTF-8"?> <svg xmlns="http://www.w3.org/2000/svg" id="Layer_1" data-name="Layer 1" viewBox="0 0 58.1 24"><defs><style> .cls-1 { fill: #fff; stroke-width: 0px; } </style></defs><g id="arFehf.tif"><g><path class="cls-1" d="M11.72,16.4c-.57.4-1.18.73-1.87.86-1.38.26-2.73.13-4.06-.33-.38-.13-.73-.31-1.1-.47-.15-.07-.23-.14-.12-.34.31-.57.59-1.15.87-1.73.09-.19.18-.21.36-.11.59.33,1.21.61,1.89.67.52.05,1.04.1,1.55-.08.16-.06.31-.14.42-.27.36-.42.23-.89-.3-1.16-.58-.29-1.22-.43-1.82-.65-.87-.32-1.71-.68-2.36-1.38-.63-.68-.79-1.49-.67-2.36.21-1.49,1.21-2.26,2.54-2.72.36-.12.74-.16,1.1-.26h1.39c.48.11.98.14,1.45.26.58.15,1.14.33,1.68.58.18.08.18.16.09.32-.35.59-.7,1.19-1.03,1.79-.09.16-.17.1-.28.05-.86-.41-1.76-.64-2.72-.61-.34.01-.67.05-.96.25-.39.27-.41.58-.06.89.46.41,1.04.59,1.61.79.69.24,1.4.45,2.05.81.8.44,1.39,1.03,1.6,2.02.17-.42.31-.79.45-1.15.69-1.83,1.38-3.67,2.06-5.51.08-.23.19-.32.45-.32.83.02,1.65.01,2.48,0,.18,0,.28.05.35.23.95,2.59,1.91,5.17,2.86,7.75.02.06.03.14.13.21,0-.14,0-.24,0-.35,0-2.51,0-5.02,0-7.53,0-.26.08-.32.33-.32,1.07.01,2.15-.01,3.22.01,1.06.02,2.13.09,3.11.55,1.03.48,1.62,1.29,1.79,2.4.13.84.1,1.67-.24,2.47-.37.87-1.03,1.43-1.9,1.79-.94.38-1.92.38-2.91.37-.44,0-.43,0-.43.43,0,.9,0,1.8,0,2.7,0,.2-.05.25-.25.25-1.58,0-3.16,0-4.74,0-.21,0-.29-.08-.35-.27-.11-.4-.25-.79-.37-1.19-.05-.18-.15-.13-.27-.09-.9.25-1.82.28-2.74.12-.19-.03-.38-.08-.57-.14-.17-.05-.24,0-.29.16-.12.41-.27.8-.39,1.21-.04.15-.11.2-.26.2-.93,0-1.86,0-2.8,0-.2,0-.23-.06-.16-.23.07-.18.17-.35.18-.55.02-.02.04-.03,0-.05,0,0-.02.02-.03.03ZM24.72,9.99c0,.4,0,.79,0,1.19,0,.1,0,.2.14.2.5-.02,1.01.05,1.5-.1.66-.2,1.02-.65,1.01-1.34,0-.64-.38-1.09-1.03-1.27-.49-.13-.98-.1-1.48-.11-.14,0-.15.08-.15.19,0,.41,0,.83,0,1.24ZM17.14,9.73c-.04.07-.06.1-.07.13-.34,1.06-.67,2.12-1.01,3.17-.05.16.02.22.16.26.6.17,1.2.17,1.81,0,.18-.05.2-.12.15-.28-.34-1.08-.68-2.17-1.03-3.29Z"></path><path class="cls-1" d="M34.82,17.32c-1.57,0-2.82-.84-3.26-2.23-.49-1.56.15-3.22,1.71-3.96,1.39-.66,3.09-.32,4.11.81,1.56,1.74.66,4.67-1.61,5.25-.33.08-.66.16-.94.13ZM36.66,14.07c0-1.15-.81-1.98-1.93-1.97-1.05,0-1.87.84-1.86,1.93,0,1.16.83,2.02,1.94,2.01,1.07,0,1.86-.85,1.86-1.97Z"></path><path class="cls-1" d="M46.79,15.29c-.48,0-.96,0-1.44,0-.26,0-.28.03-.17.27.31.66,1.02.78,1.69.54.15-.05.29-.14.41-.25.14-.14.24-.1.35.01.14.13.28.27.44.39.17.12.16.2.03.35-.65.68-1.85.92-2.84.55-.92-.34-1.5-1.21-1.52-2.21-.02-.98.31-1.79,1.17-2.31,1.22-.74,3.15-.33,3.52,1.59.05.27.07.54.07.81,0,.19-.05.28-.27.27-.48-.02-.96,0-1.44,0ZM46.1,13.4c-.46,0-.89.36-.98.82-.02.1-.03.19.13.19.58,0,1.17,0,1.75,0,.1,0,.14-.02.12-.14-.08-.5-.51-.87-1.01-.87Z"></path><path class="cls-1" d="M40.07,13.04c.35-.4.7-.66,1.19-.73.96-.14,1.75.45,1.85,1.41.06.53.03,1.06.03,1.59,0,.57,0,1.13,0,1.7,0,.16-.04.22-.21.21-.32-.01-.64-.01-.96,0-.18,0-.24-.04-.24-.23.01-.79,0-1.58,0-2.36,0-.05,0-.11,0-.16-.01-.59-.3-.91-.8-.91-.53,0-.86.34-.87.92,0,.81-.01,1.63,0,2.44,0,.26-.07.33-.32.31-.28-.02-.57-.02-.85,0-.17,0-.23-.05-.23-.22,0-1.22,0-2.43,0-3.65,0-.26,0-.51,0-.77,0-.15.04-.2.19-.2.33,0,.66.01.98,0,.19,0,.23.06.21.23-.01.12,0,.25,0,.43Z"></path><path class="cls-1" d="M34.49,8.1c.69.34.9.87.58,1.44-.22.38-.59.53-1,.55-.64.02-1.28,0-1.92.02-.14,0-.18-.05-.18-.19,0-1.17,0-2.33,0-3.5,0-.14.05-.19.19-.18.61.02,1.22-.03,1.83.04.47.06.85.32.95.66.13.47,0,.81-.45,1.17ZM33.34,8.46h-.19q-.5,0-.5.5c0,.56,0,.56.57.55.31,0,.62.04.92-.07.24-.08.37-.26.36-.5-.01-.23-.17-.37-.4-.44-.25-.07-.51-.04-.76-.05ZM33.29,6.87s0,0,0,0c-.14,0-.28,0-.43,0-.17-.01-.22.05-.21.21.01.21,0,.42,0,.64,0,.08,0,.17.12.16.36-.01.73.05,1.09-.04.31-.07.43-.23.41-.52-.01-.24-.18-.41-.48-.44-.17-.02-.34,0-.5,0Z"></path><path class="cls-1" d="M47.2,8.89c-.29,0-.59,0-.88,0-.17,0-.19.06-.13.21.21.53.84.69,1.36.35.1-.06.17-.21.34-.07.29.25.3.29,0,.52-.52.39-1.37.38-1.89-.03-.48-.38-.67-1.16-.44-1.76.22-.57.63-.91,1.25-.95.56-.04,1,.19,1.28.69.16.27.2.58.2.89,0,.13-.05.17-.17.17-.3,0-.6,0-.9,0ZM46.84,8.45c.19,0,.37,0,.56,0,.18,0,.21-.07.15-.23-.12-.36-.34-.53-.7-.52-.32,0-.6.24-.69.56-.04.14,0,.2.15.19.18,0,.35,0,.53,0Z"></path><path class="cls-1" d="M37.43,9.75c-.26.29-.56.44-.92.42-.63-.03-.97-.38-1.01-1.1-.03-.57,0-1.15-.01-1.72,0-.13.05-.16.17-.17.52-.03.51-.04.52.49,0,.46-.04.92.04,1.37.05.3.21.46.48.48.37.03.59-.09.7-.39.05-.13.05-.27.05-.42,0-.43,0-.86,0-1.3,0-.18.04-.25.24-.24.55.02.45-.05.46.44,0,.74,0,1.48,0,2.22,0,.19-.05.29-.25.25-.03,0-.07,0-.11,0-.25.04-.4-.03-.36-.35Z"></path><path class="cls-1" d="M43.14,7.59c.35-.37.72-.52,1.16-.42.44.1.75.41.76.87.02.63,0,1.27.01,1.91,0,.13-.06.16-.18.17-.49.03-.49.03-.49-.44,0-.4.01-.8,0-1.19-.02-.6-.49-.89-.97-.62-.24.14-.3.36-.3.61,0,.47,0,.94,0,1.4,0,.18-.04.25-.23.24-.56-.02-.45.06-.46-.44,0-.72.01-1.45,0-2.17,0-.27.08-.32.33-.32.26,0,.44.02.36.41Z"></path><path class="cls-1" d="M49.65,10.15c-.4,0-.77-.11-1.1-.33-.13-.08-.12-.17-.03-.25.1-.09.09-.37.33-.22.2.12.41.21.64.25.1.02.2.03.29.01.16-.02.31-.09.33-.26.03-.18-.11-.27-.26-.32-.24-.08-.49-.15-.73-.25-.39-.16-.59-.43-.58-.77.01-.37.25-.68.63-.8.49-.16.94-.03,1.38.19.14.07.1.18.03.26-.09.09-.07.34-.31.23-.23-.1-.45-.21-.71-.19-.16.01-.31.03-.36.21-.05.19.1.27.24.33.22.09.45.16.67.25.48.2.68.49.62.9-.06.42-.38.71-.86.77-.08,0-.16,0-.24,0Z"></path><path class="cls-1" d="M52.2,10.15c-.47.02-.81-.12-1.13-.31-.12-.07-.18-.15-.07-.27.1-.09.09-.38.35-.22.21.13.43.21.67.25.13.02.26.01.39-.04.11-.04.18-.11.19-.23,0-.12-.05-.2-.15-.25-.2-.1-.41-.16-.62-.22-.65-.18-.93-.66-.7-1.18.15-.35.56-.57,1.04-.54.3.01.57.1.84.22.12.06.22.13.1.25-.1.1-.07.4-.36.26-.22-.11-.44-.19-.68-.18-.18,0-.33.05-.37.24-.04.18.11.25.24.3.22.09.45.16.67.24.51.2.68.47.62.94-.06.41-.4.69-.88.73-.07,0-.14,0-.13,0Z"></path><path class="cls-1" d="M39.69,10.16c-.41.02-.76-.12-1.08-.31-.11-.07-.2-.15-.07-.26.1-.09.09-.38.35-.22.21.13.43.21.67.25.13.02.25.01.37-.03.12-.04.2-.11.21-.24.01-.14-.06-.22-.18-.27-.23-.09-.47-.15-.7-.24-.28-.1-.54-.23-.63-.55-.17-.61.26-1.12.97-1.14.33,0,.65.08.95.23.1.05.22.11.11.23-.1.11-.05.41-.34.29-.24-.1-.47-.21-.74-.19-.17.01-.31.07-.34.24-.03.16.09.24.22.29.24.09.49.16.72.26.52.23.68.5.59.99-.07.38-.45.66-.93.68-.05,0-.11,0-.13,0Z"></path><path class="cls-1" d="M41.88,8.66c0,.41,0,.83,0,1.24,0,.15-.04.2-.2.2-.5.01-.5.02-.5-.48,0-.72,0-1.45,0-2.17,0-.2.04-.28.26-.27.49.02.43-.06.43.42,0,.35,0,.71,0,1.06Z"></path><path class="cls-1" d="M41.55,6.77c-.12-.03-.28.05-.34-.05-.08-.16-.03-.35-.02-.52,0-.07.07-.07.12-.08.06,0,.12,0,.19,0,.43,0,.52.11.42.53-.06.23-.26.06-.37.12Z"></path><path class="cls-1" d="M11.72,16.4s.03-.03.03-.03c.03.02.01.04,0,.05,0,0-.02-.02-.03-.03Z"></path></g></g></svg> 