<?xml version="1.0" encoding="UTF-8"?> <svg xmlns="http://www.w3.org/2000/svg" id="Layer_1" data-name="Layer 1" viewBox="0 0 65.75 24"><defs><style> .cls-1 { fill-rule: evenodd; } .cls-1, .cls-2 { fill: #fff; stroke-width: 0px; } </style></defs><path class="cls-1" d="M16.47,9.44c-.6,0-1.18.21-1.64.59v-.53h-1.5v5.83h1.56v-3.72c.34-.44.86-.71,1.41-.72.21-.01.42.02.62.09v-1.49c-.15-.03-.3-.04-.46-.04"></path><path class="cls-1" d="M2.9,13.55c.44.38,1.01.58,1.59.58.42,0,.74-.2.74-.49,0-.88-2.81-.56-2.81-2.44,0-1.12,1.08-1.81,2.23-1.81.7,0,1.38.21,1.96.59l-.73,1.13c-.32-.24-.71-.38-1.11-.4-.43,0-.79.17-.79.47,0,.76,2.81.46,2.81,2.47,0,1.12-1.09,1.8-2.31,1.8-.84,0-1.66-.28-2.33-.78l.75-1.12Z"></path><path class="cls-1" d="M12.67,12.36c0-1.62-1.14-2.98-2.74-2.98-1.72,0-2.82,1.42-2.82,3.04-.07,1.6,1.18,2.96,2.78,3.03.09,0,.17,0,.26,0,.91.01,1.78-.37,2.38-1.04l-.89-.89c-.37.41-.9.66-1.46.67-.81.03-1.49-.58-1.57-1.38h4.02c.02-.15.04-.3.04-.45ZM8.68,11.66c.12-.6.64-1.02,1.24-1.02.59,0,1.08.44,1.15,1.02h-2.39Z"></path><polygon class="cls-1" points="20.63 13.06 22.22 9.5 23.84 9.5 21.17 15.33 20.09 15.33 17.43 9.5 19.04 9.5 20.63 13.06"></polygon><path class="cls-1" d="M25.15,6.76c.55.01.99.47.98,1.02s-.47.99-1.02.98c-.54,0-.98-.45-.98-1,0-.55.45-1,1-1,0,0,.01,0,.02,0"></path><rect class="cls-2" x="24.37" y="9.5" width="1.56" height="5.83"></rect><path class="cls-1" d="M32.36,14.14c-.6.86-1.59,1.35-2.63,1.31-1.68.04-3.07-1.28-3.11-2.96-.04-1.68,1.28-3.07,2.96-3.11.06,0,.11,0,.17,0,.95,0,1.85.42,2.44,1.17l-1.1.97c-.31-.43-.81-.69-1.34-.7-.86,0-1.56.69-1.57,1.55,0,.02,0,.03,0,.05-.03.85.64,1.56,1.49,1.59.04,0,.08,0,.12,0,.56-.01,1.08-.3,1.39-.77l1.2.9Z"></path><path class="cls-1" d="M38.01,14.4c-.61.68-1.47,1.06-2.38,1.04-1.6.07-2.96-1.16-3.04-2.77,0-.09,0-.17,0-.26,0-1.62,1.1-3.04,2.82-3.04,1.6,0,2.74,1.36,2.74,2.98,0,.15-.01.3-.04.44h-4.02c.08.8.76,1.41,1.57,1.38.56-.02,1.09-.26,1.46-.67l.89.89ZM36.56,11.66c-.07-.58-.56-1.02-1.15-1.02-.61,0-1.13.43-1.24,1.02h2.39Z"></path><path class="cls-1" d="M38.77,15.33v-5.83h1.5v.47c.46-.38,1.04-.59,1.64-.59.78,0,1.51.34,2.01.94.45.58.66,1.31.6,2.04v2.97h-1.56v-3.09c.04-.4-.08-.79-.35-1.09-.24-.22-.55-.34-.87-.32-.56.02-1.07.28-1.41.72v3.79h-1.56Z"></path><path class="cls-1" d="M48.52,9.38c-1.88,0-3.41,1.52-3.41,3.4,0,.94.38,1.84,1.07,2.48.24.23.61.25.87.05.86-.64,2.04-.64,2.9,0,.27.2.64.18.88-.05,1.36-1.3,1.42-3.45.13-4.82-.64-.67-1.52-1.05-2.44-1.06M48.5,14.49c-.91.02-1.67-.69-1.7-1.61,0-.03,0-.06,0-.09,0-.94.76-1.7,1.7-1.7s1.7.76,1.7,1.7c.02.91-.7,1.67-1.61,1.7-.03,0-.06,0-.09,0"></path><polygon class="cls-1" points="54.97 15.33 53.82 15.33 51.5 9.5 53.06 9.5 54.33 12.83 55.57 9.5 56.87 9.5 58.1 12.83 59.37 9.5 60.93 9.5 58.62 15.33 57.46 15.33 56.22 12.01 54.97 15.33"></polygon><path class="cls-2" d="M60.95,14.67h-.13v.25h-.11v-.68h.27c.12,0,.22.1.22.22h0c0,.09-.05.17-.13.2l.15.26h-.12l-.14-.25ZM60.82,14.57h.16c.06,0,.11-.05.11-.11s-.05-.11-.11-.11h-.16v.23Z"></path><path class="cls-2" d="M60.93,13.96c.35,0,.63.28.63.63s-.28.63-.63.63c-.35,0-.63-.28-.63-.63h0c0-.35.28-.63.63-.63M60.93,13.86c-.4,0-.73.33-.73.73s.33.73.73.73c.4,0,.73-.33.73-.73s-.33-.73-.73-.73h0Z"></path></svg> 