<?xml version="1.0" encoding="UTF-8"?> <svg xmlns="http://www.w3.org/2000/svg" width="67" height="24" viewBox="0 0 67 24" fill="none"><g clip-path="url(#clip0_4512_46053)"><path d="M23.1483 11.2599C23.1483 11.603 23.084 11.8711 22.966 12.0535C22.8373 12.2358 22.655 12.3323 22.3869 12.3323C22.1188 12.3323 21.9472 12.2465 21.8185 12.0535C21.7006 11.8711 21.6362 11.5923 21.6362 11.2599C21.6362 10.9274 21.7006 10.6593 21.8185 10.4663C21.9472 10.284 22.1295 10.1875 22.3869 10.1875C22.6443 10.1875 22.8373 10.284 22.966 10.4663C23.0947 10.6486 23.1483 10.9167 23.1483 11.2599Z" fill="white"></path><path d="M14.9662 10.4772C14.8375 10.2949 14.6659 10.1877 14.4085 10.1877C14.1511 10.1877 13.9688 10.2842 13.8401 10.4772C13.7651 10.5952 13.7115 10.756 13.6793 10.9383H15.0948C15.0948 10.756 15.0412 10.5952 14.9662 10.4772ZM14.9662 10.4772C14.8375 10.2949 14.6659 10.1877 14.4085 10.1877C14.1511 10.1877 13.9688 10.2842 13.8401 10.4772C13.7651 10.5952 13.7115 10.756 13.6793 10.9383H15.0948C15.0948 10.756 15.0412 10.5952 14.9662 10.4772ZM9.95811 11.3458C9.5506 11.3458 9.37902 11.4853 9.37902 11.4853C9.26106 11.5603 9.19672 11.689 9.19672 11.8713C9.19672 11.9786 9.21816 12.0643 9.26106 12.1287C9.28251 12.1716 9.30396 12.193 9.37902 12.2466C9.37902 12.2466 9.56133 12.3861 9.95811 12.3646C10.2477 12.3432 10.505 12.3003 10.505 12.3003V11.3887C10.505 11.3887 10.2477 11.3458 9.95811 11.3458ZM14.9662 10.4772C14.8375 10.2949 14.6659 10.1877 14.4085 10.1877C14.1511 10.1877 13.9688 10.2842 13.8401 10.4772C13.7651 10.5952 13.7115 10.756 13.6793 10.9383H15.0948C15.0948 10.756 15.0412 10.5952 14.9662 10.4772ZM14.9662 10.4772C14.8375 10.2949 14.6659 10.1877 14.4085 10.1877C14.1511 10.1877 13.9688 10.2842 13.8401 10.4772C13.7651 10.5952 13.7115 10.756 13.6793 10.9383H15.0948C15.0948 10.756 15.0412 10.5952 14.9662 10.4772ZM9.95811 11.3458C9.5506 11.3458 9.37902 11.4853 9.37902 11.4853C9.26106 11.5603 9.19672 11.689 9.19672 11.8713C9.19672 11.9786 9.21816 12.0643 9.26106 12.1287C9.28251 12.1716 9.30396 12.193 9.37902 12.2466C9.37902 12.2466 9.56133 12.3861 9.95811 12.3646C10.2477 12.3432 10.505 12.3003 10.505 12.3003V11.3887C10.505 11.3887 10.2477 11.3458 9.95811 11.3458ZM9.95811 11.3458C9.5506 11.3458 9.37902 11.4853 9.37902 11.4853C9.26106 11.5603 9.19672 11.689 9.19672 11.8713C9.19672 11.9786 9.21816 12.0643 9.26106 12.1287C9.28251 12.1716 9.30396 12.193 9.37902 12.2466C9.37902 12.2466 9.56133 12.3861 9.95811 12.3646C10.2477 12.3432 10.505 12.3003 10.505 12.3003V11.3887C10.505 11.3887 10.2477 11.3458 9.95811 11.3458ZM14.9662 10.4772C14.8375 10.2949 14.6659 10.1877 14.4085 10.1877C14.1511 10.1877 13.9688 10.2842 13.8401 10.4772C13.7651 10.5952 13.7115 10.756 13.6793 10.9383H15.0948C15.0948 10.756 15.0412 10.5952 14.9662 10.4772ZM14.9662 10.4772C14.8375 10.2949 14.6659 10.1877 14.4085 10.1877C14.1511 10.1877 13.9688 10.2842 13.8401 10.4772C13.7651 10.5952 13.7115 10.756 13.6793 10.9383H15.0948C15.0948 10.756 15.0412 10.5952 14.9662 10.4772ZM9.95811 11.3458C9.5506 11.3458 9.37902 11.4853 9.37902 11.4853C9.26106 11.5603 9.19672 11.689 9.19672 11.8713C9.19672 11.9786 9.21816 12.0643 9.26106 12.1287C9.28251 12.1716 9.30396 12.193 9.37902 12.2466C9.37902 12.2466 9.56133 12.3861 9.95811 12.3646C10.2477 12.3432 10.505 12.3003 10.505 12.3003V11.3887C10.505 11.3887 10.2477 11.3458 9.95811 11.3458ZM9.95811 11.3458C9.5506 11.3458 9.37902 11.4853 9.37902 11.4853C9.26106 11.5603 9.19672 11.689 9.19672 11.8713C9.19672 11.9786 9.21816 12.0643 9.26106 12.1287C9.28251 12.1716 9.30396 12.193 9.37902 12.2466C9.37902 12.2466 9.56133 12.3861 9.95811 12.3646C10.2477 12.3432 10.505 12.3003 10.505 12.3003V11.3887C10.505 11.3887 10.2477 11.3458 9.95811 11.3458ZM14.9662 10.4772C14.8375 10.2949 14.6659 10.1877 14.4085 10.1877C14.1511 10.1877 13.9688 10.2842 13.8401 10.4772C13.7651 10.5952 13.7115 10.756 13.6793 10.9383H15.0948C15.0948 10.756 15.0412 10.5952 14.9662 10.4772ZM14.9662 10.4772C14.8375 10.2949 14.6659 10.1877 14.4085 10.1877C14.1511 10.1877 13.9688 10.2842 13.8401 10.4772C13.7651 10.5952 13.7115 10.756 13.6793 10.9383H15.0948C15.0948 10.756 15.0412 10.5952 14.9662 10.4772ZM9.95811 11.3458C9.5506 11.3458 9.37902 11.4853 9.37902 11.4853C9.26106 11.5603 9.19672 11.689 9.19672 11.8713C9.19672 11.9786 9.21816 12.0643 9.26106 12.1287C9.28251 12.1716 9.30396 12.193 9.37902 12.2466C9.37902 12.2466 9.56133 12.3861 9.95811 12.3646C10.2477 12.3432 10.505 12.3003 10.505 12.3003V11.3887C10.505 11.3887 10.2477 11.3458 9.95811 11.3458ZM27.7597 3.24933C26.6873 3.24933 25.6793 3.47453 24.7678 3.88204C23.7168 2.00536 21.7544 0.75067 19.4809 0.75067C17.7758 0.75067 16.2316 1.45845 15.127 2.61662C13.9152 1.01877 11.9849 0 9.84015 0C6.16186 0 3.18063 2.98123 3.18063 6.64879C3.18063 7.59249 3.37366 8.48257 3.72755 9.29759C2.02245 10.2949 0.875 12.1609 0.875 14.3056C0.875 17.5013 3.438 20.0858 6.60154 20.0858C6.99833 20.0858 7.39511 20.0429 7.77044 19.9678C8.63908 22.3271 10.9018 24 13.5506 24C16.1994 24 18.2905 22.445 19.2235 20.2466C19.942 20.5898 20.7463 20.7936 21.5935 20.7936C23.6203 20.7936 25.379 19.6783 26.312 18.0161C26.7946 18.1126 27.2771 18.1662 27.7704 18.1662C31.8455 18.1662 35.1592 14.8204 35.1592 10.7024C35.1592 6.58445 31.8562 3.24933 27.7704 3.24933H27.7597ZM8.1994 11.9035C8.1994 12.504 7.77044 12.8794 7.06267 12.8794C6.7195 12.8794 6.38706 12.815 6.03318 12.6327C5.96883 12.6005 5.90449 12.5684 5.84015 12.5255C5.84015 12.504 5.80798 12.504 5.8187 12.4397L5.95811 12.0536C5.97956 11.9893 6.02245 12.0107 6.05463 12.0214C6.0868 12.0429 6.11897 12.0643 6.16186 12.0965C6.56937 12.3539 6.95543 12.3646 7.07339 12.3646C7.37366 12.3646 7.56669 12.193 7.56669 11.9786V11.9571C7.56669 11.7212 7.27714 11.6354 6.93398 11.5282L6.85891 11.5067C6.39779 11.3673 5.90449 11.185 5.90449 10.5952C5.90449 10.0268 6.35489 9.64075 6.99833 9.64075H7.06267C7.44873 9.64075 7.81334 9.74799 8.07071 9.90885C8.09216 9.9303 8.12433 9.95174 8.10288 9.99464C8.10288 10.0268 7.9742 10.3378 7.96347 10.3807C7.94203 10.445 7.86696 10.4021 7.86696 10.4021C7.64176 10.2627 7.27715 10.1769 6.97688 10.1769C6.70878 10.1769 6.52648 10.3164 6.52648 10.5201C6.52648 10.756 6.82674 10.8633 7.18063 10.9705L7.24497 10.992C7.7061 11.1314 8.1994 11.3351 8.1994 11.8928V11.9142V11.9035ZM11.127 12.622C11.127 12.622 11.127 12.6756 11.0841 12.6863C11.0305 12.6863 10.9876 12.7078 10.9447 12.7185C10.8804 12.7399 10.6337 12.7828 10.4407 12.815C10.2369 12.8472 10.0332 12.8686 9.82942 12.8686C9.64712 12.8686 9.46481 12.8472 9.30396 12.815C9.15382 12.7828 9.01441 12.7185 8.90717 12.6327C8.78921 12.5576 8.70342 12.4504 8.63908 12.3324C8.57473 12.2038 8.54256 12.0536 8.54256 11.8713C8.54256 11.689 8.57473 11.5496 8.6498 11.4102C8.71414 11.2815 8.82138 11.1743 8.93934 11.0885C9.05731 10.992 9.19672 10.9383 9.35757 10.8954C9.50771 10.8525 9.66857 10.8311 9.84015 10.8311C9.96884 10.8311 10.0653 10.8311 10.1511 10.8311C10.1511 10.8311 10.3013 10.8311 10.4836 10.8633V10.7775C10.4836 10.5094 10.4192 10.3914 10.312 10.3056C10.2048 10.2198 10.0439 10.1769 9.8187 10.1769C9.8187 10.1769 9.33613 10.1769 8.95007 10.3807L8.9179 10.4021C8.9179 10.4021 8.875 10.4236 8.85355 10.37L8.71414 9.99464C8.69269 9.9303 8.73559 9.90885 8.73559 9.90885C8.9179 9.76944 9.35757 9.68365 9.35757 9.68365C9.49698 9.6622 9.74363 9.63003 9.88304 9.63003C10.2798 9.63003 10.5908 9.72654 10.7946 9.90885C11.009 10.0912 11.1056 10.3807 11.1056 10.7775V12.5898L11.127 12.622ZM12.4139 12.7507C12.4139 12.7507 12.3924 12.815 12.3603 12.815H11.8241C11.8241 12.815 11.7704 12.7936 11.7704 12.7507V8.51475C11.7704 8.51475 11.7919 8.4504 11.8241 8.4504H12.3603C12.3603 8.4504 12.4139 8.48257 12.4139 8.51475V12.7507ZM15.7061 11.378L15.6418 11.4316H13.6578C13.6793 11.7319 13.7436 11.9357 13.883 12.0965C14.0225 12.2359 14.2584 12.3217 14.5694 12.3217C15.0305 12.3217 15.2343 12.2252 15.3844 12.1823C15.3844 12.1823 15.438 12.1609 15.4595 12.2145L15.5881 12.5791C15.6096 12.6434 15.5881 12.6649 15.5667 12.6756C15.438 12.7399 15.1377 12.8686 14.5694 12.8686C14.2906 12.8686 14.0439 12.8365 13.8509 12.7614C13.6471 12.6863 13.4755 12.5684 13.3468 12.429C13.2182 12.2895 13.1217 12.118 13.0573 11.9249C12.993 11.7319 12.9608 11.5174 12.9608 11.2922C12.9608 11.067 12.993 10.8633 13.0573 10.6595C13.1109 10.4665 13.1967 10.2949 13.3254 10.1555C13.4541 10.0054 13.6042 9.89812 13.7865 9.81233C13.9688 9.71582 14.194 9.67292 14.4514 9.67292C14.6659 9.67292 14.8589 9.72654 15.0198 9.79088C15.1377 9.8445 15.2664 9.94102 15.3951 10.0804C15.4809 10.1662 15.5989 10.3593 15.6525 10.5416C15.7812 10.992 15.7168 11.3673 15.7168 11.3995L15.7061 11.378ZM17.3576 12.8794C17.0144 12.8794 16.682 12.815 16.3281 12.6327C16.2637 12.6005 16.1994 12.5684 16.1351 12.5255C16.1351 12.504 16.1029 12.504 16.1136 12.4397L16.253 12.0536C16.2745 11.9893 16.3281 12.0107 16.3495 12.0214C16.3817 12.0429 16.4139 12.0643 16.4568 12.0965C16.8643 12.3539 17.2503 12.3646 17.3683 12.3646C17.6686 12.3646 17.8616 12.193 17.8616 11.9786V11.9571C17.8616 11.7212 17.5721 11.6354 17.2289 11.5282L17.1538 11.5067C16.6927 11.3673 16.1994 11.185 16.1994 10.5952C16.1994 10.0268 16.6498 9.64075 17.2932 9.64075H17.3576C17.7436 9.64075 18.1082 9.74799 18.3656 9.90885C18.3871 9.9303 18.4192 9.95174 18.3978 9.99464C18.3978 10.0268 18.2691 10.3378 18.2584 10.3807C18.2369 10.445 18.1619 10.4021 18.1619 10.4021C17.9367 10.2627 17.5721 10.1769 17.2718 10.1769C17.0037 10.1769 16.8214 10.3164 16.8214 10.5201C16.8214 10.756 17.1217 10.8633 17.4755 10.9705L17.5399 10.992C18.001 11.1314 18.4943 11.3351 18.4943 11.8928V11.9142C18.4943 12.5147 18.0654 12.8901 17.3576 12.8901V12.8794ZM20.8321 10.1984C20.8321 10.2627 20.7678 10.2627 20.7678 10.2627H20.1136L19.6632 12.7936C19.6203 13.0617 19.5667 13.2869 19.4916 13.4584C19.4273 13.6408 19.3522 13.7802 19.2235 13.9088C19.127 14.0268 18.9983 14.1126 18.8589 14.1662C18.7195 14.2198 18.5586 14.2413 18.3763 14.2413C18.2798 14.2413 18.194 14.2413 18.0761 14.2091C18.001 14.1877 17.9581 14.1877 17.8938 14.1555C17.8723 14.1555 17.8509 14.1126 17.8616 14.0804C17.883 14.0375 18.001 13.7158 18.0117 13.6729C18.0332 13.6193 18.0761 13.6408 18.0761 13.6408C18.1082 13.6622 18.1404 13.6622 18.1833 13.6836C18.2262 13.6836 18.2905 13.7051 18.3442 13.7051C18.43 13.7051 18.505 13.6836 18.5694 13.6729C18.6552 13.6408 18.7088 13.5979 18.7517 13.5335C18.8053 13.4692 18.8482 13.3727 18.8911 13.2547C18.934 13.126 18.9769 12.9651 19.0091 12.7614L19.4487 10.2735H19.0198C18.9554 10.2735 18.9447 10.252 18.9554 10.2091L19.0305 9.79088C19.0305 9.72654 19.0948 9.73727 19.0948 9.73727H19.5452L19.5667 9.59786C19.631 9.20107 19.7597 8.89008 19.9635 8.69705C20.1565 8.4933 20.446 8.39678 20.7999 8.39678C20.8964 8.39678 20.993 8.39678 21.068 8.41823C21.1431 8.43968 21.2074 8.4504 21.2611 8.47185C21.2825 8.47185 21.3147 8.4933 21.2932 8.53619L21.1431 8.95442C21.1431 8.95442 21.1217 9.00804 21.0573 8.9866C21.0359 8.9866 21.0251 8.96515 20.9608 8.96515C20.9179 8.96515 20.8643 8.9437 20.7999 8.9437C20.7249 8.9437 20.6498 8.9437 20.5855 8.97587C20.5211 8.99732 20.4675 9.02949 20.4139 9.07239C20.3603 9.12601 20.3066 9.19035 20.2745 9.28686C20.1994 9.50134 20.178 9.71582 20.1672 9.73727H20.7999C20.8643 9.73727 20.875 9.75871 20.8643 9.80161L20.7892 10.2198L20.8321 10.1984ZM23.7383 11.9035C23.6739 12.0965 23.5989 12.2681 23.4702 12.4075C23.3415 12.5469 23.2021 12.6649 23.0198 12.7507C22.8375 12.8257 22.623 12.8686 22.3871 12.8686C22.1511 12.8686 21.9367 12.8257 21.7544 12.7507C21.5721 12.6649 21.4219 12.5576 21.304 12.4075C21.186 12.2681 21.0895 12.0965 21.0359 11.9035C20.9822 11.7105 20.9501 11.496 20.9501 11.2708C20.9501 11.0456 20.9822 10.8418 21.0359 10.6381C21.1002 10.445 21.186 10.2735 21.304 10.134C21.4219 9.99464 21.5721 9.86595 21.7544 9.79088C21.9367 9.70509 22.1404 9.6622 22.3871 9.6622C22.6337 9.6622 22.8375 9.70509 23.0198 9.79088C23.2021 9.87668 23.3522 9.99464 23.4702 10.134C23.5881 10.2735 23.6739 10.445 23.7383 10.6381C23.8026 10.8311 23.8241 11.0456 23.8241 11.2708C23.8241 11.496 23.8026 11.7105 23.7383 11.9035ZM26.0439 10.2413C26.0439 10.2413 26.0117 10.3056 25.9796 10.2949C25.9796 10.2949 25.8616 10.2735 25.7544 10.2735C25.6793 10.2735 25.5721 10.2735 25.4863 10.3164C25.3897 10.3378 25.304 10.3914 25.2396 10.4558C25.1645 10.5201 25.1002 10.6273 25.0573 10.756C25.0144 10.874 24.993 11.0777 24.993 11.2708V12.7507C24.993 12.7507 24.9715 12.815 24.9286 12.815H24.4139C24.4139 12.815 24.3495 12.7936 24.3495 12.7507V9.78016C24.3495 9.78016 24.371 9.71582 24.4032 9.71582H24.9072C24.9072 9.71582 24.9715 9.73727 24.9715 9.78016V10.0268C25.0466 9.9303 25.186 9.83378 25.3147 9.76944C25.4326 9.71582 25.5828 9.67292 25.8187 9.69437C25.9474 9.69437 26.119 9.73727 26.1511 9.74799C26.1726 9.74799 26.2048 9.78016 26.1833 9.82306C26.1619 9.87668 26.0654 10.1448 26.0332 10.2413H26.0439ZM28.682 12.7185C28.4568 12.8043 28.1458 12.8579 27.8562 12.8579C27.3522 12.8579 26.9554 12.7185 26.6981 12.429C26.4407 12.1394 26.312 11.7426 26.312 11.2601C26.312 11.0349 26.3442 10.8204 26.4085 10.6273C26.4729 10.445 26.5694 10.2627 26.6981 10.1233C26.8267 9.98392 26.9876 9.86595 27.1699 9.78016C27.3522 9.69437 27.5774 9.65148 27.8241 9.65148C27.9849 9.65148 28.1351 9.65148 28.2637 9.68365C28.4032 9.7051 28.5747 9.74799 28.6498 9.78016C28.6712 9.78016 28.7034 9.80161 28.682 9.84451C28.6284 10.0054 28.5855 10.1126 28.5426 10.252C28.5211 10.3164 28.4782 10.2842 28.4782 10.2842C28.2959 10.2198 28.1029 10.1984 27.8562 10.1984C27.5667 10.1984 27.3522 10.2949 27.2021 10.4879C27.0627 10.6702 26.9769 10.9276 26.9769 11.2601C26.9769 11.6247 27.0627 11.8928 27.2343 12.0643C27.3951 12.2252 27.6203 12.311 27.8991 12.311C28.0064 12.311 28.1243 12.311 28.2208 12.2895C28.3174 12.2681 28.4032 12.2359 28.4889 12.2038C28.4889 12.2038 28.5426 12.1823 28.564 12.2466L28.7034 12.6327L28.682 12.7078V12.7185ZM31.6203 11.378L31.556 11.4316H29.5721C29.5721 11.7319 29.6578 11.9357 29.7973 12.0965C29.9367 12.2359 30.1726 12.3217 30.4729 12.3217C30.9447 12.3217 31.1485 12.2252 31.2879 12.1823C31.2879 12.1823 31.3522 12.1609 31.3629 12.2145L31.4916 12.5791C31.5238 12.6434 31.4916 12.6649 31.4702 12.6756C31.3522 12.7399 31.0412 12.8686 30.4729 12.8686C30.2048 12.8686 29.9581 12.8365 29.7544 12.7614C29.5613 12.6863 29.3897 12.5684 29.2611 12.429C29.1217 12.2895 29.0359 12.118 28.9715 11.9249C28.9072 11.7319 28.875 11.5174 28.875 11.2922C28.875 11.067 28.8965 10.8633 28.9608 10.6595C29.0251 10.4665 29.1109 10.2949 29.2289 10.1555C29.3469 10.0054 29.497 9.89812 29.69 9.81233C29.8723 9.71582 30.0975 9.67292 30.3442 9.67292C30.5587 9.67292 30.7517 9.72654 30.9125 9.79088C31.0412 9.8445 31.1699 9.94102 31.2986 10.0804C31.3737 10.1662 31.5023 10.3593 31.556 10.5416C31.6847 10.992 31.6203 11.3673 31.6203 11.3995V11.378ZM30.3227 10.1877C30.0546 10.1877 29.8723 10.2842 29.7544 10.4772C29.6686 10.5952 29.6149 10.756 29.5935 10.9383H31.0091C30.9876 10.756 30.9554 10.5952 30.8696 10.4772C30.7517 10.2949 30.5694 10.1877 30.3227 10.1877ZM14.3978 10.1877C14.1297 10.1877 13.9581 10.2842 13.8294 10.4772C13.7544 10.5952 13.7007 10.756 13.6686 10.9383H15.0841C15.0841 10.756 15.0305 10.5952 14.9554 10.4772C14.8267 10.2949 14.6552 10.1877 14.3978 10.1877ZM9.37902 11.4853C9.26106 11.5603 9.19672 11.689 9.19672 11.8713C9.19672 11.9786 9.21816 12.0643 9.26106 12.1287C9.28251 12.1716 9.30396 12.193 9.37902 12.2466C9.37902 12.2466 9.56133 12.3861 9.95811 12.3646C10.2477 12.3432 10.505 12.3003 10.505 12.3003V11.3887C10.505 11.3887 10.2477 11.3458 9.95811 11.3458C9.5506 11.3458 9.37902 11.4853 9.37902 11.4853ZM9.95811 11.3458C9.5506 11.3458 9.37902 11.4853 9.37902 11.4853C9.26106 11.5603 9.19672 11.689 9.19672 11.8713C9.19672 11.9786 9.21816 12.0643 9.26106 12.1287C9.28251 12.1716 9.30396 12.193 9.37902 12.2466C9.37902 12.2466 9.56133 12.3861 9.95811 12.3646C10.2477 12.3432 10.505 12.3003 10.505 12.3003V11.3887C10.505 11.3887 10.2477 11.3458 9.95811 11.3458ZM14.9662 10.4772C14.8375 10.2949 14.6659 10.1877 14.4085 10.1877C14.1511 10.1877 13.9688 10.2842 13.8401 10.4772C13.7651 10.5952 13.7115 10.756 13.6793 10.9383H15.0948C15.0948 10.756 15.0412 10.5952 14.9662 10.4772ZM14.9662 10.4772C14.8375 10.2949 14.6659 10.1877 14.4085 10.1877C14.1511 10.1877 13.9688 10.2842 13.8401 10.4772C13.7651 10.5952 13.7115 10.756 13.6793 10.9383H15.0948C15.0948 10.756 15.0412 10.5952 14.9662 10.4772ZM9.95811 11.3458C9.5506 11.3458 9.37902 11.4853 9.37902 11.4853C9.26106 11.5603 9.19672 11.689 9.19672 11.8713C9.19672 11.9786 9.21816 12.0643 9.26106 12.1287C9.28251 12.1716 9.30396 12.193 9.37902 12.2466C9.37902 12.2466 9.56133 12.3861 9.95811 12.3646C10.2477 12.3432 10.505 12.3003 10.505 12.3003V11.3887C10.505 11.3887 10.2477 11.3458 9.95811 11.3458ZM9.95811 11.3458C9.5506 11.3458 9.37902 11.4853 9.37902 11.4853C9.26106 11.5603 9.19672 11.689 9.19672 11.8713C9.19672 11.9786 9.21816 12.0643 9.26106 12.1287C9.28251 12.1716 9.30396 12.193 9.37902 12.2466C9.37902 12.2466 9.56133 12.3861 9.95811 12.3646C10.2477 12.3432 10.505 12.3003 10.505 12.3003V11.3887C10.505 11.3887 10.2477 11.3458 9.95811 11.3458ZM14.9662 10.4772C14.8375 10.2949 14.6659 10.1877 14.4085 10.1877C14.1511 10.1877 13.9688 10.2842 13.8401 10.4772C13.7651 10.5952 13.7115 10.756 13.6793 10.9383H15.0948C15.0948 10.756 15.0412 10.5952 14.9662 10.4772ZM14.9662 10.4772C14.8375 10.2949 14.6659 10.1877 14.4085 10.1877C14.1511 10.1877 13.9688 10.2842 13.8401 10.4772C13.7651 10.5952 13.7115 10.756 13.6793 10.9383H15.0948C15.0948 10.756 15.0412 10.5952 14.9662 10.4772ZM9.95811 11.3458C9.5506 11.3458 9.37902 11.4853 9.37902 11.4853C9.26106 11.5603 9.19672 11.689 9.19672 11.8713C9.19672 11.9786 9.21816 12.0643 9.26106 12.1287C9.28251 12.1716 9.30396 12.193 9.37902 12.2466C9.37902 12.2466 9.56133 12.3861 9.95811 12.3646C10.2477 12.3432 10.505 12.3003 10.505 12.3003V11.3887C10.505 11.3887 10.2477 11.3458 9.95811 11.3458ZM14.9662 10.4772C14.8375 10.2949 14.6659 10.1877 14.4085 10.1877C14.1511 10.1877 13.9688 10.2842 13.8401 10.4772C13.7651 10.5952 13.7115 10.756 13.6793 10.9383H15.0948C15.0948 10.756 15.0412 10.5952 14.9662 10.4772ZM14.9662 10.4772C14.8375 10.2949 14.6659 10.1877 14.4085 10.1877C14.1511 10.1877 13.9688 10.2842 13.8401 10.4772C13.7651 10.5952 13.7115 10.756 13.6793 10.9383H15.0948C15.0948 10.756 15.0412 10.5952 14.9662 10.4772Z" fill="white"></path></g><defs><clipPath id="clip0_4512_46053"><rect width="65.75" height="24" fill="white" transform="translate(0.875)"></rect></clipPath></defs></svg> 