<?xml version="1.0" encoding="UTF-8"?> <svg xmlns="http://www.w3.org/2000/svg" width="58" height="41" viewBox="0 0 58 41" fill="none"><g opacity="0.8" clip-path="url(#clip0_4426_54445)"><path opacity="0.8" d="M24.1361 4.47168C26.0067 2.5033 28.6109 1.28246 31.491 1.28246C35.3197 1.28246 38.66 3.43859 40.4389 6.63942C41.9848 5.9419 43.6959 5.55385 45.4962 5.55385C52.4016 5.55385 58 11.2572 58 18.2921C58 25.3279 52.4016 31.0312 45.4962 31.0312C44.669 31.0317 43.844 30.9487 43.0332 30.7834C41.4668 33.6054 38.4816 35.5121 35.0553 35.5121C33.621 35.5121 32.2644 35.1775 31.0565 34.5825C29.4685 38.3549 25.7687 41 21.4567 41C16.9662 41 13.1392 38.1305 11.6702 34.106C11.0283 34.2437 10.3632 34.3155 9.68072 34.3155C4.33432 34.3156 0 29.8931 0 24.4368C0 20.7804 1.94738 17.5879 4.84076 15.8798C4.24509 14.4956 3.91375 12.9677 3.91375 11.3614C3.91375 5.08659 8.95778 0 15.1792 0C18.8318 0 22.078 1.75395 24.1361 4.47168Z" fill="white"></path><path d="M9.0132 22.1918C8.97659 22.2961 9.02653 22.3178 9.03817 22.3359C9.14799 22.4229 9.25957 22.4855 9.37191 22.5552C9.96776 22.8995 10.5304 23 11.1188 23C12.3171 23 13.0611 22.306 13.0611 21.1888V21.1671C13.0611 20.1341 12.2215 19.759 11.4333 19.4881L11.331 19.4519C10.7368 19.2416 10.2241 19.0605 10.2241 18.6346V18.612C10.2241 18.2477 10.5237 17.9795 10.9881 17.9795C11.5041 17.9795 12.1166 18.1662 12.5111 18.4035C12.5111 18.4035 12.6267 18.4851 12.6692 18.3628C12.6925 18.2975 12.8922 17.7122 12.913 17.6488C12.9355 17.5799 12.8956 17.5292 12.8548 17.502C12.4046 17.2039 11.782 17 11.1379 17L11.0181 17.0009C9.92127 17.0009 9.15565 17.7221 9.15565 18.756V18.7777C9.15565 19.8677 10.0003 20.2211 10.7918 20.4675L10.9191 20.5101C11.4958 20.7031 11.9927 20.8689 11.9927 21.3111V21.3329C11.9927 21.737 11.6698 22.0378 11.1488 22.0378C10.9466 22.0378 10.3016 22.0332 9.60507 21.5539C9.52098 21.5004 9.47191 21.4615 9.407 21.4189C9.37291 21.3953 9.28717 21.3545 9.24975 21.4778L9.0132 22.1918ZM26.5571 22.1918C26.5204 22.2961 26.5704 22.3178 26.582 22.3359C26.6918 22.4229 26.8034 22.4855 26.9157 22.5552C27.5116 22.8995 28.0743 23 28.6626 23C29.8609 23 30.605 22.306 30.605 21.1888V21.1671C30.605 20.1341 29.7653 19.759 28.9771 19.4881L28.8748 19.4519C28.2806 19.2416 27.7679 19.0605 27.7679 18.6346V18.612C27.7679 18.2477 28.0675 17.9795 28.5319 17.9795C29.0478 17.9795 29.6603 18.1662 30.0549 18.4035C30.0549 18.4035 30.1705 18.4851 30.2129 18.3628C30.2362 18.2975 30.436 17.7122 30.4568 17.6488C30.4793 17.5799 30.4393 17.5292 30.3985 17.502C29.9483 17.2039 29.3258 17 28.6817 17L28.5618 17.0009C27.465 17.0009 26.6993 17.7221 26.6993 18.756V18.7777C26.6993 19.8677 27.544 20.2211 28.3355 20.4675L28.4628 20.5101C29.0395 20.7031 29.5372 20.8689 29.5372 21.3111V21.3329C29.5372 21.737 29.2135 22.0378 28.6925 22.0378C28.4903 22.0378 27.8454 22.0332 27.1488 21.5539C27.0647 21.5004 27.0148 21.4633 26.9516 21.4189C26.9299 21.4035 26.8284 21.3609 26.7934 21.4778L26.5571 22.1918ZM38.5338 20.0035C38.5338 20.635 38.4256 21.1324 38.2126 21.484C38.002 21.832 37.6833 22.0014 37.2389 22.0014C36.7937 22.0014 36.4766 21.8329 36.2694 21.484C36.0596 21.1334 35.9532 20.635 35.9532 20.0035C35.9532 19.3729 36.0596 18.8764 36.2694 18.5284C36.4766 18.1841 36.7937 18.0165 37.2389 18.0165C37.6833 18.0165 38.002 18.1841 38.2134 18.5284C38.4257 18.8763 38.5338 19.3729 38.5338 20.0035ZM39.5342 18.8329C39.4359 18.4713 39.2828 18.1524 39.0789 17.8869C38.875 17.6205 38.6171 17.4067 38.3108 17.2509C38.0053 17.096 37.6442 17.0171 37.2389 17.0171C36.8328 17.0171 36.4716 17.096 36.1662 17.2509C35.8599 17.4067 35.602 17.6206 35.3972 17.8869C35.1942 18.1533 35.041 18.4722 34.942 18.8329C34.8446 19.1925 34.7955 19.5858 34.7955 20.0035C34.7955 20.4212 34.8446 20.8154 34.942 21.1741C35.041 21.5348 35.1934 21.8538 35.3981 22.1201C35.602 22.3865 35.8608 22.5994 36.1662 22.7507C36.4724 22.902 36.8328 22.979 37.239 22.979C37.6443 22.979 38.0046 22.902 38.3108 22.7507C38.6162 22.5994 38.875 22.3864 39.079 22.1201C39.2829 21.8546 39.436 21.5357 39.5342 21.1741C39.6325 20.8145 39.6815 20.4203 39.6815 20.0035C39.6815 19.5867 39.6323 19.1925 39.5342 18.8329ZM47.7486 21.8327C47.7154 21.7267 47.6213 21.7666 47.6213 21.7666C47.4757 21.8273 47.3209 21.8835 47.1561 21.9116C46.9888 21.9396 46.8049 21.9542 46.6076 21.9542C46.1234 21.9542 45.7389 21.7974 45.4634 21.4875C45.1871 21.1776 45.0323 20.6766 45.034 19.9989C45.0356 19.3818 45.1721 18.9179 45.4176 18.5646C45.6615 18.213 46.0327 18.0327 46.5278 18.0327C46.9406 18.0327 47.2552 18.0843 47.5847 18.1976C47.5847 18.1976 47.6637 18.2347 47.7012 18.1224C47.7885 17.8578 47.8534 17.6684 47.9467 17.3776C47.9733 17.2951 47.9084 17.2598 47.8851 17.2498C47.7553 17.1945 47.449 17.1049 47.2176 17.0668C47.0013 17.0306 46.7483 17.0115 46.467 17.0115C46.0466 17.0115 45.6722 17.0895 45.3518 17.2453C45.0323 17.4002 44.761 17.614 44.5463 17.8805C44.3315 18.1469 44.1684 18.4657 44.0594 18.8264C43.9513 19.186 43.8963 19.5811 43.8963 19.9989C43.8963 20.9022 44.1202 21.6324 44.5621 22.1671C45.0048 22.7035 45.6698 22.9762 46.537 22.9762C47.0496 22.9762 47.5756 22.863 47.9534 22.7008C47.9534 22.7008 48.0258 22.6627 47.9942 22.5712L47.7486 21.8327ZM49.4989 19.3985C49.5463 19.0479 49.6354 18.7561 49.7727 18.5287C49.9799 18.1835 50.2961 17.9941 50.7406 17.9941C51.185 17.9941 51.4788 18.1844 51.6893 18.5287C51.8291 18.7561 51.8899 19.0606 51.9141 19.3985H49.4989ZM52.8669 18.6274C52.782 18.2786 52.5714 17.9261 52.4333 17.7648C52.2152 17.5093 52.0022 17.3308 51.7908 17.2311C51.5145 17.1024 51.1833 17.0173 50.8205 17.0173C50.3977 17.0173 50.014 17.0944 49.7028 17.2538C49.3908 17.4133 49.1287 17.6308 48.923 17.9017C48.7174 18.1717 48.5627 18.4933 48.4644 18.8585C48.3654 19.2218 48.3155 19.6178 48.3155 20.0354C48.3155 20.4604 48.3671 20.8564 48.4695 21.2124C48.5727 21.5712 48.7374 21.8874 48.9605 22.1492C49.1826 22.413 49.469 22.6196 49.8118 22.7635C50.1522 22.9067 50.5659 22.981 51.041 22.9801C52.0189 22.9764 52.534 22.7391 52.7462 22.6113C52.7837 22.5887 52.8195 22.5488 52.7745 22.4347L52.5531 21.7596C52.5199 21.659 52.4258 21.6962 52.4258 21.6962C52.1836 21.794 51.8391 21.9698 51.036 21.968C50.5109 21.9671 50.1214 21.7986 49.8775 21.5349C49.627 21.2649 49.5047 20.868 49.483 20.3081L52.8693 20.3117C52.8693 20.3117 52.9583 20.3099 52.9676 20.2156C52.9709 20.1759 53.0841 19.4583 52.8669 18.6274ZM22.3797 19.3985C22.428 19.0479 22.5162 18.7561 22.6535 18.5287C22.8607 18.1835 23.177 17.9941 23.6214 17.9941C24.0657 17.9941 24.3596 18.1844 24.5709 18.5287C24.7098 18.7561 24.7706 19.0606 24.7948 19.3985H22.3797ZM25.7468 18.6274C25.662 18.2786 25.4522 17.9261 25.3141 17.7648C25.096 17.5093 24.883 17.3308 24.6717 17.2311C24.3953 17.1024 24.0642 17.0173 23.7013 17.0173C23.2794 17.0173 22.8949 17.0944 22.5836 17.2538C22.2716 17.4133 22.0094 17.6308 21.8039 17.9017C21.5983 18.1717 21.4435 18.4933 21.3453 18.8585C21.2471 19.2218 21.1964 19.6178 21.1964 20.0354C21.1964 20.4604 21.248 20.8564 21.3504 21.2124C21.4536 21.5712 21.6184 21.8874 21.8413 22.1492C22.0636 22.413 22.3498 22.6196 22.6927 22.7635C23.0331 22.9067 23.4467 22.981 23.9219 22.9801C24.8997 22.9764 25.4149 22.7391 25.6271 22.6113C25.6646 22.5887 25.7003 22.5488 25.6554 22.4347L25.4349 21.7596C25.4007 21.659 25.3067 21.6962 25.3067 21.6962C25.0646 21.794 24.7208 21.9698 23.9161 21.968C23.3918 21.9671 23.0023 21.7986 22.7585 21.5349C22.508 21.2649 22.3857 20.868 22.364 20.3081L25.7503 20.3117C25.7503 20.3117 25.8393 20.3099 25.8484 20.2156C25.8517 20.1759 25.9648 19.4583 25.7468 18.6274ZM15.0603 21.8126C14.928 21.6974 14.9097 21.6685 14.8648 21.5942C14.7981 21.4809 14.7641 21.3196 14.7641 21.1149C14.7641 20.7905 14.8622 20.5576 15.0662 20.4009C15.0637 20.4018 15.3574 20.1245 16.0482 20.1345C16.5333 20.1417 16.9669 20.2197 16.9669 20.2197V21.8959H16.9677C16.9677 21.8959 16.5375 21.9964 16.0531 22.0281C15.3641 22.0735 15.0578 21.8117 15.0603 21.8126ZM16.4076 19.2221C16.2703 19.2112 16.0922 19.2048 15.8791 19.2048C15.5887 19.2048 15.3083 19.2447 15.0453 19.3217C14.7807 19.3987 14.5426 19.5193 14.3379 19.6787C14.1335 19.8375 13.9655 20.0456 13.8469 20.2866C13.7271 20.5295 13.6663 20.8158 13.6663 21.1366C13.6663 21.4628 13.7179 21.7463 13.8211 21.9784C13.9243 22.2112 14.0733 22.4051 14.263 22.5546C14.4511 22.7041 14.6833 22.8137 14.9529 22.8799C15.2184 22.946 15.5196 22.9795 15.8492 22.9795C16.1962 22.9795 16.5424 22.9487 16.8778 22.8862C17.2099 22.8245 17.6176 22.7348 17.7308 22.7068C17.8101 22.686 17.8892 22.6639 17.968 22.6406C18.0521 22.618 18.0454 22.5201 18.0454 22.5201L18.0437 19.1487C18.0437 18.4093 17.8623 17.8611 17.5053 17.5213C17.1499 17.1825 16.6265 17.0111 15.9499 17.0111C15.696 17.0111 15.2874 17.0493 15.0428 17.1027C15.0428 17.1027 14.3029 17.2586 13.9983 17.5177C13.9983 17.5177 13.9318 17.563 13.9684 17.6645L14.2081 18.3658C14.238 18.4565 14.3188 18.4256 14.3188 18.4256C14.3188 18.4256 14.3446 18.4147 14.3746 18.3957C15.0262 18.0097 15.8501 18.0215 15.8501 18.0215C16.2163 18.0215 16.4976 18.1012 16.6873 18.2598C16.872 18.4138 16.9661 18.6466 16.9661 19.1377V19.2936C16.6748 19.2483 16.4076 19.2221 16.4076 19.2221ZM43.7194 17.3224C43.7452 17.239 43.6911 17.1992 43.6686 17.1901C43.6113 17.1657 43.3233 17.0995 43.1011 17.0841C42.6759 17.056 42.4395 17.134 42.2281 17.2372C42.0184 17.3405 41.7854 17.5072 41.6555 17.6966V17.2481C41.6555 17.1856 41.6147 17.1357 41.5581 17.1357H40.6901C40.6336 17.1357 40.5928 17.1855 40.5928 17.2481V22.747C40.5928 22.8087 40.6394 22.8594 40.696 22.8594H41.5856C41.6129 22.8592 41.6389 22.8473 41.6581 22.8263C41.6773 22.8052 41.688 22.7767 41.688 22.747V19.9999C41.688 19.6311 41.7255 19.2633 41.8004 19.0322C41.8736 18.8038 41.9735 18.6208 42.0966 18.4894C42.2206 18.359 42.3612 18.2675 42.5152 18.2158C42.6725 18.1632 42.8464 18.1461 42.9696 18.1461C43.1469 18.1461 43.3416 18.1958 43.3416 18.1958C43.4065 18.204 43.4431 18.1605 43.4647 18.0962C43.523 17.9277 43.6878 17.423 43.7194 17.3224Z" fill="url(#paint0_linear_4426_54445)"></path><path d="M34.9326 15.1152C34.8263 15.0818 34.7299 15.0593 34.6039 15.0351C34.4763 15.0117 34.3243 15 34.1519 15C33.5502 15 33.076 15.1737 32.7433 15.5159C32.4122 15.8566 32.1874 16.375 32.0746 17.0571L32.0336 17.2867H31.2784C31.2784 17.2867 31.1868 17.2834 31.1671 17.3853L31.0437 18.0924C31.0347 18.1592 31.0634 18.2017 31.1516 18.2017H31.8866L31.141 22.4529C31.0829 22.7952 31.0159 23.0766 30.9415 23.2902C30.8687 23.5007 30.7977 23.6584 30.7094 23.7736C30.6243 23.8839 30.5442 23.9657 30.4052 24.0132C30.2908 24.0525 30.1583 24.0708 30.0136 24.0708C29.9335 24.0708 29.8265 24.0574 29.7471 24.0407C29.6687 24.0248 29.627 24.0074 29.5673 23.9814C29.5673 23.9814 29.4815 23.9481 29.4471 24.0358C29.4201 24.1084 29.2239 24.6585 29.2002 24.7262C29.1773 24.7938 29.21 24.8464 29.2517 24.8623C29.3498 24.8973 29.4225 24.9207 29.5558 24.9532C29.7406 24.9975 29.8967 25 30.043 25C30.3487 25 30.6283 24.9558 30.8597 24.8706C31.0919 24.7846 31.2946 24.6352 31.4744 24.4332C31.6682 24.2144 31.79 23.9857 31.9061 23.6726C32.0214 23.3637 32.1203 22.9796 32.1987 22.5322L32.9484 18.2017H34.0438C34.0438 18.2017 34.1362 18.2051 34.1551 18.1024L34.2793 17.3961C34.2875 17.3285 34.2597 17.2868 34.1705 17.2868H33.107C33.1127 17.2626 33.1609 16.8801 33.2827 16.5204C33.3351 16.3676 33.4331 16.2432 33.5157 16.158C33.5975 16.0745 33.6915 16.0153 33.7946 15.981C33.9 15.9459 34.0202 15.9293 34.1518 15.9293C34.2516 15.9293 34.3504 15.941 34.4248 15.9568C34.5278 15.9794 34.5679 15.9911 34.5949 15.9994C34.7037 16.0328 34.7183 16.0003 34.7396 15.9469L34.9939 15.2339C35.02 15.1569 34.9554 15.1244 34.9326 15.1152ZM20.0726 22.4621C20.0726 22.5189 20.0325 22.5648 19.9769 22.5648H19.0948C19.0392 22.5648 19 22.5189 19 22.4621V15.2121C19 15.1553 19.0392 15.1094 19.0948 15.1094H19.9769C20.0325 15.1094 20.0726 15.1553 20.0726 15.2121V22.4621Z" fill="url(#paint1_linear_4426_54445)"></path></g><defs><linearGradient id="paint0_linear_4426_54445" x1="9" y1="23" x2="16.7184" y2="2.99891" gradientUnits="userSpaceOnUse"><stop stop-color="#00514A"></stop><stop offset="0.26" stop-color="#003F3A"></stop><stop offset="0.72" stop-color="#002421"></stop><stop offset="1" stop-color="#001B19"></stop></linearGradient><linearGradient id="paint1_linear_4426_54445" x1="19" y1="25" x2="35.4087" y2="15.7228" gradientUnits="userSpaceOnUse"><stop stop-color="#00514A"></stop><stop offset="0.26" stop-color="#003F3A"></stop><stop offset="0.72" stop-color="#002421"></stop><stop offset="1" stop-color="#001B19"></stop></linearGradient><clipPath id="clip0_4426_54445"><rect width="58" height="41" fill="white"></rect></clipPath></defs></svg> 