<?xml version="1.0" encoding="UTF-8"?> <svg xmlns="http://www.w3.org/2000/svg" width="140" height="40" viewBox="0 0 140 40" fill="none"><g id="Frame 1973341533"><g id="New Symbol 1"><g id="Group"><g id="Group_2"><g id="Group_3"><path id="Vector" d="M33.2025 9L39 24H36.5349L35.1913 20.5221L35.1705 20.4682H28.7787L27.479 24H25L30.5477 9H33.2025ZM34.2709 18.1442L31.9884 12.2415L31.8936 11.9981L29.6829 18.0084L29.6343 18.1442H34.2709Z" fill="#000033"></path><path id="Vector_2" d="M60 23.7178V13H57.7297V20.6163L57.6982 20.6953C57.6667 20.7449 57.0248 21.9233 55.6104 21.9233C53.9752 21.9233 53.2455 20.7314 53.2455 19.553V13H51V20.3657C51 22.3725 52.6239 24 54.6261 24C56.2027 24 57.2432 23.2144 57.7297 22.465V23.7178H60Z" fill="#000033"></path><path id="Vector_3" d="M44.7471 12C46.9076 12 48.2189 12.9469 49 14.0362L47.4143 15.5507C46.795 14.6522 45.9435 14.2005 44.8644 14.2005C42.8424 14.2005 41.5076 15.7633 41.5076 17.9879C41.5076 20.2126 42.84 21.7971 44.8644 21.7971C45.9435 21.7971 46.795 21.3237 47.4143 20.4493L49 21.9638C48.2189 23.0531 46.9076 24 44.7471 24C41.3692 24 39 21.4686 39 17.9879C39 14.5072 41.3669 12 44.7471 12Z" fill="#000033"></path><path id="Vector_4" d="M104 13H102V24H104V13Z" fill="#000033"></path><path id="Vector_5" d="M101 9.69489V9.30511C101 8.55071 101.465 8 102.513 8C103.56 8 104 8.5482 104 9.30511V9.69489C104 10.4493 103.558 11 102.513 11C101.468 11 101 10.4518 101 9.69489Z" fill="#000033"></path><path id="Vector_6" d="M96.7622 10H94.4872V12.8047H93V14.8587H94.4477L94.4872 21.9248C94.4872 23.0698 95.4005 24 96.5298 24H98.6375V21.7879H96.7645V14.8587H99V12.8047H96.7645V10H96.7622Z" fill="#000033"></path><path id="Vector_7" d="M88.7296 12.3044V13.6681C88.1237 12.8364 86.8524 12 85.2611 12C82.2133 12 80 14.5069 80 17.9581C80 20.9611 81.7994 24 85.2359 24C87.6595 24 88.7296 22.2936 88.7296 22.2936V23.6381H91V12.302H88.7296V12.3044ZM85.5789 21.8981C83.6926 21.8981 82.323 20.2636 82.323 18.0132C82.323 15.7627 83.6926 14.0995 85.5789 14.0995C87.2251 14.0995 88.8873 15.317 88.8873 18.0395C88.8873 19.8969 87.8516 21.8957 85.5789 21.8957V21.8981Z" fill="#000033"></path><path id="Vector_8" d="M125.73 12.3044V13.6681C125.124 12.8364 123.852 12 122.261 12C119.213 12 117 14.5069 117 17.9581C117 20.9611 118.799 24 122.236 24C124.66 24 125.73 22.2936 125.73 22.2936V23.6381H128V12.302H125.73V12.3044ZM122.579 21.8981C120.693 21.8981 119.323 20.2636 119.323 18.0132C119.323 15.7627 120.693 14.0995 122.579 14.0995C124.225 14.0995 125.887 15.317 125.887 18.0395C125.887 19.8969 124.852 21.8957 122.579 21.8957V21.8981Z" fill="#000033"></path><path id="Vector_9" d="M111.747 12C113.908 12 115.219 12.9469 116 14.0362L114.414 15.5507C113.795 14.6522 112.943 14.2005 111.864 14.2005C109.842 14.2005 108.508 15.7633 108.508 17.9879C108.508 20.2126 109.84 21.7971 111.864 21.7971C112.943 21.7971 113.795 21.3237 114.414 20.4493L116 21.9638C115.219 23.0531 113.908 24 111.747 24C108.369 24 106 21.4686 106 17.9879C106 14.5072 108.367 12 111.747 12Z" fill="#000033"></path><path id="Vector_10" d="M74.3179 12C72.6415 12 71.3196 13.0562 70.7662 14.0402C70.167 12.8328 68.9114 12 67.4568 12C65.8559 12 64.7993 12.7854 64.3053 13.5347V12.2821H62V22.9977H64.3053V15.3831L64.3373 15.3041C64.3694 15.2544 65.0212 14.0763 66.4574 14.0763C68.1178 14.0763 68.8588 15.268 68.8588 16.446V22.9977H71.1389V15.6336C71.1389 15.5862 71.1389 15.5388 71.1344 15.4936L71.1664 15.3853L71.1984 15.3063C71.2304 15.2567 71.8845 14.0786 73.3185 14.0786C74.9788 14.0786 75.7198 15.2702 75.7198 16.4483V23H78V15.6358C78 13.6295 76.3511 12.0023 74.3179 12.0023V12Z" fill="#000033"></path></g><g id="Group_4"><path id="Vector_11" d="M9.50898 22.5871C10.6141 23.4728 12.0151 24 13.5409 24H10.9978C8.51256 24 6.2631 22.9918 4.63554 21.3638C3.00798 19.7359 2 17.4859 2 15C2 10.0306 6.02729 6 10.9978 6C12.0497 6 13.06 6.18037 14.001 6.51336C13.4207 6.34224 12.8057 6.24974 12.17 6.24974C9.49973 6.24974 7.20866 7.87076 6.22611 10.1832C5.89551 10.9579 5.71519 11.8112 5.71519 12.7061C5.71519 14.2346 6.24692 15.6405 7.13468 16.7482C7.10231 17.0095 7.08613 17.2731 7.08613 17.5437C7.08613 19.3266 7.80975 20.9406 8.97725 22.1084C9.14602 22.2772 9.32403 22.4368 9.51129 22.5848L9.50898 22.5871Z" fill="url(#paint0_linear_5661_19020)"></path><path id="Vector_12" d="M20 17.5V24H13.5012C11.9649 24 10.5543 23.4669 9.44172 22.5775C9.25318 22.4262 9.07395 22.2656 8.90403 22.098C7.72856 20.9223 7 19.2973 7 17.5023C7 17.2323 7.01629 16.9645 7.04888 16.7015C7.19785 16.8854 7.35613 17.0623 7.52372 17.2299C8.69919 18.4056 10.3239 19.1343 12.1185 19.1343H15.1748V16.0775C15.1748 14.0451 14.2437 12.2316 12.7819 11.0396C13.017 11.014 13.2568 11 13.4988 11C15.5774 11 17.4279 11.9755 18.6174 13.4957C19.4833 14.5992 19.9977 15.9914 19.9977 17.5023L20 17.5Z" fill="url(#paint1_linear_5661_19020)"></path><path id="Vector_13" d="M19.9977 14.5225V17C19.9977 15.5383 19.4947 14.1914 18.6539 13.1239C17.496 11.6554 15.6944 10.7095 13.6708 10.7095C13.4351 10.7095 13.2017 10.723 12.9728 10.7477C10.0631 11.0653 7.74717 13.3446 7.39139 16.2252C6.52121 15.1486 6 13.7793 6 12.2883C6 11.4167 6.17902 10.5856 6.50081 9.83108C7.4639 7.57883 9.70961 6 12.327 6C12.9501 6 13.5529 6.09009 14.1217 6.25676C14.8605 6.51802 15.5562 6.87162 16.1907 7.30856C18.4908 8.88964 20 11.5315 20 14.5225H19.9977Z" fill="url(#paint2_linear_5661_19020)"></path></g></g><g id="Group_5"><path id="Vector_14" d="M72.6151 36V30.7919H71V30H75V30.7919H73.3933V36H72.6151Z" fill="#94949B"></path><path id="Vector_15" d="M83.0306 32.0021C84.2462 32.0021 85 32.8929 85 34.0607V34.2334H81.7991C81.858 34.8812 82.3605 35.4161 83.1732 35.4161C83.601 35.4161 84.0696 35.2584 84.3707 34.9664L84.7216 35.431C84.3186 35.8018 83.7504 36 83.0962 36C81.8896 36 81 35.1945 81 33.9968C81 32.8929 81.8466 32 83.0283 32L83.0306 32.0021ZM81.79 33.7219H84.262C84.2462 33.2168 83.884 32.586 83.0306 32.586C82.1771 32.586 81.833 33.2019 81.79 33.7219Z" fill="#94949B"></path><path id="Vector_16" d="M88 32.9977C88 31.216 89.2528 30 90.8171 30C91.8963 30 92.5728 30.5469 93 31.2254L92.2991 31.6174C92.0098 31.1315 91.4668 30.7746 90.8171 30.7746C89.7045 30.7746 88.8478 31.6948 88.8478 33C88.8478 34.3052 89.7045 35.2254 90.8171 35.2254C91.4691 35.2254 92.012 34.8685 92.2991 34.3826L93 34.7746C92.5639 35.4531 91.8963 36 90.8171 36C89.2506 36 88 34.784 88 33.0023V32.9977Z" fill="#94949B"></path><path id="Vector_17" d="M94 36V30H95V36H94Z" fill="#94949B"></path><path id="Vector_18" d="M96 33.9968C96 32.8993 96.7708 32 98 32C99.2292 32 100 32.8993 100 33.9968C100 35.0943 99.2381 36 98 36C96.7619 36 96 35.1007 96 33.9968ZM99.2292 33.9968C99.2292 33.2786 98.7951 32.6308 98 32.6308C97.2049 32.6308 96.7708 33.2786 96.7708 33.9968C96.7708 34.715 97.2137 35.3692 98 35.3692C98.7863 35.3692 99.2292 34.7214 99.2292 33.9968Z" fill="#94949B"></path><path id="Vector_19" d="M104.135 35.9018V35.3693C104.135 35.3693 103.652 36 102.605 36C101.719 36 101 35.3955 101 34.6514V32H101.865V34.5139C101.865 35.1598 102.403 35.3541 103 35.3541C103.538 35.3541 103.875 35.0966 104.135 34.8041V32H105V35.9018H104.135Z" fill="#94949B"></path><path id="Vector_20" d="M112 36V30H116V31.098H113.204V32.4024H115.941V33.5004H113.204V34.8947H116V36H112Z" fill="#94949B"></path><path id="Vector_21" d="M121.493 36L120.28 33.8502H119.316V36H118V30H120.89C122.179 30 122.965 30.8186 122.965 31.9336C122.965 33.0486 122.279 33.5611 121.611 33.7142L123 35.9976H121.491L121.493 36ZM120.698 31.1004H119.316V32.7547H120.698C121.226 32.7547 121.624 32.4316 121.624 31.9263C121.624 31.4211 121.226 31.098 120.698 31.098V31.1004Z" fill="#94949B"></path><path id="Vector_22" d="M123 36V30H125.911C127.264 30 128 30.8818 128 31.9336C128 32.9854 127.254 33.8502 125.911 33.8502H124.326V36H123ZM125.734 31.1004H124.326V32.7547H125.734C126.256 32.7547 126.649 32.4316 126.649 31.9263C126.649 31.4211 126.259 31.098 125.734 31.098V31.1004Z" fill="#94949B"></path><path id="Vector_23" d="M76.8649 30V32.2494C76.8649 32.2494 77.3481 31.5474 78.3948 31.5474C79.2805 31.5474 80 32.2202 80 33.0486V36H79.1351V33.2016C79.1351 32.4826 78.5974 32.2664 78 32.2664C77.4623 32.2664 77.1247 32.553 76.8649 32.8785V36H76V30H76.8649Z" fill="#94949B"></path><path id="Vector_24" d="M108.225 30.0048V32.2473C107.889 31.7869 107.398 31.5221 106.863 31.5221C105.775 31.5221 105 32.3976 105 33.7646C105 35.1316 105.775 36 106.863 36C107.414 36 107.915 35.7089 108.225 35.2843V35.8926H109V30H108.225V30.0048ZM107.051 35.2414C106.283 35.2414 105.845 34.5781 105.845 33.7575C105.845 32.9368 106.327 32.2736 107.051 32.2736C107.775 32.2736 108.257 32.9368 108.257 33.7575C108.257 34.5781 107.792 35.2414 107.051 35.2414Z" fill="#94949B"></path></g></g></g></g><defs><linearGradient id="paint0_linear_5661_19020" x1="11.8255" y1="6.89029" x2="6.10342" y2="23.6222" gradientUnits="userSpaceOnUse"><stop stop-color="#00649C"></stop><stop offset="0.11" stop-color="#0875AC"></stop><stop offset="0.37" stop-color="#1A9ACF"></stop><stop offset="0.62" stop-color="#28B5E9"></stop><stop offset="0.83" stop-color="#30C6F9"></stop><stop offset="1" stop-color="#33CCFF"></stop></linearGradient><linearGradient id="paint1_linear_5661_19020" x1="7.45622" y1="17.1787" x2="20.6355" y2="17.8769" gradientUnits="userSpaceOnUse"><stop stop-color="#00649C"></stop><stop offset="0.11" stop-color="#0875AC"></stop><stop offset="0.37" stop-color="#1A9ACF"></stop><stop offset="0.62" stop-color="#28B5E9"></stop><stop offset="0.83" stop-color="#30C6F9"></stop><stop offset="1" stop-color="#33CCFF"></stop></linearGradient><linearGradient id="paint2_linear_5661_19020" x1="19.6148" y1="14.1779" x2="6.6324" y2="9.82386" gradientUnits="userSpaceOnUse"><stop stop-color="#00649C"></stop><stop offset="0.11" stop-color="#0875AC"></stop><stop offset="0.37" stop-color="#1A9ACF"></stop><stop offset="0.62" stop-color="#28B5E9"></stop><stop offset="0.83" stop-color="#30C6F9"></stop><stop offset="1" stop-color="#33CCFF"></stop></linearGradient></defs></svg> 