<?xml version="1.0" encoding="UTF-8"?> <svg xmlns="http://www.w3.org/2000/svg" width="140" height="40" viewBox="0 0 140 40" fill="none"><g id="Frame 1973341542"><g id="New Symbol 1"><g id="Group"><g id="Group_2"><g id="Group_3"><path id="Vector" d="M34.2025 9L40 24H37.5349L36.1913 20.5221L36.1705 20.4682H29.7787L28.479 24H26L31.5477 9H34.2025ZM35.2709 18.1442L32.9884 12.2415L32.8936 11.9981L30.6829 18.0084L30.6343 18.1442H35.2709Z" fill="white"></path><path id="Vector_2" d="M61 23.7178V13H58.7297V20.6163L58.6982 20.6953C58.6667 20.7449 58.0248 21.9233 56.6104 21.9233C54.9752 21.9233 54.2455 20.7314 54.2455 19.553V13H52V20.3657C52 22.3725 53.6239 24 55.6261 24C57.2027 24 58.2432 23.2144 58.7297 22.465V23.7178H61Z" fill="white"></path><path id="Vector_3" d="M45.7471 12C47.9076 12 49.2189 12.9469 50 14.0362L48.4143 15.5507C47.795 14.6522 46.9435 14.2005 45.8644 14.2005C43.8424 14.2005 42.5076 15.7633 42.5076 17.9879C42.5076 20.2126 43.84 21.7971 45.8644 21.7971C46.9435 21.7971 47.795 21.3237 48.4143 20.4493L50 21.9638C49.2189 23.0531 47.9076 24 45.7471 24C42.3692 24 40 21.4686 40 17.9879C40 14.5072 42.3669 12 45.7471 12Z" fill="white"></path><path id="Vector_4" d="M105 13H103V24H105V13Z" fill="white"></path><path id="Vector_5" d="M102 9.69489V9.30511C102 8.55071 102.465 8 103.513 8C104.56 8 105 8.5482 105 9.30511V9.69489C105 10.4493 104.558 11 103.513 11C102.468 11 102 10.4518 102 9.69489Z" fill="white"></path><path id="Vector_6" d="M97.7622 10H95.4872V12.8047H94V14.8587H95.4477L95.4872 21.9248C95.4872 23.0698 96.4005 24 97.5298 24H99.6375V21.7879H97.7645V14.8587H100V12.8047H97.7645V10H97.7622Z" fill="white"></path><path id="Vector_7" d="M89.7296 12.3044V13.6681C89.1237 12.8364 87.8524 12 86.2611 12C83.2133 12 81 14.5069 81 17.9581C81 20.9611 82.7994 24 86.2359 24C88.6595 24 89.7296 22.2936 89.7296 22.2936V23.6381H92V12.302H89.7296V12.3044ZM86.5789 21.8981C84.6926 21.8981 83.323 20.2636 83.323 18.0132C83.323 15.7627 84.6926 14.0995 86.5789 14.0995C88.2251 14.0995 89.8873 15.317 89.8873 18.0395C89.8873 19.8969 88.8516 21.8957 86.5789 21.8957V21.8981Z" fill="white"></path><path id="Vector_8" d="M126.73 12.3044V13.6681C126.124 12.8364 124.852 12 123.261 12C120.213 12 118 14.5069 118 17.9581C118 20.9611 119.799 24 123.236 24C125.66 24 126.73 22.2936 126.73 22.2936V23.6381H129V12.302H126.73V12.3044ZM123.579 21.8981C121.693 21.8981 120.323 20.2636 120.323 18.0132C120.323 15.7627 121.693 14.0995 123.579 14.0995C125.225 14.0995 126.887 15.317 126.887 18.0395C126.887 19.8969 125.852 21.8957 123.579 21.8957V21.8981Z" fill="white"></path><path id="Vector_9" d="M112.747 12C114.908 12 116.219 12.9469 117 14.0362L115.414 15.5507C114.795 14.6522 113.943 14.2005 112.864 14.2005C110.842 14.2005 109.508 15.7633 109.508 17.9879C109.508 20.2126 110.84 21.7971 112.864 21.7971C113.943 21.7971 114.795 21.3237 115.414 20.4493L117 21.9638C116.219 23.0531 114.908 24 112.747 24C109.369 24 107 21.4686 107 17.9879C107 14.5072 109.367 12 112.747 12Z" fill="white"></path><path id="Vector_10" d="M75.3179 12C73.6415 12 72.3196 13.0562 71.7662 14.0402C71.167 12.8328 69.9114 12 68.4568 12C66.8559 12 65.7993 12.7854 65.3053 13.5347V12.2821H63V22.9977H65.3053V15.3831L65.3373 15.3041C65.3694 15.2544 66.0212 14.0763 67.4574 14.0763C69.1178 14.0763 69.8588 15.268 69.8588 16.446V22.9977H72.1389V15.6336C72.1389 15.5862 72.1389 15.5388 72.1344 15.4936L72.1664 15.3853L72.1984 15.3063C72.2304 15.2567 72.8845 14.0786 74.3185 14.0786C75.9788 14.0786 76.7198 15.2702 76.7198 16.4483V23H79V15.6358C79 13.6295 77.3511 12.0023 75.3179 12.0023V12Z" fill="white"></path></g><path id="Vector_11" d="M20 24.5H20.5V24V15C20.5 9.7535 16.2465 5.5 11 5.5C8.37811 5.5 6.00068 6.56387 4.28228 8.28228C2.56392 10.0006 1.5 12.3757 1.5 15C1.5 20.2465 5.7535 24.5 11 24.5H20ZM18.133 12.1284C14.7348 9.07442 9.07439 10.12 7.06854 14.3019C5.91967 10.4961 9.48583 6.5663 13.5918 7.75987C15.6562 8.47882 17.3177 10.131 18.133 12.1284ZM13.4181 22.6882C11.0801 22.7383 8.93772 21.0047 8.34167 18.7919C9.46218 19.5018 10.762 19.8815 12.1201 19.8815H15.4229H15.9229V19.3815V16.0787C15.9229 14.7477 15.5546 13.4703 14.876 12.3695C16.7653 12.9139 18.3236 14.5857 18.6201 16.5446L18.6248 16.5751L18.6331 16.6049C18.6327 16.6036 18.6325 16.6029 18.6325 16.6029C18.6323 16.6029 18.6369 16.6246 18.643 16.6807C18.6494 16.7394 18.6555 16.8174 18.6611 16.9147C18.6724 17.109 18.6809 17.3636 18.6869 17.6622C18.6991 18.2586 18.7015 19.0133 18.6999 19.7761C18.6987 20.3589 18.6951 20.9506 18.6919 21.4778C18.689 21.951 18.6864 22.3722 18.6862 22.6881H13.4288V22.688L13.4181 22.6882ZM8.14845 22.1327C2.62128 19.9816 1.73365 12.576 6.1327 9.04614C4.67498 11.406 4.64869 14.5694 6.37445 16.9359C6.22954 18.8369 6.90357 20.7265 8.14845 22.1327ZM12.1201 18.0696L12.1187 18.0696C10.6587 18.0736 9.25635 17.468 8.27452 16.3943C8.69195 14.281 10.3435 12.6501 12.4617 12.2591C13.5094 13.2512 14.111 14.6257 14.111 16.0764V16.0787V18.0696L12.1201 18.0696Z" fill="white" stroke="white"></path></g><g id="Group_4"><path id="Vector_12" d="M73.6151 36V30.7919H72V30H76V30.7919H74.3933V36H73.6151Z" fill="white"></path><path id="Vector_13" d="M84.0306 32.0021C85.2462 32.0021 86 32.8929 86 34.0607V34.2334H82.7991C82.858 34.8812 83.3605 35.4161 84.1732 35.4161C84.601 35.4161 85.0696 35.2584 85.3707 34.9664L85.7216 35.431C85.3186 35.8018 84.7504 36 84.0962 36C82.8896 36 82 35.1945 82 33.9968C82 32.8929 82.8466 32 84.0283 32L84.0306 32.0021ZM82.79 33.7219H85.262C85.2462 33.2168 84.884 32.586 84.0306 32.586C83.1771 32.586 82.833 33.2019 82.79 33.7219Z" fill="white"></path><path id="Vector_14" d="M89 32.9977C89 31.216 90.2528 30 91.8171 30C92.8963 30 93.5728 30.5469 94 31.2254L93.2991 31.6174C93.0098 31.1315 92.4668 30.7746 91.8171 30.7746C90.7045 30.7746 89.8478 31.6948 89.8478 33C89.8478 34.3052 90.7045 35.2254 91.8171 35.2254C92.4691 35.2254 93.012 34.8685 93.2991 34.3826L94 34.7746C93.5639 35.4531 92.8963 36 91.8171 36C90.2506 36 89 34.784 89 33.0023V32.9977Z" fill="white"></path><path id="Vector_15" d="M95 36V30H96V36H95Z" fill="white"></path><path id="Vector_16" d="M97 33.9968C97 32.8993 97.7708 32 99 32C100.229 32 101 32.8993 101 33.9968C101 35.0943 100.238 36 99 36C97.7619 36 97 35.1007 97 33.9968ZM100.229 33.9968C100.229 33.2786 99.7951 32.6308 99 32.6308C98.2049 32.6308 97.7708 33.2786 97.7708 33.9968C97.7708 34.715 98.2137 35.3692 99 35.3692C99.7863 35.3692 100.229 34.7214 100.229 33.9968Z" fill="white"></path><path id="Vector_17" d="M105.135 35.9018V35.3693C105.135 35.3693 104.652 36 103.605 36C102.719 36 102 35.3955 102 34.6514V32H102.865V34.5139C102.865 35.1598 103.403 35.3541 104 35.3541C104.538 35.3541 104.875 35.0966 105.135 34.8041V32H106V35.9018H105.135Z" fill="white"></path><path id="Vector_18" d="M113 36V30H117V31.098H114.204V32.4024H116.941V33.5004H114.204V34.8947H117V36H113Z" fill="white"></path><path id="Vector_19" d="M122.493 36L121.28 33.8502H120.316V36H119V30H121.89C123.179 30 123.965 30.8186 123.965 31.9336C123.965 33.0486 123.279 33.5611 122.611 33.7142L124 35.9976H122.491L122.493 36ZM121.698 31.1004H120.316V32.7547H121.698C122.226 32.7547 122.624 32.4316 122.624 31.9263C122.624 31.4211 122.226 31.098 121.698 31.098V31.1004Z" fill="white"></path><path id="Vector_20" d="M124 36V30H126.911C128.264 30 129 30.8818 129 31.9336C129 32.9854 128.254 33.8502 126.911 33.8502H125.326V36H124ZM126.734 31.1004H125.326V32.7547H126.734C127.256 32.7547 127.649 32.4316 127.649 31.9263C127.649 31.4211 127.259 31.098 126.734 31.098V31.1004Z" fill="white"></path><path id="Vector_21" d="M77.8649 30V32.2494C77.8649 32.2494 78.3481 31.5474 79.3948 31.5474C80.2805 31.5474 81 32.2202 81 33.0486V36H80.1351V33.2016C80.1351 32.4826 79.5974 32.2664 79 32.2664C78.4623 32.2664 78.1247 32.553 77.8649 32.8785V36H77V30H77.8649Z" fill="white"></path><path id="Vector_22" d="M109.225 30.0048V32.2473C108.889 31.7869 108.398 31.5221 107.863 31.5221C106.775 31.5221 106 32.3976 106 33.7646C106 35.1316 106.775 36 107.863 36C108.414 36 108.915 35.7089 109.225 35.2843V35.8926H110V30H109.225V30.0048ZM108.051 35.2414C107.283 35.2414 106.845 34.5781 106.845 33.7575C106.845 32.9368 107.327 32.2736 108.051 32.2736C108.775 32.2736 109.257 32.9368 109.257 33.7575C109.257 34.5781 108.792 35.2414 108.051 35.2414Z" fill="white"></path></g></g></g></g></svg> 