<?xml version="1.0" encoding="UTF-8"?> <svg xmlns="http://www.w3.org/2000/svg" width="380" height="332" viewBox="0 0 380 332" fill="none"><g filter="url(#filter0_dd_4637_42715)"><circle cx="199" cy="172" r="81" fill="white"></circle></g><path d="M186.921 153.998C187.274 153.771 187.632 153.557 188 153.359L181.801 141L180 142.097L186.919 154L186.921 153.998Z" fill="#C6C717"></path><path d="M181.993 158C182.32 157.614 182.655 157.252 183 156.897L173.731 146C173.145 146.61 172.554 147.218 172 147.866L181.995 158H181.993Z" fill="#E9C507"></path><path d="M179.155 161.998C179.415 161.52 179.701 161.055 180 160.607L168.436 153C167.892 153.746 167.457 154.564 167 155.364L179.153 162L179.155 161.998Z" fill="#F4C402"></path><path d="M164 163.168L177.442 167L177.497 166.791C177.644 166.227 177.811 165.671 178 165.131L164.94 160C164.615 161.052 164.265 162.098 164 163.168Z" fill="#F7C401"></path><path d="M163 171.741L176.866 172C176.876 171.268 176.923 170.537 177 169.8L163.234 168C163.173 168.622 163.071 169.24 163.057 169.869L163 171.743V171.741Z" fill="#F9C400"></path><path d="M163.688 179L178 176.035C177.826 175.366 177.686 174.686 177.6 174L163 175.518C163.211 176.683 163.383 177.856 163.69 178.998L163.688 179Z" fill="#FAC400"></path><path d="M178.436 180.046C178.296 179.702 178.166 179.353 178.046 179L165 184.075L165.735 186.082C166.024 186.728 166.323 187.363 166.624 188L179 181.316C178.799 180.9 178.609 180.476 178.434 180.048" fill="#FAC400"></path><path d="M171.597 195L182 185.2C181.444 184.502 180.929 183.763 180.462 183L169 191.246L169.59 192.227L170.248 193.157C170.693 193.776 171.144 194.392 171.597 195Z" fill="#FAC300"></path><path d="M177.779 201L186 188.85C185.219 188.285 184.477 187.667 183.791 187L174 197.865C175.225 198.955 176.428 200.086 177.779 201Z" fill="#F8B001"></path><path d="M184.747 205L190 191.327C189.026 190.955 188.089 190.512 187.202 190L180 202.727C181.511 203.634 183.131 204.311 184.747 205Z" fill="#F49703"></path><path d="M190.613 205.551C191.485 205.776 192.376 205.879 193.262 206L195 191.658C194.041 191.535 193.079 191.334 192.117 191.061L191.902 191L188 204.899C188.859 205.17 189.736 205.344 190.613 205.551Z" fill="#F17E05"></path><path d="M196 205.948L197.501 205.988C198.002 206.004 198.499 206.009 198.999 205.97C200.002 205.911 201.005 205.861 202 205.765L200.227 192C199.072 192.132 197.894 192.174 196.707 192.12L196.002 205.95L196 205.948Z" fill="#EE6706"></path><path d="M224.948 193.998C225.511 193.2 226.038 192.37 226.571 191.544C226.845 191.139 227.082 190.712 227.311 190.274L228 188.969L215.8 182C215.275 183.046 214.671 184.031 214 184.946L224.948 194V193.998Z" fill="#007F78"></path><path d="M229.162 186C229.527 185.148 229.908 184.298 230.178 183.405C230.462 182.523 230.779 181.643 231 180.744L217.073 177L217.012 177.224C216.738 178.224 216.401 179.185 216 180.103L229.164 186H229.162Z" fill="#008A77"></path><path d="M218 174.745L231.536 177C231.761 175.455 232 173.9 232 172.33L218.283 172C218.267 172.912 218.173 173.829 218 174.745Z" fill="#009476"></path><path d="M217.403 171L232 169.96C231.936 168.29 231.612 166.645 231.334 165L217 168.091C217.204 169.04 217.336 170.016 217.403 170.998V171Z" fill="#009F76"></path><path d="M216.944 166L230 161.352C229.753 160.617 229.5 159.88 229.241 159.148L228.845 158.056L228.376 157L216 163.435C216.361 164.261 216.677 165.123 216.942 166H216.944Z" fill="#00AA75"></path><path d="M214.366 161L226 153.408C225.645 152.82 225.287 152.236 224.918 151.657L223.684 150L213 158.993C213.498 159.629 213.95 160.301 214.366 161Z" fill="#00B474"></path><path d="M211.75 157L222 146.588C221.064 145.671 220.029 144.849 219.022 144L210 155.489C210.616 155.966 211.2 156.468 211.748 157H211.75Z" fill="#00BE73"></path><path d="M207.845 154L215 141.602L213.455 140.746C212.945 140.455 212.394 140.247 211.86 140L206 153.055C206.635 153.342 207.249 153.656 207.843 154H207.845Z" fill="#00C672"></path><path d="M201 152.549C201.562 152.653 202.13 152.785 202.692 152.941L202.9 153L207 138.769C205.941 138.457 204.859 138.241 203.781 138L201 152.549Z" fill="#00D071"></path><path d="M196.674 150.998C197.261 150.967 197.853 150.963 198.442 150.99L199 137.037C198.001 137.014 196.999 136.961 196 137.049L196.674 151V150.998Z" fill="#37CD58"></path><path d="M191.661 152C192.101 151.869 192.543 151.751 193 151.649L190.279 138C189.513 138.175 188.756 138.4 188 138.62L191.659 152H191.661Z" fill="#8CC931"></path><path d="M204.522 205.998L205.876 205.702C206.329 205.606 207.339 205.308 207.778 205.157C208.665 204.873 210.129 204.3 211 203.982L205.13 191C204.125 191.392 203.079 191.701 202 191.911L204.522 206V205.998Z" fill="#EF4C26"></path><path d="M230 204.763C227.155 208.166 223.662 210.983 219.713 213L200 177.212C200.541 176.848 201.055 176.444 201.543 176L230 204.761V204.763Z" fill="#07847B"></path><circle opacity="0.3" cx="196.5" cy="173.5" r="108" stroke="#07847B"></circle><circle opacity="0.16" cx="197.5" cy="172.5" r="132" stroke="#07847B"></circle><circle opacity="0.08" cx="199.5" cy="173.5" r="158" stroke="#07847B"></circle><g filter="url(#filter1_d_4637_42715)"><rect x="15" y="158" width="50" height="50" rx="25" fill="white"></rect><g clip-path="url(#clip0_4637_42715)"><path d="M40.1832 200.835C49.931 200.835 57.8332 192.933 57.8332 183.185C57.8332 173.437 49.931 165.535 40.1832 165.535C30.4354 165.535 22.5332 173.437 22.5332 183.185C22.5332 192.933 30.4354 200.835 40.1832 200.835Z" fill="white" stroke="#00877B" stroke-width="2.14286" stroke-miterlimit="10"></path><path d="M47.5332 177.167L48.7165 176" stroke="#FFC100" stroke-width="2.14286" stroke-miterlimit="10"></path><path d="M45.5833 179.134L45.8166 178.884L47.1499 177.551" stroke="#FFC100" stroke-width="2.14286" stroke-miterlimit="10"></path><path d="M43.2498 181.465L44.0331 180.665L45.0664 179.648" stroke="#FFC100" stroke-width="2.14286" stroke-miterlimit="10"></path><path d="M31.9666 182.769L36.9499 187.769L42.7499 181.969" fill="white"></path><path d="M31.9666 182.769L36.9499 187.769L42.7499 181.969" stroke="#00877B" stroke-width="2.14286" stroke-miterlimit="10"></path><path d="M40.6165 165.5V168.733" stroke="#00877B" stroke-width="2.14286" stroke-miterlimit="10"></path><path d="M40.6165 197.617V200.851" stroke="#00877B" stroke-width="2.14286" stroke-miterlimit="10"></path><path d="M21.7998 183.184H25.8331" stroke="#00877B" stroke-width="2.14286" stroke-miterlimit="10"></path><path d="M54.3665 183.184H57.5998" stroke="#00877B" stroke-width="2.14286" stroke-miterlimit="10"></path></g></g><g filter="url(#filter2_d_4637_42715)"><rect x="331" y="104" width="37" height="37" rx="18.5" fill="white"></rect><g clip-path="url(#clip1_4637_42715)"><path d="M356 127.438C355.81 127.868 355.6 128.287 355.36 128.677" stroke="#FFC100" stroke-width="1.28571" stroke-miterlimit="10"></path><path d="M356.55 125.949C356.42 126.369 356.28 126.779 356.11 127.179" stroke="#FFC100" stroke-width="1.28571" stroke-miterlimit="10"></path><path d="M356.91 124.559C356.83 124.919 356.75 125.269 356.65 125.619" stroke="#FFC100" stroke-width="1.28571" stroke-miterlimit="10"></path><path d="M355.21 128.917C354.11 130.637 352.49 131.987 350.09 132.467H349.91C340.86 130.637 342.77 116.537 342.77 116.537C345.91 116.107 350 113.527 350 113.527C350 113.527 354.09 116.107 357.23 116.537C357.23 116.537 357.75 120.347 356.97 124.267" stroke="#00877B" stroke-width="1.28571" stroke-linejoin="round"></path><path d="M354.4 121.138H351.49V118.238H348.51V121.138H345.6V124.128H348.51V127.028H351.49V124.128H354.4V121.138Z" stroke="#00877B" stroke-width="1.28571" stroke-linecap="round" stroke-linejoin="round"></path></g></g><g filter="url(#filter3_d_4637_42715)"><rect x="93" y="22" width="70" height="70" rx="35" fill="white"></rect><g clip-path="url(#clip2_4637_42715)"><path d="M138.617 63.9766C138.104 64.7932 137.474 65.5399 136.774 66.2166" stroke="#FFC100" stroke-width="3" stroke-miterlimit="10"></path><path d="M140.018 60.9219C139.761 61.8085 139.388 62.6252 138.944 63.4185" stroke="#FFC100" stroke-width="3" stroke-miterlimit="10"></path><path d="M140.53 57.6562C140.53 58.5196 140.413 59.3363 140.227 60.1529" stroke="#FFC100" stroke-width="3" stroke-miterlimit="10"></path><path d="M136.354 66.6382C135.117 67.9215 134.371 69.6015 134.371 71.3748V76.2282H122.027V71.3748C122.027 69.4848 121.187 67.6882 119.811 66.3815C117.244 64.0015 115.681 60.5248 115.891 56.6982C116.217 50.4682 121.327 45.3348 127.581 45.0315C134.581 44.6815 140.367 50.1648 140.554 57.0482" stroke="#00877B" stroke-width="3" stroke-linejoin="round"></path><path d="M124.15 82.8789H132.853" stroke="#00877B" stroke-width="3" stroke-linejoin="round"></path><path d="M154.32 57.6328H145.967" stroke="#00877B" stroke-width="3" stroke-linejoin="round"></path><path d="M146.62 38.9883L140.717 44.8916" stroke="#00877B" stroke-width="3" stroke-linejoin="round"></path><path d="M128.21 31.125L128.093 39.4783" stroke="#00877B" stroke-width="3" stroke-linejoin="round"></path><path d="M101.68 57.6328H110.033" stroke="#00877B" stroke-width="3" stroke-linejoin="round"></path><path d="M109.38 38.9883L115.283 44.8916" stroke="#00877B" stroke-width="3" stroke-linejoin="round"></path></g></g><g filter="url(#filter4_d_4637_42715)"><rect x="124" y="261" width="47" height="47" rx="23.5" fill="white"></rect><g clip-path="url(#clip3_4637_42715)"><path d="M141.94 286.422H137.09V294.662H141.94V286.422Z" stroke="#00877B" stroke-width="1.28571" stroke-miterlimit="10"></path><path d="M156.85 281.551H152V294.621H156.85V281.551Z" stroke="#00877B" stroke-width="1.28571" stroke-miterlimit="10"></path><path d="M149.4 284.301H144.55V294.691H149.4V284.301Z" stroke="#00877B" stroke-width="1.28571" stroke-miterlimit="10"></path><path d="M149.88 276.65L151.28 275.25" stroke="#FFC100" stroke-width="1.28571" stroke-miterlimit="10"></path><path d="M149.02 277.513L149.67 276.863" stroke="#FFC100" stroke-width="1.28571" stroke-miterlimit="10"></path><path d="M148.04 278.49L148.76 277.77" stroke="#FFC100" stroke-width="1.28571" stroke-miterlimit="10"></path><path d="M136.9 284.25L143.38 277.77L146.07 280.46L146.78 279.75L146.99 279.54L147.83 278.7" stroke="#00877B" stroke-width="1.28571" stroke-miterlimit="10"></path></g></g><g filter="url(#filter5_d_4637_42715)"><rect x="280" y="257" width="25" height="25" rx="12.5" fill="white"></rect><g clip-path="url(#clip4_4637_42715)"><path d="M292.993 274.104C295.663 274.104 297.827 271.94 297.827 269.271C297.827 266.601 295.663 264.438 292.993 264.438C290.324 264.438 288.16 266.601 288.16 269.271C288.16 271.94 290.324 274.104 292.993 274.104Z" stroke="#00877B" stroke-width="0.857143" stroke-linejoin="round"></path><path d="M295.42 273.363L295.413 277.537L292.98 275.563L290.567 277.543V273.37" stroke="#00877B" stroke-width="0.857143" stroke-linejoin="round"></path><path d="M294.9 267.936L295.207 267.629" stroke="#FFC100" stroke-width="0.857143" stroke-miterlimit="10"></path><path d="M294.387 268.452L294.447 268.386L294.8 268.039" stroke="#FFC100" stroke-width="0.857143" stroke-miterlimit="10"></path><path d="M293.773 269.055L293.98 268.849L294.247 268.582" stroke="#FFC100" stroke-width="0.857143" stroke-miterlimit="10"></path><path d="M290.827 269.398L292.127 270.705L293.647 269.191" fill="white"></path><path d="M290.827 269.398L292.127 270.705L293.647 269.191" stroke="#00877B" stroke-width="0.857143" stroke-miterlimit="10"></path></g></g><defs><filter id="filter0_dd_4637_42715" x="106.771" y="77.5253" width="184.458" height="188.949" filterUnits="userSpaceOnUse" color-interpolation-filters="sRGB"><feFlood flood-opacity="0" result="BackgroundImageFix"></feFlood><feColorMatrix in="SourceAlpha" type="matrix" values="0 0 0 0 0 0 0 0 0 0 0 0 0 0 0 0 0 0 127 0" result="hardAlpha"></feColorMatrix><feOffset dy="2.24578"></feOffset><feGaussianBlur stdDeviation="5.61445"></feGaussianBlur><feComposite in2="hardAlpha" operator="out"></feComposite><feColorMatrix type="matrix" values="0 0 0 0 0 0 0 0 0 0 0 0 0 0 0 0 0 0 0.08 0"></feColorMatrix><feBlend mode="normal" in2="BackgroundImageFix" result="effect1_dropShadow_4637_42715"></feBlend><feColorMatrix in="SourceAlpha" type="matrix" values="0 0 0 0 0 0 0 0 0 0 0 0 0 0 0 0 0 0 127 0" result="hardAlpha"></feColorMatrix><feOffset dy="-2.24578"></feOffset><feGaussianBlur stdDeviation="5.61445"></feGaussianBlur><feComposite in2="hardAlpha" operator="out"></feComposite><feColorMatrix type="matrix" values="0 0 0 0 0 0 0 0 0 0 0 0 0 0 0 0 0 0 0.08 0"></feColorMatrix><feBlend mode="normal" in2="effect1_dropShadow_4637_42715" result="effect2_dropShadow_4637_42715"></feBlend><feBlend mode="normal" in="SourceGraphic" in2="effect2_dropShadow_4637_42715" result="shape"></feBlend></filter><filter id="filter1_d_4637_42715" x="-0.00257015" y="142.997" width="80.0051" height="80.0051" filterUnits="userSpaceOnUse" color-interpolation-filters="sRGB"><feFlood flood-opacity="0" result="BackgroundImageFix"></feFlood><feColorMatrix in="SourceAlpha" type="matrix" values="0 0 0 0 0 0 0 0 0 0 0 0 0 0 0 0 0 0 127 0" result="hardAlpha"></feColorMatrix><feOffset></feOffset><feGaussianBlur stdDeviation="7.50129"></feGaussianBlur><feComposite in2="hardAlpha" operator="out"></feComposite><feColorMatrix type="matrix" values="0 0 0 0 0 0 0 0 0 0 0 0 0 0 0 0 0 0 0.1 0"></feColorMatrix><feBlend mode="normal" in2="BackgroundImageFix" result="effect1_dropShadow_4637_42715"></feBlend><feBlend mode="normal" in="SourceGraphic" in2="effect1_dropShadow_4637_42715" result="shape"></feBlend></filter><filter id="filter2_d_4637_42715" x="319.748" y="92.7481" width="59.5039" height="59.5039" filterUnits="userSpaceOnUse" color-interpolation-filters="sRGB"><feFlood flood-opacity="0" result="BackgroundImageFix"></feFlood><feColorMatrix in="SourceAlpha" type="matrix" values="0 0 0 0 0 0 0 0 0 0 0 0 0 0 0 0 0 0 127 0" result="hardAlpha"></feColorMatrix><feOffset></feOffset><feGaussianBlur stdDeviation="5.62596"></feGaussianBlur><feComposite in2="hardAlpha" operator="out"></feComposite><feColorMatrix type="matrix" values="0 0 0 0 0 0 0 0 0 0 0 0 0 0 0 0 0 0 0.1 0"></feColorMatrix><feBlend mode="normal" in2="BackgroundImageFix" result="effect1_dropShadow_4637_42715"></feBlend><feBlend mode="normal" in="SourceGraphic" in2="effect1_dropShadow_4637_42715" result="shape"></feBlend></filter><filter id="filter3_d_4637_42715" x="71.86" y="0.860018" width="112.28" height="112.28" filterUnits="userSpaceOnUse" color-interpolation-filters="sRGB"><feFlood flood-opacity="0" result="BackgroundImageFix"></feFlood><feColorMatrix in="SourceAlpha" type="matrix" values="0 0 0 0 0 0 0 0 0 0 0 0 0 0 0 0 0 0 127 0" result="hardAlpha"></feColorMatrix><feOffset></feOffset><feGaussianBlur stdDeviation="10.57"></feGaussianBlur><feComposite in2="hardAlpha" operator="out"></feComposite><feColorMatrix type="matrix" values="0 0 0 0 0 0 0 0 0 0 0 0 0 0 0 0 0 0 0.1 0"></feColorMatrix><feBlend mode="normal" in2="BackgroundImageFix" result="effect1_dropShadow_4637_42715"></feBlend><feBlend mode="normal" in="SourceGraphic" in2="effect1_dropShadow_4637_42715" result="shape"></feBlend></filter><filter id="filter4_d_4637_42715" x="109.692" y="246.692" width="75.6161" height="75.6161" filterUnits="userSpaceOnUse" color-interpolation-filters="sRGB"><feFlood flood-opacity="0" result="BackgroundImageFix"></feFlood><feColorMatrix in="SourceAlpha" type="matrix" values="0 0 0 0 0 0 0 0 0 0 0 0 0 0 0 0 0 0 127 0" result="hardAlpha"></feColorMatrix><feOffset></feOffset><feGaussianBlur stdDeviation="7.15403"></feGaussianBlur><feComposite in2="hardAlpha" operator="out"></feComposite><feColorMatrix type="matrix" values="0 0 0 0 0 0 0 0 0 0 0 0 0 0 0 0 0 0 0.1 0"></feColorMatrix><feBlend mode="normal" in2="BackgroundImageFix" result="effect1_dropShadow_4637_42715"></feBlend><feBlend mode="normal" in="SourceGraphic" in2="effect1_dropShadow_4637_42715" result="shape"></feBlend></filter><filter id="filter5_d_4637_42715" x="272.384" y="249.384" width="40.2312" height="40.2312" filterUnits="userSpaceOnUse" color-interpolation-filters="sRGB"><feFlood flood-opacity="0" result="BackgroundImageFix"></feFlood><feColorMatrix in="SourceAlpha" type="matrix" values="0 0 0 0 0 0 0 0 0 0 0 0 0 0 0 0 0 0 127 0" result="hardAlpha"></feColorMatrix><feOffset></feOffset><feGaussianBlur stdDeviation="3.80779"></feGaussianBlur><feComposite in2="hardAlpha" operator="out"></feComposite><feColorMatrix type="matrix" values="0 0 0 0 0 0 0 0 0 0 0 0 0 0 0 0 0 0 0.1 0"></feColorMatrix><feBlend mode="normal" in2="BackgroundImageFix" result="effect1_dropShadow_4637_42715"></feBlend><feBlend mode="normal" in="SourceGraphic" in2="effect1_dropShadow_4637_42715" result="shape"></feBlend></filter><clipPath id="clip0_4637_42715"><rect width="40" height="40" fill="white" transform="translate(20 163)"></rect></clipPath><clipPath id="clip1_4637_42715"><rect width="24" height="24" fill="white" transform="translate(338 111)"></rect></clipPath><clipPath id="clip2_4637_42715"><rect width="56" height="56" fill="white" transform="translate(100 29)"></rect></clipPath><clipPath id="clip3_4637_42715"><rect width="24" height="24" fill="white" transform="translate(135 273)"></rect></clipPath><clipPath id="clip4_4637_42715"><rect width="16" height="16" fill="white" transform="translate(285 263)"></rect></clipPath></defs></svg> 