<?xml version="1.0" encoding="UTF-8"?> <svg xmlns="http://www.w3.org/2000/svg" width="56" height="56" viewBox="0 0 56 56" fill="none"><g id="Cohesive Collaboration"><g id="Group"><path id="Vector" d="M38.9671 12.4844L34.8838 12.5077" stroke="#FFC100" stroke-width="3" stroke-miterlimit="10"></path><path id="Vector_2" d="M43.2845 12.4609L39.9712 12.4843" stroke="#FFC100" stroke-width="3" stroke-miterlimit="10"></path><path id="Vector_3" d="M47.9268 12.4375L44.3335 12.4608" stroke="#FFC100" stroke-width="3" stroke-miterlimit="10"></path><path id="Vector_4" d="M33.8811 12.5075H32.2944L32.3178 19.5775C32.7844 19.3908 33.2978 19.2975 33.8344 19.3675C35.4444 19.5308 36.7044 20.8842 36.7511 22.4942C36.8211 24.3375 35.3511 25.8308 33.5311 25.8542C33.1111 25.8542 32.7144 25.7842 32.3411 25.6208V32.6908L39.4111 32.6675C39.2244 33.2042 39.1544 33.7875 39.2711 34.3942C39.5744 35.8875 40.9044 37.0075 42.4444 37.0075C44.2411 37.0075 45.7111 35.5608 45.7111 33.7408C45.7111 33.3442 45.6411 32.9708 45.5011 32.6208H52.5478L52.4778 15.5642C52.4778 13.8375 51.0544 12.4375 49.3278 12.4375H48.7911" stroke="white" stroke-width="3" stroke-linejoin="round"></path><path id="Vector_5" d="M52.6408 48.9536L52.5708 32.4336H45.5008C45.6875 32.9236 45.7808 33.4369 45.7108 33.9969C45.5475 35.6069 44.1941 36.8669 42.5841 36.9136C40.7408 36.9836 39.2475 35.5136 39.2241 33.6936C39.2241 33.2736 39.2941 32.8769 39.4575 32.5036H32.3875L32.4108 39.5736C31.8741 39.3869 31.2908 39.3169 30.6841 39.4336C29.1908 39.7369 28.0708 41.0669 28.0708 42.6069C28.0708 44.4036 29.5175 45.8736 31.3375 45.8736C31.7341 45.8736 32.1075 45.8036 32.4575 45.6636V52.7103L49.0241 52.6403C51.0308 52.6403 52.6641 50.9836 52.6641 48.9769L52.6408 48.9536Z" stroke="white" stroke-width="3" stroke-linecap="round" stroke-linejoin="round"></path><path id="Vector_6" d="M15.8441 52.7809L32.5975 52.7109V45.6409C32.1075 45.8276 31.5941 45.9209 31.0341 45.8509C29.4241 45.6876 28.1641 44.3343 28.1175 42.7243C28.0475 40.8809 29.5175 39.3876 31.3375 39.3643C31.7575 39.3643 32.1541 39.4343 32.5275 39.5976V32.5276L25.4575 32.5509C25.6441 32.0143 25.7141 31.4309 25.5975 30.8243C25.2941 29.3309 23.9641 28.2109 22.4241 28.2109C20.6275 28.2109 19.1575 29.6576 19.1575 31.4776C19.1575 31.8743 19.2275 32.2476 19.3675 32.5976H12.3208L12.3908 49.3743C12.3908 51.2643 13.9308 52.8043 15.8208 52.7809H15.8441Z" stroke="white" stroke-width="3" stroke-linecap="round" stroke-linejoin="round"></path><path id="Vector_7" d="M2.75353 12.0653L7.46686 27.3486L14.0002 25.3419C13.6502 24.9219 13.4169 24.4086 13.3469 23.8019C13.1602 22.4019 13.9535 21.0253 15.2602 20.5119C16.9869 19.7886 18.9235 20.7453 19.4602 22.4719C19.5769 22.8686 19.6235 23.2653 19.5769 23.6386L26.1102 21.6319L24.1035 15.1453C24.6402 15.1686 25.2002 15.0753 25.7369 14.7953C27.0435 14.0953 27.6969 12.5553 27.2769 11.1319C26.7869 9.47526 25.0135 8.51859 23.3335 9.03193C22.9602 9.14859 22.6335 9.31193 22.3535 9.54526L20.3469 3.05859L5.06353 7.74859C3.22019 8.30859 2.19353 10.2453 2.77686 12.0653H2.75353Z" stroke="white" stroke-width="3" stroke-linecap="round" stroke-linejoin="round"></path></g></g></svg> 