<?xml version="1.0" encoding="UTF-8"?> <svg xmlns="http://www.w3.org/2000/svg" width="40" height="40" viewBox="0 0 40 40" fill="none"><g id="CoreValuessandy" clip-path="url(#clip0_5028_48356)"><g id="Group"><path id="Vector" d="M31.6504 35.2323H34.4004C34.7837 35.2323 35.1004 34.9156 35.1004 34.5323C35.1004 33.7323 35.1004 32.9823 35.0504 32.2656" stroke="#07847B" stroke-width="2" stroke-linejoin="round"></path><path id="Vector_2" d="M14.5836 20.6496C14.267 20.3996 13.9503 20.1163 13.6503 19.8163C13.4336 19.5996 13.1003 19.5496 12.817 19.6829C6.38362 23.0996 5.08362 30.0996 5.26695 34.5496C5.26695 34.9329 5.58362 35.2163 5.96695 35.2163H8.65028" stroke="#07847B" stroke-width="2" stroke-linejoin="round"></path><path id="Vector_3" d="M32.7002 24.0156C32.6502 23.9322 32.6002 23.8489 32.5336 23.7656C31.1002 21.6322 29.3502 20.5489 28.1836 19.8156C28.1169 19.7822 28.0669 19.7489 28.0002 19.6989C27.7502 19.5489 27.4169 19.5656 27.1836 19.7489C26.8669 19.9989 26.4836 20.2656 26.0669 20.5322" stroke="#07847B" stroke-width="2" stroke-linejoin="round"></path><path id="Vector_4" d="M20.5339 17.2651C24.5012 17.2651 27.7173 14.049 27.7173 10.0818C27.7173 6.11453 24.5012 2.89844 20.5339 2.89844C16.5667 2.89844 13.3506 6.11453 13.3506 10.0818C13.3506 14.049 16.5667 17.2651 20.5339 17.2651Z" stroke="#07847B" stroke-width="2" stroke-linejoin="round"></path><path id="Vector_5" d="M33.8335 26.2331C33.5502 25.5164 33.2335 24.8831 32.8835 24.3164" stroke="#FFC100" stroke-width="2" stroke-miterlimit="10"></path><path id="Vector_6" d="M34.6002 28.7159C34.4335 27.9826 34.2502 27.3159 34.0168 26.6992" stroke="#FFC100" stroke-width="2" stroke-miterlimit="10"></path><path id="Vector_7" d="M35.0503 31.8828C34.9836 30.8828 34.8503 29.9661 34.6836 29.1328" stroke="#FFC100" stroke-width="2" stroke-miterlimit="10"></path><path id="Vector_8" d="M27.1169 28.0992C27.1169 29.7326 26.5336 31.2159 25.5502 32.3659C24.3336 33.8159 22.5169 34.7326 20.4669 34.7326C18.4169 34.7326 16.6836 33.8492 15.4669 32.4659C14.4502 31.2992 13.8169 29.7659 13.8169 28.0992C13.8169 26.2659 14.5669 24.6159 15.7669 23.3992C16.9669 22.1826 18.6336 21.4492 20.4669 21.4492C22.5002 21.4492 24.3169 22.3659 25.5336 23.7992C26.5169 24.9492 27.1002 26.4492 27.1002 28.0826L27.1169 28.0992Z" stroke="#07847B" stroke-width="2" stroke-linejoin="round"></path><path id="Vector_9" d="M23.2002 28.0995C23.2002 28.7661 22.9668 29.3828 22.5668 29.8495C22.0668 30.4495 21.3168 30.8161 20.4835 30.8161C19.6502 30.8161 18.9335 30.4495 18.4335 29.8828C18.0168 29.3995 17.7668 28.7828 17.7668 28.0995C17.7668 27.3495 18.0668 26.6661 18.5668 26.1828C19.0668 25.6995 19.7335 25.3828 20.4835 25.3828C21.3168 25.3828 22.0668 25.7495 22.5668 26.3495C22.9668 26.8161 23.2168 27.4328 23.2168 28.0995H23.2002Z" stroke="#07847B" stroke-width="2" stroke-linejoin="round"></path></g></g><defs><clipPath id="clip0_5028_48356"><rect width="40" height="40" fill="white"></rect></clipPath></defs></svg> 