<?xml version="1.0" encoding="UTF-8"?> <svg xmlns="http://www.w3.org/2000/svg" width="41" height="41" viewBox="0 0 41 41" fill="none"><g id="Industry Expert" clip-path="url(#clip0_5028_48220)"><g id="Group"><path id="Vector" d="M32.3 36.2518H35.05C35.4334 36.2518 35.75 35.9352 35.75 35.5518C35.75 34.7518 35.7501 34.0018 35.7001 33.2852" stroke="#07847B" stroke-width="2" stroke-linejoin="round"></path><path id="Vector_2" d="M15.2333 21.6691C14.9166 21.4191 14.5999 21.1358 14.2999 20.8358C14.0833 20.6191 13.7499 20.5691 13.4666 20.7025C7.03328 24.1191 5.73328 31.1191 5.91661 35.5691C5.91661 35.9525 6.23328 36.2358 6.61661 36.2358H9.29994" stroke="#07847B" stroke-width="2" stroke-linejoin="round"></path><path id="Vector_3" d="M33.3328 25.0351C33.2828 24.9518 33.2328 24.8684 33.1661 24.7851C31.7328 22.6518 29.9828 21.5684 28.8161 20.8351C28.7495 20.8018 28.6995 20.7684 28.6328 20.7184C28.3828 20.5684 28.0495 20.5851 27.8161 20.7684C27.4995 21.0184 27.1161 21.2851 26.6995 21.5518" stroke="#07847B" stroke-width="2" stroke-linejoin="round"></path><path id="Vector_4" d="M21.1833 18.2846C25.1506 18.2846 28.3667 15.0685 28.3667 11.1013C28.3667 7.13406 25.1506 3.91797 21.1833 3.91797C17.2161 3.91797 14 7.13406 14 11.1013C14 15.0685 17.2161 18.2846 21.1833 18.2846Z" stroke="#07847B" stroke-width="2" stroke-linejoin="round"></path><path id="Vector_5" d="M34.4832 27.2526C34.1999 26.5359 33.8832 25.9026 33.5332 25.3359" stroke="#FFC100" stroke-width="2" stroke-miterlimit="10"></path><path id="Vector_6" d="M35.2327 29.7354C35.0661 29.0021 34.8827 28.3354 34.6494 27.7188" stroke="#FFC100" stroke-width="2" stroke-miterlimit="10"></path><path id="Vector_7" d="M35.6999 32.9023C35.6333 31.9023 35.4999 30.9857 35.3333 30.1523" stroke="#FFC100" stroke-width="2" stroke-miterlimit="10"></path><path id="Vector_8" d="M21.0165 23.1836L23.2165 27.6336L28.1165 28.3503L24.5665 31.8169L25.4165 36.7003L21.0165 34.3836L16.6332 36.7003L17.4665 31.8169L13.9165 28.3503L18.8332 27.6336L21.0165 23.1836Z" stroke="#07847B" stroke-width="2" stroke-linejoin="round"></path></g></g><defs><clipPath id="clip0_5028_48220"><rect width="40" height="40" fill="white" transform="translate(0.5 0.5)"></rect></clipPath></defs></svg> 