<?xml version="1.0" encoding="UTF-8"?> <svg xmlns="http://www.w3.org/2000/svg" width="16" height="16" viewBox="0 0 16 16" fill="none"><g clip-path="url(#clip0_3566_398)"><mask id="mask0_3566_398" style="mask-type:luminance" maskUnits="userSpaceOnUse" x="0" y="0" width="17" height="16"><path d="M16.6172 0H0.617188V16H16.6172V0Z" fill="white"></path></mask><g mask="url(#mask0_3566_398)"><path d="M8.50441 1.88209C10.5095 1.88209 10.7469 1.89089 11.5354 1.92605C12.2683 1.95828 12.6641 2.08136 12.9279 2.18391C13.2767 2.31871 13.5288 2.4828 13.7898 2.7436C14.0535 3.00732 14.2148 3.25639 14.3496 3.60509C14.4522 3.86882 14.5754 4.26732 14.6076 4.99696C14.6427 5.78813 14.6516 6.02548 14.6516 8.02684C14.6516 10.0312 14.6427 10.2685 14.6076 11.0567C14.5754 11.7893 14.4522 12.1849 14.3496 12.4486C14.2148 12.7973 14.0506 13.0493 13.7898 13.3101C13.5259 13.5738 13.2767 13.735 12.9279 13.8698C12.6641 13.9724 12.2654 14.0954 11.5354 14.1276C10.744 14.1628 10.5066 14.1716 8.50441 14.1716C6.49932 14.1716 6.26187 14.1628 5.47333 14.1276C4.74048 14.0954 4.34473 13.9724 4.08091 13.8698C3.73207 13.735 3.47997 13.5709 3.21907 13.3101C2.95525 13.0464 2.79402 12.7973 2.65918 12.4486C2.55657 12.1849 2.43346 11.7863 2.40121 11.0567C2.36604 10.2656 2.35724 10.0282 2.35724 8.02684C2.35724 6.02255 2.36604 5.78519 2.40121 4.99696C2.43346 4.26439 2.55657 3.86882 2.65918 3.60509C2.79402 3.25639 2.95818 3.00439 3.21907 2.7436C3.4829 2.47987 3.73207 2.31871 4.08091 2.18391C4.34473 2.08136 4.7434 1.95828 5.47333 1.92605C6.26187 1.89089 6.49932 1.88209 8.50441 1.88209ZM8.50441 0.53125C6.46707 0.53125 6.21204 0.540041 5.41177 0.575204C4.61442 0.610367 4.06625 0.739298 3.59137 0.923904C3.09595 1.1173 2.67677 1.37223 2.26051 1.79126C1.84131 2.20736 1.58628 2.62639 1.39281 3.11867C1.20813 3.5963 1.07915 4.14132 1.04397 4.93835C1.00879 5.74124 1 5.99618 1 8.0327C1 10.0693 1.00879 10.3242 1.04397 11.1241C1.07915 11.9212 1.20813 12.4692 1.39281 12.9438C1.58628 13.439 1.84131 13.8581 2.26051 14.2742C2.67677 14.6902 3.09595 14.9481 3.58843 15.1385C4.06625 15.3232 4.6115 15.4521 5.40884 15.4873C6.20911 15.5224 6.46415 15.5312 8.50147 15.5312C10.5388 15.5312 10.7938 15.5224 11.5941 15.4873C12.3914 15.4521 12.9396 15.3232 13.4145 15.1385C13.907 14.9481 14.3261 14.6902 14.7425 14.2742C15.1587 13.8581 15.4166 13.439 15.6072 12.9467C15.7918 12.4692 15.9208 11.9241 15.956 11.1271C15.9912 10.3271 16 10.0722 16 8.03564C16 5.99911 15.9912 5.74418 15.956 4.94421C15.9208 4.14719 15.7918 3.59923 15.6072 3.12453C15.4225 2.62639 15.1675 2.20736 14.7483 1.79126C14.3321 1.37516 13.9128 1.1173 13.4204 0.926834C12.9425 0.742228 12.3973 0.613297 11.6 0.578134C10.7967 0.540041 10.5418 0.53125 8.50441 0.53125Z" fill="#CCE7E5"></path><path d="M8.61719 3.89062C6.34844 3.89062 4.50781 5.73125 4.50781 8C4.50781 10.2688 6.34844 12.1094 8.61719 12.1094C10.8859 12.1094 12.7266 10.2688 12.7266 8C12.7266 5.73125 10.8859 3.89062 8.61719 3.89062ZM8.61719 10.6656C7.14531 10.6656 5.95156 9.47188 5.95156 8C5.95156 6.52813 7.14531 5.33438 8.61719 5.33438C10.0891 5.33438 11.2828 6.52813 11.2828 8C11.2828 9.47188 10.0891 10.6656 8.61719 10.6656Z" fill="#CCE7E5"></path><path d="M13.8484 3.72501C13.8484 4.25626 13.4172 4.68439 12.8891 4.68439C12.3578 4.68439 11.9297 4.25314 11.9297 3.72501C11.9297 3.19376 12.3609 2.76562 12.8891 2.76562C13.4172 2.76562 13.8484 3.19689 13.8484 3.72501Z" fill="#CCE7E5"></path></g></g><defs><clipPath id="clip0_3566_398"><rect width="16" height="16" fill="white"></rect></clipPath></defs></svg> 