<?xml version="1.0" encoding="UTF-8"?> <svg xmlns="http://www.w3.org/2000/svg" width="16" height="16" viewBox="0 0 16 16" fill="none"><g clip-path="url(#clip0_3566_382)"><mask id="mask0_3566_382" style="mask-type:luminance" maskUnits="userSpaceOnUse" x="0" y="0" width="16" height="16"><path d="M15.487 0.664062H0.820312V15.3307H15.487V0.664062Z" fill="white"></path></mask><g mask="url(#mask0_3566_382)"><path d="M14.4013 0.664062H1.90313C1.30443 0.664062 0.820312 1.13672 0.820312 1.72109V14.2709C0.820312 14.8553 1.30443 15.3307 1.90313 15.3307H14.4013C15.0001 15.3307 15.487 14.8553 15.487 14.2737V1.72109C15.487 1.13672 15.0001 0.664062 14.4013 0.664062ZM5.17161 13.1622H2.99453V6.1612H5.17161V13.1622ZM4.08308 5.20729C3.38412 5.20729 2.8198 4.64297 2.8198 3.94688C2.8198 3.25078 3.38412 2.68646 4.08308 2.68646C4.77917 2.68646 5.34349 3.25078 5.34349 3.94688C5.34349 4.6401 4.77917 5.20729 4.08308 5.20729ZM13.3185 13.1622H11.1443V9.75912C11.1443 8.94844 11.1299 7.90286 10.0128 7.90286C8.88125 7.90286 8.70937 8.78802 8.70937 9.70182V13.1622H6.53802V6.1612H8.62344V7.11797H8.65209C8.94141 6.56797 9.65182 5.98646 10.7088 5.98646C12.9117 5.98646 13.3185 7.43594 13.3185 9.32084V13.1622Z" fill="#CCE7E5"></path></g></g><defs><clipPath id="clip0_3566_382"><rect width="16" height="16" fill="white"></rect></clipPath></defs></svg> 