<?xml version="1.0" encoding="UTF-8"?> <svg xmlns="http://www.w3.org/2000/svg" width="16" height="16" viewBox="0 0 16 16" fill="none"><g clip-path="url(#clip0_3566_390)"><mask id="mask0_3566_390" style="mask-type:luminance" maskUnits="userSpaceOnUse" x="0" y="0" width="16" height="16"><path d="M15.527 0.75H0.757812V15.5192H15.527V0.75Z" fill="white"></path></mask><g mask="url(#mask0_3566_390)"><path d="M15.5271 8.13461C15.5271 4.0562 12.2208 0.75 8.14243 0.75C4.06402 0.75 0.757812 4.0562 0.757812 8.13461C0.757812 11.8204 3.45825 14.8755 6.98858 15.4295V10.2692H5.11358V8.13461H6.98858V6.5077C6.98858 4.65693 8.09108 3.63461 9.77786 3.63461C10.5856 3.63461 11.4309 3.77885 11.4309 3.77885V5.59615H10.4997C9.58243 5.59615 9.29628 6.16543 9.29628 6.75V8.13461H11.3444L11.0169 10.2692H9.29628V15.4295C12.8266 14.8755 15.5271 11.8204 15.5271 8.13461Z" fill="#CCE7E5"></path></g></g><defs><clipPath id="clip0_3566_390"><rect width="16" height="16" fill="white"></rect></clipPath></defs></svg> 