<?xml version="1.0" encoding="UTF-8"?> <svg xmlns="http://www.w3.org/2000/svg" width="124" height="39" viewBox="0 0 124 39" fill="none"><g clip-path="url(#clip0_1960_15061)"><mask id="mask0_1960_15061" style="mask-type:luminance" maskUnits="userSpaceOnUse" x="0" y="1" width="122" height="38"><path d="M121.403 1.44336H0.390625V38.1349H121.403V1.44336Z" fill="white"></path></mask><g mask="url(#mask0_1960_15061)"><path d="M21.3438 28.4663L5.30853 6.31578C4.79714 5.60937 3.9795 5.19141 3.10831 5.19141C1.60747 5.19141 0.390625 6.4099 0.390625 7.91278V35.0415H4.36558V11.7676L20.4089 33.9293C20.9143 34.6276 21.7248 35.0415 22.5859 35.0415C24.0716 35.0415 25.2753 33.8362 25.2753 32.3485V5.19141H21.3438V28.4653V28.4663Z" fill="#07847B"></path><path d="M39.128 12.46C32.4313 12.46 27.377 17.4351 27.377 24.0104C27.377 30.5856 32.4313 35.5607 39.128 35.5607C45.8247 35.5607 50.8355 30.5856 50.8355 24.0104C50.8355 17.4351 45.7811 12.46 39.128 12.46ZM39.128 31.9701C34.5921 31.9701 31.2215 28.5524 31.2215 24.0104C31.2215 19.4683 34.5911 16.0506 39.128 16.0506C43.6649 16.0506 46.9909 19.4683 46.9909 24.0104C46.9909 28.5524 43.6214 31.9701 39.128 31.9701Z" fill="#07847B"></path><path d="M64.1594 12.4597C60.9929 12.4597 58.1954 13.5728 56.1236 15.4401V3.58301H52.4083V24.4401H52.4184C52.6337 30.8008 57.6102 35.5605 64.1594 35.5605C70.7085 35.5605 75.867 30.5853 75.867 24.01C75.867 17.4348 70.8126 12.4597 64.1594 12.4597ZM64.1594 31.9698C59.6235 31.9698 56.2529 28.5521 56.2529 24.01C56.2529 19.468 59.6225 16.0503 64.1594 16.0503C68.6962 16.0503 72.0224 19.468 72.0224 24.01C72.0224 28.5521 68.6528 31.9698 64.1594 31.9698Z" fill="#07847B"></path><path d="M81.5219 3.89355H77.8068V35.0411H81.5219V3.89355Z" fill="#07847B"></path><path d="M99.5106 9.79976C99.6915 9.68843 99.8755 9.58318 100.064 9.48603L96.8819 3.42188L95.9572 3.96028L99.5097 9.80077L99.5106 9.79976Z" fill="#C6C717"></path><path d="M97.3955 11.5215C97.5613 11.3424 97.7311 11.1744 97.906 11.0094L93.2094 5.94922C92.9123 6.23259 92.6131 6.51494 92.3322 6.81552L97.3966 11.5215H97.3955Z" fill="#E9C507"></path><path d="M95.9922 13.4719C96.1216 13.232 96.2641 12.9983 96.4126 12.7736L90.66 8.95312C90.3891 9.32759 90.1728 9.73847 89.9454 10.1403L95.9912 13.4729L95.9922 13.4719Z" fill="#F4C402"></path><path d="M88.42 13.9256L95.0965 15.7058L95.1238 15.6087C95.1965 15.3466 95.2794 15.0885 95.3734 14.8374L88.888 12.4541C88.7263 12.943 88.5524 13.4287 88.421 13.9256H88.42Z" fill="#F7C401"></path><path d="M87.8634 17.9697L94.7633 18.087C94.7683 17.7551 94.7915 17.4231 94.8299 17.0892L87.9806 16.2715C87.9503 16.5537 87.8998 16.8341 87.8927 17.1195L87.8644 17.9697H87.8634Z" fill="#F9C400"></path><path d="M88.2884 22.0418L95.0194 20.4762C94.9376 20.123 94.8719 19.7637 94.8315 19.4014L87.965 20.2039C88.064 20.8193 88.1448 21.4387 88.2893 22.0418H88.2884Z" fill="#FAC400"></path><path d="M95.5614 22.1383C95.4916 21.9763 95.4269 21.8124 95.3673 21.6465L88.8889 24.0329L89.2538 24.9771C89.3974 25.2806 89.5459 25.5792 89.6955 25.8788L95.8414 22.7354C95.7412 22.5401 95.6473 22.3407 95.5603 22.1393" fill="#FAC400"></path><path d="M91.962 29.269L97.1842 24.733C96.9052 24.4102 96.6465 24.0681 96.412 23.7148L90.6583 27.5313L90.9544 27.9857L91.2849 28.4158C91.5083 28.7022 91.7346 28.9876 91.962 29.269Z" fill="#FAC300"></path><path d="M95.0098 32.0021L98.9696 26.3388C98.5936 26.0757 98.2358 25.7872 97.9054 25.4766L93.1896 30.5408C93.7798 31.0488 94.3589 31.5761 95.0098 32.0021Z" fill="#F8B001"></path><path d="M98.607 33.9351L101.087 27.4712C100.627 27.2951 100.185 27.0857 99.7663 26.8438L96.3654 32.8603C97.079 33.2895 97.844 33.6092 98.607 33.9351Z" fill="#F49703"></path><path d="M101.26 34.698C101.689 34.8053 102.127 34.8548 102.563 34.9125L103.418 28.055C102.946 27.9962 102.473 27.9001 102 27.7696L101.894 27.7402L99.9747 34.3862C100.397 34.5158 100.829 34.5988 101.26 34.698Z" fill="#F17E05"></path><path d="M103.844 35.0264L104.545 35.0466C104.78 35.0547 105.012 35.0568 105.246 35.0376C105.715 35.0082 106.183 34.9829 106.648 34.9353L105.82 28.0605C105.28 28.1263 104.729 28.1476 104.174 28.1202L103.845 35.0274L103.844 35.0264Z" fill="#EE6706"></path><path d="M117.89 28.5617C118.17 28.1872 118.434 27.7976 118.699 27.41C118.836 27.2197 118.954 27.0193 119.068 26.8139L119.412 26.2017L113.327 22.9307C113.066 23.4215 112.765 23.884 112.43 24.3132L117.89 28.5627V28.5617Z" fill="#007F78"></path><path d="M119.973 25.0449C120.148 24.6412 120.331 24.2384 120.46 23.8153C120.597 23.3974 120.748 22.9804 120.854 22.5543L114.176 20.7803L114.148 20.8865C114.016 21.3601 113.854 21.8156 113.662 22.2507L119.975 25.0449H119.973Z" fill="#008A77"></path><path d="M114.359 19.9455L121.17 21.1418C121.284 20.322 121.403 19.4972 121.403 18.6643L114.502 18.4893C114.494 18.973 114.447 19.4598 114.359 19.9455Z" fill="#009476"></path><path d="M114.481 17.5455L121.368 17.0597C121.338 16.2805 121.185 15.5123 121.054 14.7441L114.291 16.1874C114.388 16.6306 114.45 17.0861 114.481 17.5445V17.5455Z" fill="#009F76"></path><path d="M114.022 15.187L120.594 13.0364C120.469 12.6963 120.342 12.3553 120.212 12.0162L120.013 11.5113L119.776 11.0225L113.547 13.9999C113.73 14.3824 113.888 14.7811 114.021 15.187H114.022Z" fill="#00AA75"></path><path d="M113.004 13.0062L118.859 9.34665C118.68 9.06327 118.501 8.78193 118.314 8.5026L117.694 7.7041L112.317 12.0386C112.567 12.3453 112.795 12.6692 113.004 13.0062Z" fill="#00B474"></path><path d="M111.482 11.1278L116.306 6.17693C115.867 5.74074 115.379 5.3501 114.905 4.94629L110.658 10.4093C110.948 10.636 111.223 10.8748 111.481 11.1278H111.482Z" fill="#00BE73"></path><path d="M109.578 9.68712L113.028 3.70192L112.284 3.28901C112.038 3.14833 111.772 3.04814 111.515 2.92871L108.69 9.23069C108.996 9.36934 109.292 9.52115 109.577 9.68712H109.578Z" fill="#00C672"></path><path d="M106.484 8.53801C106.746 8.58659 107.01 8.64832 107.273 8.72118L107.369 8.74852L109.279 2.10244C108.787 1.95671 108.282 1.8555 107.779 1.74316L106.484 8.53801Z" fill="#00D071"></path><path d="M104.178 8.37168C104.449 8.35649 104.722 8.35448 104.994 8.36763L105.252 1.46146C104.791 1.45033 104.328 1.42402 103.867 1.46754L104.178 8.37269V8.37168Z" fill="#37CD58"></path><path d="M101.901 8.74635C102.131 8.68157 102.363 8.62287 102.602 8.57228L101.178 1.80273C100.777 1.88977 100.381 2.00109 99.9845 2.11039L101.901 8.74736V8.74635Z" fill="#8CC931"></path><path d="M107.872 34.5807L108.558 34.438C108.787 34.3915 109.3 34.2477 109.523 34.1749C109.972 34.0383 110.714 33.762 111.156 33.6082L108.181 27.3467C107.671 27.5359 107.141 27.6847 106.594 27.7859L107.872 34.5818V34.5807Z" fill="#EF4C26"></path><path d="M120.866 34.1936C119.462 35.8219 117.738 37.1699 115.791 38.1354L106.065 21.0077C106.331 20.8336 106.585 20.6403 106.825 20.4277L120.866 34.1925V34.1936Z" fill="#07847B"></path></g></g><defs><clipPath id="clip0_1960_15061"><rect width="123.789" height="38.6842" fill="white"></rect></clipPath></defs></svg> 