<?xml version="1.0" encoding="UTF-8"?> <svg xmlns="http://www.w3.org/2000/svg" width="40" height="40" viewBox="0 0 40 40" fill="none"><g id="Asset 6Resiliance1" clip-path="url(#clip0_4637_42696)"><g id="Layer 1"><g id="Group"><g id="Group_2"><g id="Group_3"><path id="Vector" d="M31 21H34" stroke="#FFC100" stroke-width="2" stroke-linejoin="round"></path><path id="Vector_2" d="M29 21H30" stroke="#FFC100" stroke-width="2" stroke-miterlimit="10"></path><path id="Vector_3" d="M27 21H29" stroke="#FFC100" stroke-width="2" stroke-miterlimit="10"></path><path id="Vector_4" d="M24 21H26" stroke="#FFC100" stroke-width="2" stroke-miterlimit="10"></path><path id="Vector_5" d="M6 21H24" stroke="#00877B" stroke-width="2" stroke-linejoin="round"></path><path id="Vector_6" d="M8 13C8 13 18.0757 21.9513 32 13.0728" stroke="#00877B" stroke-width="2" stroke-linejoin="round"></path><path id="Vector_7" d="M11 7C11 7 19.4323 18.25 29 7" stroke="#00877B" stroke-width="2" stroke-linejoin="round"></path><path id="Vector_8" d="M8 30C8 30 18.0757 21.0487 32 29.9272" stroke="#00877B" stroke-width="2" stroke-linejoin="round"></path><path id="Vector_9" d="M11 35C11 35 19.4323 23.75 29 35" stroke="#00877B" stroke-width="2" stroke-linejoin="round"></path></g><path id="Vector_10" d="M17 3.09132L20.4596 7L24 3" stroke="#00877B" stroke-width="2" stroke-linejoin="round"></path><path id="Vector_11" d="M24 36.9266L20.5404 33L17 37" stroke="#00877B" stroke-width="2" stroke-linejoin="round"></path></g></g></g></g><defs><clipPath id="clip0_4637_42696"><rect width="40" height="40" fill="white"></rect></clipPath></defs></svg> 