<?xml version="1.0" encoding="UTF-8"?> <svg xmlns="http://www.w3.org/2000/svg" width="57" height="57" viewBox="0 0 57 57" fill="none"><path d="M42.5397 38.6523C42.0964 39.6557 41.6064 40.6357 41.0464 41.5457" stroke="#FFC100" stroke-width="3" stroke-miterlimit="10"></path><path d="M43.8231 35.1758C43.5197 36.1558 43.1931 37.1124 42.7964 38.0458" stroke="#FFC100" stroke-width="3" stroke-miterlimit="10"></path><path d="M44.6648 31.9297C44.4781 32.7697 44.2914 33.5864 44.0581 34.403" stroke="#FFC100" stroke-width="3" stroke-miterlimit="10"></path><path d="M40.6981 42.1053C38.1314 46.1186 34.3514 49.2686 28.7514 50.3886H28.3314C7.21477 46.1186 11.6714 13.2186 11.6714 13.2186C18.9981 12.2153 28.5414 6.19531 28.5414 6.19531C28.5414 6.19531 38.0848 12.2153 45.4114 13.2186C45.4114 13.2186 46.6248 22.1086 44.8048 31.2553" stroke="white" stroke-width="3" stroke-linejoin="round"></path><path d="M38.8063 23.9542H32.0163V17.1875H25.0629V23.9542H18.2729V30.9308H25.0629V37.6975H32.0163V30.9308H38.8063V23.9542Z" stroke="white" stroke-width="3" stroke-linecap="round" stroke-linejoin="round"></path></svg> 