<?xml version="1.0" encoding="UTF-8"?> <svg xmlns="http://www.w3.org/2000/svg" width="76" height="53" viewBox="0 0 76 53" fill="none"><g clip-path="url(#clip0_7047_37056)"><path d="M31.7575 5.68176C34.1579 3.18072 37.4997 1.62951 41.1956 1.62951C46.1087 1.62951 50.3952 4.36911 52.6779 8.43611C54.6616 7.54983 56.8573 7.05678 59.1675 7.05678C68.0288 7.05678 75.2129 14.3035 75.2129 23.2422C75.2129 32.1819 68.0288 39.4286 59.1675 39.4286C58.1061 39.4292 57.0473 39.3237 56.007 39.1137C53.9968 42.6993 50.1662 45.122 45.7695 45.122C43.9289 45.122 42.188 44.6969 40.638 43.9409C38.6002 48.7341 33.8525 52.095 28.3192 52.095C22.5569 52.095 17.6459 48.449 15.7609 43.3355C14.9371 43.5104 14.0836 43.6016 13.2078 43.6016C6.34712 43.6017 0.785156 37.9825 0.785156 31.0497C0.785156 26.4038 3.28411 22.3473 6.997 20.1771C6.23261 18.4182 5.80743 16.4769 5.80743 14.4359C5.80743 6.46307 12.2801 0 20.2636 0C24.9509 0 29.1165 2.22859 31.7575 5.68176Z" fill="#00A1E0"></path><path d="M11.5637 27.0204C11.517 27.1424 11.5807 27.1679 11.5955 27.189C11.7354 27.2908 11.8776 27.3641 12.0207 27.4456C12.7798 27.8485 13.4966 27.9661 14.2461 27.9661C15.7728 27.9661 16.7207 27.154 16.7207 25.8467V25.8213C16.7207 24.6126 15.651 24.1737 14.6469 23.8567L14.5165 23.8143C13.7595 23.5683 13.1064 23.3564 13.1064 22.858V22.8316C13.1064 22.4053 13.4881 22.0915 14.0797 22.0915C14.737 22.0915 15.5174 22.3099 16.0199 22.5876C16.0199 22.5876 16.1673 22.6831 16.2213 22.54C16.251 22.4636 16.5055 21.7787 16.532 21.7045C16.5606 21.6239 16.5097 21.5645 16.4578 21.5327C15.8842 21.1839 15.0911 20.9453 14.2706 20.9453L14.1179 20.9464C12.7206 20.9464 11.7452 21.7903 11.7452 23V23.0255C11.7452 24.3009 12.8213 24.7144 13.8296 25.0028L13.9918 25.0526C14.7265 25.2784 15.3595 25.4724 15.3595 25.9899V26.0153C15.3595 26.4882 14.9482 26.8402 14.2844 26.8402C14.0268 26.8402 13.2051 26.8349 12.3177 26.2739C12.2106 26.2114 12.1481 26.1658 12.0654 26.116C12.022 26.0884 11.9127 26.0407 11.865 26.1849L11.5637 27.0204ZM33.9142 27.0204C33.8676 27.1424 33.9312 27.1679 33.946 27.189C34.0859 27.2908 34.2281 27.3641 34.3711 27.4456C35.1302 27.8485 35.8471 27.9661 36.5966 27.9661C38.1233 27.9661 39.0712 27.154 39.0712 25.8467V25.8213C39.0712 24.6126 38.0014 24.1737 36.9973 23.8567L36.867 23.8143C36.1099 23.5683 35.4568 23.3564 35.4568 22.858V22.8316C35.4568 22.4053 35.8385 22.0915 36.4301 22.0915C37.0874 22.0915 37.8677 22.3099 38.3703 22.5876C38.3703 22.5876 38.5177 22.6831 38.5717 22.54C38.6014 22.4636 38.8559 21.7787 38.8824 21.7045C38.9111 21.6239 38.8601 21.5645 38.8082 21.5327C38.2346 21.1839 37.4415 20.9453 36.621 20.9453L36.4682 20.9464C35.0709 20.9464 34.0955 21.7903 34.0955 23V23.0255C34.0955 24.3009 35.1716 24.7144 36.1799 25.0028L36.3421 25.0526C37.0768 25.2784 37.7109 25.4724 37.7109 25.9899V26.0153C37.7109 26.4882 37.2985 26.8402 36.6347 26.8402C36.3772 26.8402 35.5555 26.8349 34.6681 26.2739C34.561 26.2114 34.4974 26.1679 34.4169 26.116C34.3892 26.098 34.2599 26.0481 34.2153 26.1849L33.9142 27.0204ZM49.1723 24.4598C49.1723 25.1988 49.0345 25.7808 48.7631 26.1922C48.4948 26.5994 48.0888 26.7976 47.5227 26.7976C46.9555 26.7976 46.5516 26.6004 46.2875 26.1922C46.0203 25.7819 45.8847 25.1988 45.8847 24.4598C45.8847 23.7219 46.0203 23.1409 46.2875 22.7337C46.5516 22.3309 46.9555 22.1347 47.5227 22.1347C48.0889 22.1347 48.4949 22.3309 48.7642 22.7337C49.0346 23.1408 49.1723 23.7219 49.1723 24.4598ZM50.4468 23.09C50.3216 22.6669 50.1266 22.2937 49.8669 21.9831C49.6071 21.6714 49.2784 21.4212 48.8882 21.2389C48.4991 21.0576 48.039 20.9654 47.5227 20.9654C47.0053 20.9654 46.5452 21.0576 46.156 21.2389C45.7659 21.4212 45.4372 21.6715 45.1764 21.9831C44.9177 22.2948 44.7226 22.668 44.5965 23.09C44.4724 23.5109 44.4099 23.971 44.4099 24.4598C44.4099 24.9486 44.4724 25.4098 44.5965 25.8296C44.7226 26.2516 44.9167 26.6248 45.1775 26.9365C45.4372 27.2482 45.767 27.4973 46.1561 27.6744C46.5462 27.8514 47.0053 27.9415 47.5228 27.9415C48.0391 27.9415 48.4982 27.8514 48.8883 27.6744C49.2774 27.4973 49.6071 27.2481 49.8669 26.9365C50.1266 26.6258 50.3217 26.2526 50.4468 25.8296C50.572 25.4087 50.6345 24.9475 50.6345 24.4598C50.6345 23.9721 50.5719 23.5109 50.4468 23.09ZM60.9119 26.6003C60.8695 26.4762 60.7497 26.5228 60.7497 26.5228C60.5642 26.5939 60.3669 26.6596 60.157 26.6925C59.9439 26.7253 59.7096 26.7423 59.4583 26.7423C58.8413 26.7423 58.3515 26.5589 58.0006 26.1963C57.6485 25.8337 57.4513 25.2474 57.4534 24.4544C57.4556 23.7324 57.6294 23.1895 57.9422 22.7761C58.2529 22.3647 58.7258 22.1537 59.3566 22.1537C59.8825 22.1537 60.2832 22.2141 60.703 22.3466C60.703 22.3466 60.8037 22.3901 60.8514 22.2586C60.9627 21.949 61.0454 21.7274 61.1641 21.3871C61.1981 21.2906 61.1154 21.2493 61.0857 21.2376C60.9203 21.1729 60.5301 21.068 60.2354 21.0235C59.9597 20.9811 59.6374 20.9588 59.2791 20.9588C58.7436 20.9588 58.2665 21.05 57.8584 21.2324C57.4513 21.4136 57.1056 21.6638 56.8321 21.9756C56.5586 22.2873 56.3508 22.6604 56.2119 23.0824C56.0741 23.5033 56.0041 23.9656 56.0041 24.4544C56.0041 25.5114 56.2893 26.3659 56.8523 26.9915C57.4163 27.6192 58.2635 27.9382 59.3683 27.9382C60.0214 27.9382 60.6914 27.8058 61.1728 27.6159C61.1728 27.6159 61.265 27.5714 61.2247 27.4644L60.9119 26.6003ZM63.1417 23.7519C63.2021 23.3416 63.3156 23.0002 63.4905 22.7341C63.7545 22.3302 64.1573 22.1086 64.7236 22.1086C65.2898 22.1086 65.664 22.3312 65.9322 22.7341C66.1104 23.0002 66.1878 23.3565 66.2185 23.7519H63.1417ZM67.4324 22.8496C67.3243 22.4414 67.056 22.0289 66.88 21.8402C66.6022 21.5413 66.3309 21.3324 66.0616 21.2158C65.7095 21.0652 65.2875 20.9656 64.8253 20.9656C64.2868 20.9656 63.798 21.0557 63.4015 21.2423C63.0039 21.4289 62.67 21.6834 62.408 22.0004C62.1461 22.3163 61.949 22.6927 61.8238 23.12C61.6977 23.5451 61.634 24.0085 61.634 24.4971C61.634 24.9944 61.6998 25.4578 61.8302 25.8744C61.9617 26.2943 62.1716 26.6643 62.4557 26.9706C62.7388 27.2792 63.1035 27.521 63.5403 27.6894C63.974 27.857 64.501 27.9439 65.1063 27.9428C66.3521 27.9385 67.0083 27.6608 67.2787 27.5113C67.3265 27.4848 67.372 27.4382 67.3147 27.3046L67.0327 26.5147C66.9904 26.397 66.8705 26.4405 66.8705 26.4405C66.5619 26.555 66.1231 26.7607 65.0999 26.7586C64.4309 26.7575 63.9347 26.5603 63.624 26.2517C63.3049 25.9358 63.149 25.4714 63.1215 24.8162L67.4355 24.8205C67.4355 24.8205 67.5489 24.8184 67.5607 24.708C67.5649 24.6616 67.7092 23.8218 67.4324 22.8496ZM28.5924 23.7519C28.6538 23.3416 28.7663 23.0002 28.9412 22.7341C29.2051 22.3302 29.6081 22.1086 30.1742 22.1086C30.7403 22.1086 31.1146 22.3312 31.3839 22.7341C31.5609 23.0002 31.6383 23.3565 31.6691 23.7519H28.5924ZM32.882 22.8496C32.7739 22.4414 32.5067 22.0289 32.3307 21.8402C32.0529 21.5413 31.7815 21.3324 31.5123 21.2158C31.1602 21.0652 30.7383 20.9656 30.276 20.9656C29.7385 20.9656 29.2487 21.0557 28.8522 21.2423C28.4546 21.4289 28.1206 21.6834 27.8587 22.0004C27.5969 22.3163 27.3997 22.6927 27.2746 23.12C27.1495 23.5451 27.0848 24.0085 27.0848 24.4971C27.0848 24.9944 27.1505 25.4578 27.281 25.8744C27.4125 26.2943 27.6224 26.6643 27.9065 26.9706C28.1896 27.2792 28.5543 27.521 28.9911 27.6894C29.4248 27.857 29.9517 27.9439 30.5571 27.9428C31.8028 27.9385 32.4591 27.6608 32.7295 27.5113C32.7772 27.4848 32.8228 27.4382 32.7655 27.3046L32.4846 26.5147C32.4411 26.397 32.3214 26.4405 32.3214 26.4405C32.0128 26.555 31.5749 26.7607 30.5497 26.7586C29.8818 26.7575 29.3856 26.5603 29.0749 26.2517C28.7558 25.9358 28.6 25.4714 28.5723 24.8162L32.8864 24.8205C32.8864 24.8205 32.9998 24.8184 33.0115 24.708C33.0156 24.6616 33.1597 23.8218 32.882 22.8496ZM19.2676 26.5766C19.099 26.4419 19.0757 26.408 19.0185 26.3211C18.9336 26.1886 18.8902 25.9998 18.8902 25.7602C18.8902 25.3807 19.0153 25.1082 19.275 24.9248C19.2719 24.9259 19.6461 24.6014 20.5261 24.6131C21.1442 24.6216 21.6965 24.7127 21.6965 24.7127V26.6742H21.6976C21.6976 26.6742 21.1494 26.7918 20.5324 26.8289C19.6546 26.8819 19.2644 26.5756 19.2676 26.5766ZM20.984 23.5454C20.8091 23.5327 20.5822 23.5253 20.3108 23.5253C19.9408 23.5253 19.5835 23.5719 19.2484 23.662C18.9113 23.7521 18.6081 23.8932 18.3473 24.0797C18.0868 24.2656 17.8728 24.509 17.7217 24.7911C17.5691 25.0753 17.4917 25.4103 17.4917 25.7857C17.4917 26.1673 17.5574 26.4992 17.6889 26.7706C17.8204 27.0431 18.0101 27.27 18.2518 27.445C18.4914 27.6199 18.7873 27.7481 19.1307 27.8255C19.469 27.9029 19.8527 27.9421 20.2726 27.9421C20.7147 27.9421 21.1558 27.9061 21.583 27.8329C22.0061 27.7608 22.5256 27.6558 22.6697 27.623C22.7708 27.5987 22.8716 27.5729 22.9719 27.5456C23.0791 27.5192 23.0706 27.4046 23.0706 27.4046L23.0684 23.4595C23.0684 22.5943 22.8373 21.9529 22.3825 21.5553C21.9297 21.1588 21.2628 20.9584 20.4009 20.9584C20.0775 20.9584 19.557 21.003 19.2452 21.0655C19.2452 21.0655 18.3027 21.2479 17.9146 21.5511C17.9146 21.5511 17.8298 21.6041 17.8765 21.7229L18.1819 22.5435C18.22 22.6496 18.3229 22.6135 18.3229 22.6135C18.3229 22.6135 18.3558 22.6008 18.394 22.5785C19.2242 22.1268 20.2737 22.1406 20.2737 22.1406C20.7403 22.1406 21.0986 22.2339 21.3403 22.4194C21.5757 22.5996 21.6955 22.8721 21.6955 23.4467V23.6291C21.3244 23.5761 20.984 23.5454 20.984 23.5454ZM55.7788 21.3226C55.8115 21.225 55.7427 21.1784 55.714 21.1678C55.6409 21.1392 55.2741 21.0618 54.991 21.0437C54.4493 21.0109 54.1482 21.1021 53.8788 21.2229C53.6116 21.3438 53.3148 21.5388 53.1493 21.7604V21.2356C53.1493 21.1625 53.0974 21.1042 53.0253 21.1042H51.9195C51.8474 21.1042 51.7955 21.1624 51.7955 21.2356V27.6701C51.7955 27.7422 51.8549 27.8016 51.9269 27.8016H53.0603C53.095 27.8014 53.1282 27.7875 53.1527 27.7628C53.1771 27.7382 53.1908 27.7048 53.1907 27.6701V24.4556C53.1907 24.024 53.2385 23.5936 53.3339 23.3233C53.4272 23.056 53.5544 22.8419 53.7113 22.6881C53.8693 22.5355 54.0484 22.4284 54.2446 22.368C54.4449 22.3065 54.6665 22.2864 54.8235 22.2864C55.0493 22.2864 55.2974 22.3446 55.2974 22.3446C55.38 22.3542 55.4267 22.3033 55.4542 22.228C55.5285 22.0308 55.7384 21.4402 55.7788 21.3226Z" fill="white"></path><path d="M45.1418 18.3416C45.004 18.2992 44.8789 18.2706 44.7156 18.2399C44.5501 18.2102 44.353 18.1953 44.1293 18.1953C43.3489 18.1953 42.7339 18.4158 42.3025 18.8505C41.8731 19.2831 41.5815 19.9415 41.4351 20.8077L41.3821 21.0993H40.4025C40.4025 21.0993 40.2838 21.095 40.2583 21.2244L40.0983 22.1224C40.0866 22.2073 40.1238 22.2613 40.2382 22.2613H41.1914L40.2244 27.6599C40.1491 28.0946 40.0621 28.452 39.9657 28.7233C39.8713 28.9905 39.7791 29.1909 39.6646 29.3372C39.5543 29.4772 39.4504 29.581 39.2701 29.6415C39.1217 29.6913 38.95 29.7146 38.7623 29.7146C38.6584 29.7146 38.5196 29.6976 38.4167 29.6764C38.3149 29.6562 38.2608 29.634 38.1834 29.6011C38.1834 29.6011 38.0721 29.5588 38.0276 29.6701C37.9925 29.7623 37.7381 30.4609 37.7074 30.5469C37.6777 30.6327 37.7201 30.6995 37.7741 30.7197C37.9014 30.7642 37.9957 30.7939 38.1685 30.8352C38.4082 30.8915 38.6106 30.8946 38.8004 30.8946C39.1969 30.8946 39.5595 30.8384 39.8596 30.7303C40.1607 30.6211 40.4236 30.4313 40.6568 30.1748C40.9081 29.8969 41.0661 29.6064 41.2167 29.2089C41.3662 28.8166 41.4945 28.3289 41.5962 27.7607L42.5685 22.2613H43.9892C43.9892 22.2613 44.1089 22.2655 44.1334 22.1351L44.2945 21.2382C44.3051 21.1524 44.2691 21.0993 44.1534 21.0993H42.7741C42.7816 21.0686 42.8441 20.583 43.0021 20.1261C43.07 19.9321 43.1971 19.7741 43.3043 19.6659C43.4104 19.5599 43.5322 19.4846 43.6659 19.4411C43.8026 19.3966 43.9585 19.3754 44.1292 19.3754C44.2586 19.3754 44.3868 19.3903 44.4833 19.4104C44.6168 19.4391 44.6688 19.4539 44.7039 19.4645C44.8449 19.5069 44.8639 19.4656 44.8915 19.3978L45.2213 18.4924C45.2552 18.3946 45.1714 18.3533 45.1418 18.3416ZM25.8695 27.6716C25.8695 27.7437 25.8176 27.8021 25.7455 27.8021H24.6015C24.5294 27.8021 24.4785 27.7437 24.4785 27.6716V18.4646C24.4785 18.3926 24.5294 18.3343 24.6015 18.3343H25.7455C25.8176 18.3343 25.8695 18.3926 25.8695 18.4646V27.6716Z" fill="white"></path></g><defs><clipPath id="clip0_7047_37056"><rect width="74.4277" height="52.0994" fill="white" transform="translate(0.785156)"></rect></clipPath></defs></svg> 