<?xml version="1.0" encoding="UTF-8"?> <svg xmlns="http://www.w3.org/2000/svg" width="103" height="18" viewBox="0 0 103 18" fill="none"><g clip-path="url(#clip0_746_849)"><path fill-rule="evenodd" clip-rule="evenodd" d="M21.0078 4.02825H17.606V12.0668L14.6362 4.02659H11.6898L9.15185 10.7527C8.88232 9.0566 7.11783 8.4707 5.72917 8.03212C4.8126 7.73917 3.83995 7.30891 3.84832 6.83287C3.85586 6.44255 4.37064 6.08386 5.38849 6.13463C6.07319 6.17042 6.6767 6.22451 7.87787 6.80041L9.05978 4.75396C7.96408 4.19886 6.44819 3.84849 5.20936 3.84766H5.20099C3.75374 3.84766 2.54672 4.31371 1.7984 5.08269C1.28026 5.61116 0.988134 6.31855 0.983112 7.05674C0.96386 8.09454 1.34723 8.83106 2.15498 9.41778C2.83466 9.91712 3.70351 10.235 4.46941 10.4706C5.4136 10.761 6.18368 11.014 6.17531 11.5525C6.16945 11.7505 6.0891 11.9386 5.95098 12.0809C5.71661 12.3223 5.35417 12.4138 4.85445 12.4221C3.89101 12.4421 3.18036 12.2923 2.03779 11.624L0.983112 13.6996C2.15749 14.3621 3.48337 14.7124 4.83353 14.7174H5.01014C6.20377 14.6958 7.16805 14.3579 7.93981 13.7412C7.98333 13.7054 8.02351 13.6705 8.06453 13.6339L7.72301 14.5402H10.8126L11.3307 12.9722C12.4967 13.3484 13.7514 13.3542 14.9208 12.9872L15.423 14.5402H20.4637V11.2945H21.5619C24.2204 11.2945 25.7915 9.94875 25.7915 7.6934C25.7915 5.18256 24.2647 4.03158 21.0128 4.03158M13.1446 10.91C12.7738 10.9116 12.4046 10.8484 12.0564 10.7211L13.1395 7.33804H13.1596L14.2193 10.7302C13.8761 10.8501 13.5154 10.9108 13.1513 10.91M21.2137 8.96671H20.4604V6.24115H21.2137C22.2131 6.24115 23.0108 6.57405 23.0108 7.58604C23.0108 8.59804 22.2131 8.96671 21.2137 8.96671Z" fill="#FCA700"></path><path d="M25.5098 3.1128C25.5174 2.61512 25.93 2.21815 26.4306 2.22564C26.9311 2.23313 27.3304 2.64342 27.3229 3.14109C27.3153 3.63877 26.9027 4.03574 26.4021 4.02825C25.9125 4.02076 25.5174 3.62795 25.5098 3.14109V3.1128ZM26.4105 4.2155C27.024 4.20884 27.5162 3.70867 27.5095 3.09865C27.5028 2.48862 26.9998 1.99927 26.3862 2.00593C25.7727 2.01258 25.2805 2.51276 25.2872 3.12278C25.2939 3.72365 25.7819 4.20968 26.3862 4.2155H26.4105ZM26.1761 3.20018H26.3988L26.7336 3.74862H26.9529L26.5871 3.19103C26.7763 3.16939 26.9219 3.06869 26.9219 2.83982C26.9219 2.59015 26.7721 2.48113 26.4716 2.48113H25.9869V3.74862H26.1786L26.1761 3.20018ZM26.1761 3.03373V2.64092H26.4398C26.5729 2.64092 26.7152 2.66922 26.7152 2.82651C26.7152 3.02458 26.5704 3.03373 26.4088 3.03373H26.1761Z" fill="#FCA700"></path><path d="M36.4306 11.4186H33.9655L33.4315 13.1105H31.9248L34.3606 6.1356H36.0858L38.5266 13.1105H36.9655L36.4306 11.4186ZM34.2819 10.3267H36.1142L35.2152 7.46967H35.1809L34.2819 10.3267ZM39.1192 7.92906H40.4895V8.86199H40.5188C40.8151 8.19621 41.3449 7.85166 42.1477 7.85166C43.3045 7.85166 43.9557 8.57654 43.9557 9.78993V13.1105H42.5327V10.0845C42.5327 9.40794 42.2171 9.02095 41.5701 9.02095C40.9231 9.02095 40.5347 9.48534 40.5347 10.1619V13.1105H39.1192V7.92906ZM44.6412 11.6167C44.6412 10.6746 45.3703 10.1378 46.7079 10.0604L47.9961 9.98301V9.64512C47.9961 9.1566 47.6554 8.89112 47.1013 8.89112C46.6099 8.89112 46.2601 9.14745 46.1973 9.51946H44.904C44.9426 8.52078 45.8424 7.83752 47.1641 7.83752C48.4858 7.83752 49.3906 8.52328 49.3906 9.55774V13.1105H48.0204V12.3166H47.9911C47.704 12.8584 47.062 13.1871 46.4007 13.1871C45.3996 13.1871 44.6412 12.5446 44.6412 11.6167ZM47.9961 11.2106V10.8385L46.9213 10.906C46.3572 10.9451 46.0558 11.1723 46.0558 11.5393C46.0558 11.9063 46.3773 12.1626 46.8678 12.1626C47.4947 12.1626 47.9961 11.7665 47.9961 11.2106ZM50.339 6.1356H51.762V13.1105H50.339V6.1356ZM52.8476 15.0147V13.927C52.8912 13.932 53.1054 13.9369 53.154 13.9369C53.6738 13.9369 53.9751 13.763 54.0747 13.3619L54.1283 13.1438L52.3077 7.92906H53.868L54.9762 11.9837H55.0013L56.1096 7.93322H57.6062L55.8124 13.2262C55.3655 14.5578 54.7042 15.0288 53.385 15.0288C53.3339 15.0288 52.8912 15.0247 52.8476 15.0147ZM59.9207 6.73564V7.92906H60.8833V8.99265H59.9207V11.4669C59.9207 11.863 60.1149 12.0569 60.5334 12.0569C60.6489 12.0569 60.7644 12.0494 60.8783 12.0328V13.0714C60.6556 13.1114 60.4296 13.1313 60.2028 13.1297C58.9773 13.1297 58.501 12.7186 58.501 11.7091V8.99265H57.7669V7.92906H58.501V6.73564H59.9207ZM61.6366 6.62912C61.6232 6.213 61.9513 5.8643 62.3707 5.85098C62.7892 5.83766 63.14 6.1639 63.1533 6.58085C63.1667 6.99696 62.8386 7.34567 62.4193 7.35898C62.4109 7.35898 62.4033 7.35898 62.395 7.35898C61.9882 7.37063 61.6492 7.05272 61.6366 6.64826C61.6366 6.6416 61.6366 6.63494 61.6366 6.62912ZM61.6885 7.92906H63.1115V13.1105H61.6885V7.92906ZM67.4641 9.85734C67.3905 9.31639 67.0163 8.94189 66.4287 8.94189C65.7331 8.94189 65.2953 9.53111 65.2953 10.5123C65.2953 11.4935 65.7331 12.0936 66.4329 12.0936C67.0071 12.0936 67.3813 11.7748 67.4641 11.2089H68.7858C68.708 12.4273 67.799 13.2004 66.4187 13.2004C64.8534 13.2004 63.8565 12.1851 63.8565 10.5131C63.8565 8.84119 64.8534 7.83585 66.4086 7.83585C67.8182 7.83585 68.718 8.68639 68.7808 9.85568L67.4641 9.85734ZM71.5832 7.83752C72.8857 7.83752 73.7462 8.48999 73.7596 9.49033H72.4529C72.4287 9.0842 72.0888 8.82454 71.564 8.82454C71.0777 8.82454 70.7521 9.04259 70.7521 9.37132C70.7521 9.62099 70.9755 9.78744 71.4326 9.89812L72.4287 10.1103C73.4741 10.3425 73.8968 10.7487 73.8968 11.5168C73.8968 12.5321 72.9535 13.1988 71.5782 13.1988C70.203 13.1988 69.3274 12.533 69.2546 11.5343H70.6399C70.7035 11.9646 71.0534 12.2117 71.6167 12.2117C72.1801 12.2117 72.4822 12.0037 72.4822 11.6699C72.4822 11.4136 72.3073 11.2738 71.841 11.1623L70.8784 10.9501C69.8916 10.7279 69.3893 10.2202 69.3893 9.4612C69.3893 8.48 70.2465 7.83752 71.5832 7.83752ZM76.4741 9.62099C76.4741 7.37396 77.7623 6.01493 79.7938 6.01493C81.4805 6.01493 82.7645 7.07852 82.8758 8.63979H81.447C81.3106 7.78425 80.6493 7.22499 79.7938 7.22499C78.6856 7.22499 77.9707 8.14794 77.9707 9.61766C77.9707 11.0874 78.6755 12.0245 79.7989 12.0245C80.6685 12.0245 81.2963 11.5168 81.4512 10.6929H82.8809C82.7135 12.2492 81.5148 13.2354 79.7938 13.2354C77.7523 13.232 76.4741 11.873 76.4741 9.62099ZM83.6978 6.1356H85.1208V13.1105H83.6978V6.1356ZM85.885 10.5148C85.885 8.857 86.8895 7.83752 88.4665 7.83752C90.0435 7.83752 91.0479 8.85201 91.0479 10.5148C91.0479 12.1776 90.056 13.2021 88.4665 13.2021C86.8769 13.2021 85.885 12.1967 85.885 10.5148ZM89.604 10.5198C89.604 9.50947 89.1763 8.91526 88.4665 8.91526C87.7567 8.91526 87.3239 9.51446 87.3239 10.5198C87.3239 11.5251 87.7516 12.1243 88.4665 12.1243C89.1813 12.1243 89.604 11.5393 89.604 10.5198ZM96.5934 13.1105H95.2223V12.1676H95.193C94.931 12.8201 94.4204 13.1879 93.6327 13.1879C92.5052 13.1879 91.7561 12.4581 91.7561 11.2497V7.92906H93.179V10.9551C93.179 11.6458 93.5239 12.0128 94.1517 12.0128C94.7795 12.0128 95.1704 11.5676 95.1704 10.8777V7.92906H96.5934V13.1105ZM97.3241 10.5098C97.3241 8.88613 98.1611 7.86664 99.4586 7.86664C100.212 7.86664 100.79 8.24365 101.049 8.81872H101.077V6.1356H102.5V13.1105H101.097V12.2209H101.072C100.821 12.791 100.217 13.173 99.4485 13.173C98.1553 13.173 97.3241 12.1501 97.3241 10.5098ZM98.7772 10.5198C98.7772 11.4527 99.225 12.037 99.9298 12.037C100.635 12.037 101.087 11.4477 101.087 10.5198C101.087 9.59186 100.635 9.00181 99.9298 9.00181C99.225 9.00181 98.7772 9.59186 98.7772 10.5198Z" fill="#999999"></path></g><defs><clipPath id="clip0_746_849"><rect width="102" height="17" fill="white" transform="translate(0.5 0.832031)"></rect></clipPath></defs></svg> 