<?xml version="1.0" encoding="UTF-8"?> <svg xmlns="http://www.w3.org/2000/svg" width="102" height="17" viewBox="0 0 102 17" fill="none"><g clip-path="url(#clip0_747_859)"><path fill-rule="evenodd" clip-rule="evenodd" d="M20.5078 3.19622H17.106V11.2347L14.1362 3.19455H11.1898L8.65185 9.92065C8.38232 8.22456 6.61783 7.63867 5.22917 7.20009C4.3126 6.90714 3.33995 6.47688 3.34832 6.00084C3.35586 5.61052 3.87064 5.25183 4.88849 5.3026C5.57319 5.33838 6.1767 5.39248 7.37787 5.96838L8.55978 3.92193C7.46408 3.36683 5.94819 3.01646 4.70936 3.01562H4.70099C3.25374 3.01562 2.04672 3.48167 1.2984 4.25066C0.780264 4.77912 0.488134 5.48652 0.483112 6.22471C0.46386 7.2625 0.847227 7.99903 1.65498 8.58575C2.33466 9.08509 3.20351 9.403 3.96941 9.63853C4.9136 9.92897 5.68368 10.182 5.67531 10.7204C5.66945 10.9185 5.5891 11.1066 5.45098 11.2489C5.21661 11.4902 4.85417 11.5818 4.35445 11.5901C3.39101 11.6101 2.68036 11.4603 1.53779 10.792L0.483112 12.8676C1.65749 13.53 2.98337 13.8804 4.33353 13.8854H4.51014C5.70377 13.8638 6.66805 13.5259 7.43981 12.9092C7.48333 12.8734 7.52351 12.8385 7.56453 12.8018L7.22301 13.7081H10.3126L10.8307 12.1402C11.9967 12.5164 13.2514 12.5222 14.4208 12.1552L14.923 13.7081H19.9637V10.4624H21.0619C23.7204 10.4624 25.2915 9.11672 25.2915 6.86137C25.2915 4.35052 23.7647 3.19955 20.5128 3.19955M12.6446 10.0779C12.2738 10.0796 11.9046 10.0164 11.5564 9.88903L12.6395 6.50601H12.6596L13.7193 9.89818C13.3761 10.018 13.0154 10.0788 12.6513 10.0779M20.7137 8.13468H19.9604V5.40912H20.7137C21.7131 5.40912 22.5108 5.74202 22.5108 6.75401C22.5108 7.766 21.7131 8.13468 20.7137 8.13468Z" fill="white"></path><path d="M25.0098 2.28076C25.0174 1.78309 25.43 1.38611 25.9306 1.3936C26.4311 1.40109 26.8304 1.81138 26.8229 2.30906C26.8153 2.80673 26.4027 3.20371 25.9021 3.19622C25.4125 3.18873 25.0174 2.79591 25.0098 2.30906V2.28076ZM25.9105 3.38347C26.524 3.37681 27.0162 2.87664 27.0095 2.26662C27.0028 1.65659 26.4998 1.16724 25.8862 1.1739C25.2727 1.18055 24.7805 1.68072 24.7872 2.29075C24.7939 2.89162 25.2819 3.37765 25.8862 3.38347H25.9105ZM25.6761 2.36815H25.8988L26.2336 2.91659H26.4529L26.0871 2.35899C26.2763 2.33736 26.4219 2.23666 26.4219 2.00779C26.4219 1.75812 26.2721 1.6491 25.9716 1.6491H25.4869V2.91659H25.6786L25.6761 2.36815ZM25.6761 2.2017V1.80889H25.9398C26.0729 1.80889 26.2152 1.83718 26.2152 1.99448C26.2152 2.19255 26.0704 2.2017 25.9088 2.2017H25.6761Z" fill="white"></path><path d="M35.9306 10.5866H33.4655L32.9315 12.2785H31.4248L33.8606 5.30357H35.5858L38.0266 12.2785H36.4655L35.9306 10.5866ZM33.7819 9.49469H35.6142L34.7152 6.63764H34.6809L33.7819 9.49469ZM38.6192 7.09703H39.9895V8.02996H40.0188C40.3151 7.36418 40.8449 7.01963 41.6477 7.01963C42.8045 7.01963 43.4557 7.74451 43.4557 8.9579V12.2785H42.0327V9.25251C42.0327 8.57591 41.7171 8.18892 41.0701 8.18892C40.4231 8.18892 40.0347 8.6533 40.0347 9.32991V12.2785H38.6192V7.09703ZM44.1412 10.7846C44.1412 9.84256 44.8703 9.30577 46.2079 9.22838L47.4961 9.15098V8.81309C47.4961 8.32457 47.1554 8.05909 46.6013 8.05909C46.1099 8.05909 45.7601 8.31542 45.6973 8.68743H44.404C44.4426 7.68875 45.3424 7.00549 46.6641 7.00549C47.9858 7.00549 48.8906 7.69124 48.8906 8.72571V12.2785H47.5204V11.4846H47.4911C47.204 12.0263 46.562 12.3551 45.9007 12.3551C44.8996 12.3551 44.1412 11.7126 44.1412 10.7846ZM47.4961 10.3785V10.0065L46.4213 10.0739C45.8572 10.113 45.5558 10.3402 45.5558 10.7073C45.5558 11.0743 45.8773 11.3306 46.3678 11.3306C46.9947 11.3306 47.4961 10.9345 47.4961 10.3785ZM49.839 5.30357H51.262V12.2785H49.839V5.30357ZM52.3476 14.1827V13.0949C52.3912 13.0999 52.6054 13.1049 52.654 13.1049C53.1738 13.1049 53.4751 12.931 53.5747 12.5298L53.6283 12.3118L51.8077 7.09703H53.368L54.4762 11.1517H54.5013L55.6096 7.10119H57.1062L55.3124 12.3942C54.8655 13.7258 54.2042 14.1968 52.885 14.1968C52.8339 14.1968 52.3912 14.1926 52.3476 14.1827ZM59.4207 5.90361V7.09703H60.3833V8.16062H59.4207V10.6348C59.4207 11.031 59.6149 11.2249 60.0334 11.2249C60.1489 11.2249 60.2644 11.2174 60.3783 11.2008V12.2394C60.1556 12.2793 59.9296 12.2993 59.7028 12.2976C58.4773 12.2976 58.001 11.8865 58.001 10.877V8.16062H57.2669V7.09703H58.001V5.90361H59.4207ZM61.1366 5.79709C61.1232 5.38097 61.4513 5.03226 61.8707 5.01895C62.2892 5.00563 62.64 5.33187 62.6533 5.74882C62.6667 6.16493 62.3386 6.51364 61.9193 6.52695C61.9109 6.52695 61.9033 6.52695 61.895 6.52695C61.4882 6.5386 61.1492 6.22069 61.1366 5.81623C61.1366 5.80957 61.1366 5.80291 61.1366 5.79709ZM61.1885 7.09703H62.6115V12.2785H61.1885V7.09703ZM66.9641 9.02531C66.8905 8.48436 66.5163 8.10986 65.9287 8.10986C65.2331 8.10986 64.7953 8.69908 64.7953 9.68028C64.7953 10.6615 65.2331 11.2615 65.9329 11.2615C66.5071 11.2615 66.8813 10.9428 66.9641 10.3769H68.2858C68.208 11.5952 67.299 12.3684 65.9187 12.3684C64.3534 12.3684 63.3565 11.3531 63.3565 9.68111C63.3565 8.00916 64.3534 7.00382 65.9086 7.00382C67.3182 7.00382 68.218 7.85436 68.2808 9.02365L66.9641 9.02531ZM71.0832 7.00549C72.3857 7.00549 73.2462 7.65796 73.2596 8.6583H71.9529C71.9287 8.25217 71.5888 7.99251 71.064 7.99251C70.5777 7.99251 70.2521 8.21056 70.2521 8.53929C70.2521 8.78896 70.4755 8.95541 70.9326 9.06609L71.9287 9.27831C72.9741 9.5105 73.3968 9.91663 73.3968 10.6848C73.3968 11.7001 72.4535 12.3667 71.0782 12.3667C69.703 12.3667 68.8274 11.7009 68.7546 10.7023H70.1399C70.2035 11.1325 70.5534 11.3797 71.1167 11.3797C71.6801 11.3797 71.9822 11.1716 71.9822 10.8379C71.9822 10.5816 71.8073 10.4418 71.341 10.3303L70.3784 10.118C69.3916 9.89583 68.8893 9.38817 68.8893 8.62917C68.8893 7.64797 69.7465 7.00549 71.0832 7.00549ZM75.9741 8.78896C75.9741 6.54193 77.2623 5.1829 79.2938 5.1829C80.9805 5.1829 82.2645 6.24649 82.3758 7.80776H80.947C80.8106 6.95222 80.1493 6.39296 79.2938 6.39296C78.1856 6.39296 77.4707 7.31591 77.4707 8.78563C77.4707 10.2554 78.1755 11.1924 79.2989 11.1924C80.1685 11.1924 80.7963 10.6848 80.9512 9.86087H82.3809C82.2135 11.4171 81.0148 12.4033 79.2938 12.4033C77.2523 12.4 75.9741 11.041 75.9741 8.78896ZM83.1978 5.30357H84.6208V12.2785H83.1978V5.30357ZM85.385 9.68278C85.385 8.02497 86.3895 7.00549 87.9665 7.00549C89.5435 7.00549 90.5479 8.01998 90.5479 9.68278C90.5479 11.3456 89.556 12.3701 87.9665 12.3701C86.3769 12.3701 85.385 11.3647 85.385 9.68278ZM89.104 9.68777C89.104 8.67744 88.6763 8.08323 87.9665 8.08323C87.2567 8.08323 86.8239 8.68243 86.8239 9.68777C86.8239 10.6931 87.2516 11.2923 87.9665 11.2923C88.6813 11.2923 89.104 10.7073 89.104 9.68777ZM96.0934 12.2785H94.7223V11.3356H94.693C94.431 11.9881 93.9204 12.3559 93.1327 12.3559C92.0052 12.3559 91.2561 11.626 91.2561 10.4176V7.09703H92.679V10.123C92.679 10.8138 93.0239 11.1808 93.6517 11.1808C94.2795 11.1808 94.6704 10.7355 94.6704 10.0456V7.09703H96.0934V12.2785ZM96.8241 9.67778C96.8241 8.0541 97.6611 7.03461 98.9586 7.03461C99.7119 7.03461 100.29 7.41161 100.549 7.98669H100.577V5.30357H102V12.2785H100.597V11.3889H100.572C100.321 11.9589 99.7169 12.3409 98.9485 12.3409C97.6553 12.3409 96.8241 11.3181 96.8241 9.67778ZM98.2772 9.68777C98.2772 10.6207 98.725 11.2049 99.4298 11.2049C100.135 11.2049 100.587 10.6157 100.587 9.68777C100.587 8.75983 100.135 8.16978 99.4298 8.16978C98.725 8.16978 98.2772 8.75983 98.2772 9.68777Z" fill="white"></path></g><defs><clipPath id="clip0_747_859"><rect width="102" height="17" fill="white"></rect></clipPath></defs></svg> 