<?xml version="1.0" encoding="UTF-8"?> <svg xmlns="http://www.w3.org/2000/svg" width="40" height="40" viewBox="0 0 40 40" fill="none"><g id="Frame 1973341387"><path id="Vector" d="M32.0042 33.6517C29.9689 35.1376 27.3753 35.714 24.8177 34.9935H24.7817C23.638 30.3196 26.0155 25.4925 30.2751 23.8535L38.002 20.8906L36.1558 26.4471" stroke="#00877B" stroke-width="2" stroke-linejoin="round"></path><path id="Vector_2" d="M22.7014 37.9996L29.906 29.8945" stroke="#00877B" stroke-width="2" stroke-linejoin="round"></path><path id="Vector_3" d="M15.1731 34.9935H15.2091C16.3528 30.3196 13.9753 25.4925 9.71563 23.8535L1.98877 20.8906L4.70848 29.0858C6.23044 33.6517 10.7693 36.2273 15.1731 34.9935Z" stroke="#00877B" stroke-width="2" stroke-linejoin="round"></path><path id="Vector_4" d="M10.0935 29.8945L17.298 37.9996" stroke="#00877B" stroke-width="2" stroke-linejoin="round"></path><path id="Vector_5" d="M20.3061 20.8795H20.3422C23.4221 17.4123 23.4941 12.0179 20.5133 8.44263L15.0919 1.97656L13.8131 10.4689C13.0926 15.2059 15.9204 19.7267 20.3151 20.8795H20.3061Z" stroke="#00877B" stroke-width="2" stroke-linejoin="round"></path><path id="Vector_6" d="M18.1987 13.6875L21.801 24.4943" stroke="#00877B" stroke-width="2" stroke-linejoin="round"></path><path id="Vector_7" d="M36.0209 26.9023L35.4265 28.5774" stroke="#FFC100" stroke-width="2" stroke-miterlimit="10"></path><path id="Vector_8" d="M35.1836 29.1875C35.0575 29.4667 34.5352 30.5654 34.3821 30.8626" stroke="#FFC100" stroke-width="2" stroke-miterlimit="10"></path><path id="Vector_9" d="M32.5176 33.344C33.0669 32.9027 33.9135 31.75 34.1116 31.4258" stroke="#FFC100" stroke-width="2" stroke-miterlimit="10"></path></g></svg> 