<?xml version="1.0" encoding="UTF-8"?> <svg xmlns="http://www.w3.org/2000/svg" width="58" height="44" viewBox="0 0 58 44" fill="none"><path d="M56 27C56 25.5768 55.64 24.2291 55 23" stroke="#FFC100" stroke-width="3" stroke-miterlimit="10"></path><path d="M54 33C55.0851 31.5849 55.8085 29.8658 56 28" stroke="#FFC100" stroke-width="3" stroke-miterlimit="10"></path><path d="M47 37C49.3603 36.7692 51.4727 35.6555 53 34" stroke="#FFC100" stroke-width="3" stroke-miterlimit="10"></path><path d="M36.469 42L41.785 36.7085H17.067H17.6577H14.1838C7.45616 36.7085 2 31.2775 2 24.5909C2 17.9043 7.45616 12.4634 14.1838 12.4634C15.3851 12.4634 16.5465 12.6428 17.6577 12.9616C19.1094 6.68361 24.7457 2 31.4934 2C39.3423 2 45.7095 8.32786 45.7095 16.1405C45.7095 16.6786 45.6694 17.1968 45.6194 17.715C45.8897 17.6951 46.16 17.6751 46.4303 17.6751C50.1845 17.6751 53.4382 19.8276 55 22.9666" stroke="white" stroke-width="3" stroke-linejoin="round"></path><path d="M40 28H16L21.9684 22" stroke="white" stroke-width="3" stroke-linejoin="round"></path></svg> 