<?xml version="1.0" encoding="UTF-8"?> <svg xmlns="http://www.w3.org/2000/svg" width="56" height="56" viewBox="0 0 56 56" fill="none"><g id="Unwavering customer supportsandy" clip-path="url(#clip0_5028_48013)"><g id="Group"><path id="Vector" d="M42.5835 23.4709C42.5835 23.4709 43.0501 24.4275 43.0501 24.6609C43.0501 24.6609 46.7135 25.8742 47.0168 25.9675C47.3201 26.0609 47.6235 26.3175 47.6935 26.9009C47.7635 27.4842 47.9968 30.6575 47.6701 32.6175C47.6701 32.6175 47.7635 33.1542 46.9001 33.4342C46.0368 33.7142 43.2368 34.4842 43.1435 34.6009C43.0501 34.7175 42.4435 37.2609 41.7435 37.8209L43.6101 41.4609C43.6101 41.4609 43.9601 41.9742 43.5401 42.5109C43.1201 43.0475 41.7901 45.0309 39.3635 46.6875C39.3635 46.6875 39.1768 47.1775 38.2201 46.6875C37.2635 46.1975 34.7668 44.8675 34.7668 44.8675C34.7668 44.8675 33.5068 45.7775 31.5235 46.1975L30.2635 50.1642C30.2635 50.1642 30.1935 50.7242 29.4001 50.7942C28.6068 50.8642 25.8068 51.1909 23.3568 50.7242C23.3568 50.7242 23.0068 50.7942 22.7501 50.0009C22.4935 49.2075 21.7001 46.4542 21.7001 46.4542C21.7001 46.4542 21.6535 46.2675 21.2335 46.1275C20.8135 45.9875 19.5768 45.5209 18.5268 44.9609C18.5268 44.9609 18.4101 44.7742 18.0601 44.9609C17.7101 45.1475 15.4001 46.4542 14.4435 46.8742C14.4435 46.8742 14.1868 47.0142 13.7201 46.6409C13.2535 46.2675 11.3635 44.9142 9.52015 42.3942C9.52015 42.3942 9.21681 41.9742 9.47348 41.5309C9.73015 41.0875 11.4101 37.8442 11.4101 37.8442C11.4101 37.8442 10.6401 36.6542 10.0101 34.5775L5.92681 33.3409C5.92681 33.3409 5.57681 33.2475 5.46015 32.5709C5.34348 31.8942 5.08681 30.4475 5.46015 26.5975C5.46015 26.5975 5.46015 26.1775 6.23015 25.9209C7.00015 25.6642 10.0335 24.7075 10.0335 24.7075C10.0335 24.7075 10.3835 22.8875 11.4101 21.4175C11.4101 21.4175 10.0801 18.9675 9.42681 17.7309C9.42681 17.7309 9.03015 17.4509 9.59015 16.7742C10.1501 16.0975 10.9668 14.9309 13.3001 12.9942L13.8835 12.5275C13.8835 12.5275 14.1868 12.2475 14.7235 12.5975C15.2601 12.9475 18.2935 14.4175 18.2935 14.4175C18.2935 14.4175 20.2068 13.4142 21.5601 13.1575L22.8435 9.12086C22.8435 9.12086 22.9601 8.67752 23.5201 8.58419C24.0801 8.49086 26.6935 8.16419 29.5168 8.58419C29.5168 8.58419 29.9835 8.56086 30.2401 9.21419C30.4968 9.86752 31.3601 12.9009 31.3601 12.9009C31.3601 12.9009 31.3835 13.1809 31.8035 13.2509C32.2235 13.3209 32.8535 13.5542 32.8535 13.5542" stroke="white" stroke-width="3" stroke-linecap="round" stroke-linejoin="round"></path><path id="Vector_2" d="M26.5537 40.7606C20.4403 40.7606 15.4937 35.814 15.4937 29.7006C15.4937 23.5873 20.4403 18.6406 26.5537 18.6406C27.067 18.6406 27.557 18.664 28.047 18.734" stroke="white" stroke-width="3" stroke-linejoin="round"></path><path id="Vector_3" d="M30.9401 39.8516C29.8201 40.3416 28.6301 40.6449 27.3701 40.7382" stroke="#FFC100" stroke-width="3" stroke-miterlimit="10"></path><path id="Vector_4" d="M33.7167 38.125C33.0867 38.6617 32.3634 39.1517 31.6167 39.525" stroke="#FFC100" stroke-width="3" stroke-miterlimit="10"></path><path id="Vector_5" d="M35.6068 36.0508C35.2335 36.5874 34.8135 37.0774 34.3701 37.5208" stroke="#FFC100" stroke-width="3" stroke-miterlimit="10"></path><path id="Vector_6" d="M37.5427 28.3945C37.5893 28.8145 37.6127 29.2579 37.6127 29.7012C37.6127 31.7779 37.0526 33.7145 36.0493 35.3712" stroke="white" stroke-width="3" stroke-linejoin="round"></path><path id="Vector_7" d="M25.2934 33.3892C25.9934 33.5525 28.0934 33.7625 29.2368 32.2925C30.3801 30.8225 30.2168 29.2825 30.2168 29.2825L47.1568 12.1325C47.1568 12.1325 51.4268 12.0859 50.6101 7.51255C48.8601 3.17255 43.1668 5.10922 43.7501 8.67922L26.8568 25.6892C26.8568 25.6892 24.5001 25.4325 23.2401 27.2759C21.9801 29.1192 22.4001 30.6125 22.6334 30.9392" stroke="white" stroke-width="3" stroke-linecap="round" stroke-linejoin="round"></path></g></g><defs><clipPath id="clip0_5028_48013"><rect width="56" height="56" fill="white"></rect></clipPath></defs></svg> 