<?xml version="1.0" encoding="UTF-8"?> <svg xmlns="http://www.w3.org/2000/svg" width="57" height="56" viewBox="0 0 57 56" fill="none"><g id="Upgrade"><g id="Group"><g id="Group_2"><g id="Group_3"><path id="Vector" d="M33.4575 42V40" stroke="#FFC100" stroke-width="3" stroke-miterlimit="10"></path><path id="Vector_2" d="M33.4575 46V43" stroke="#FFC100" stroke-width="3" stroke-miterlimit="10"></path><path id="Vector_3" d="M31.7285 51.0144V52.5144H34.7285V51.0144H31.7285ZM34.7285 51.0144V46.9883H31.7285V51.0144H34.7285Z" fill="#FFC100"></path><path id="Vector_4" d="M33.3237 35.4825V33.9825C32.4952 33.9825 31.8237 34.654 31.8237 35.4825H33.3237ZM37.4575 35.4825V36.9825C38.0206 36.9825 38.5362 36.6671 38.7928 36.1659C39.0493 35.6646 39.0036 35.0619 38.6742 34.6052L37.4575 35.4825ZM28.4575 23L29.6742 22.1227C29.3923 21.7317 28.9396 21.5 28.4575 21.5C27.9754 21.5 27.5227 21.7317 27.2408 22.1227L28.4575 23ZM19.4575 35.4825L18.2408 34.6052C17.9115 35.0619 17.8657 35.6646 18.1222 36.1659C18.3788 36.6671 18.8944 36.9825 19.4575 36.9825V35.4825ZM23.615 35.4825H25.115C25.115 34.654 24.4434 33.9825 23.615 33.9825V35.4825ZM23.615 51H22.115C22.115 51.8284 22.7866 52.5 23.615 52.5L23.615 51ZM29.9575 52.5H31.4575L31.4575 49.5H29.9575L29.9575 52.5ZM34.8237 39.1793V35.4825H31.8237V39.1793H34.8237ZM33.3237 36.9825H37.4575V33.9825H33.3237V36.9825ZM38.6742 34.6052L29.6742 22.1227L27.2408 23.8773L36.2408 36.3597L38.6742 34.6052ZM27.2408 22.1227L18.2408 34.6052L20.6742 36.3597L29.6742 23.8773L27.2408 22.1227ZM19.4575 36.9825H23.615V33.9825H19.4575V36.9825ZM22.115 35.4825V51H25.115V35.4825H22.115ZM23.615 52.5C27.4065 52.5 26.1661 52.5 29.9575 52.5L29.9575 49.5C26.166 49.5 27.4065 49.5 23.615 49.5L23.615 52.5Z" fill="white"></path></g><path id="Vector_5" d="M19.2163 29H9.45752V19H46.4575V29H36.1438" stroke="white" stroke-width="3" stroke-linejoin="round"></path><path id="Vector_6" d="M20.4188 14H9.45752V5H46.4575V14H35.635H20.4188Z" stroke="white" stroke-width="3" stroke-linejoin="round"></path></g></g></g></svg> 