<svg width="1440" height="319" viewBox="0 0 1440 319" fill="none" xmlns="http://www.w3.org/2000/svg">
<g clip-path="url(#clip0_4647_48848)">
<rect width="1445" height="319" fill="#F4F3E1"/>
<g opacity="0.8">
<path d="M1099.27 337.736L1076.09 328.594L1009.17 498.649L942.254 668.712L965.432 677.854L1032.35 507.798L1099.27 337.736Z" fill="#FF3800"/>
<path opacity="0.1" d="M1052.92 308.3L1034.88 303.162L1029.49 301.701L980.721 472.694L931.962 643.809L949.999 648.946L955.393 650.405L1004.16 479.418L1052.92 308.3Z" fill="#FF3E00"/>
<path opacity="0.2" d="M1006.04 283.776L988.344 280.558L983.208 279.776L952.026 449.864L920.887 620.2L938.582 623.421L943.719 624.202L974.901 454.113L1006.04 283.776Z" fill="#FF4400"/>
<path opacity="0.3" d="M958.123 263.76L940.591 262.264L935.678 262.075L921.125 429.769L906.673 597.827L924.206 599.322L929.118 599.517L943.67 431.821L958.123 263.76Z" fill="#FF4B00"/>
<path opacity="0.4" d="M909.003 248.493L891.752 248.572L887.111 248.905L888.012 412.987L889.078 577.549L906.329 577.468L910.97 577.139L910.07 413.054L909.003 248.493Z" fill="#FF5100"/>
<path opacity="0.5" d="M862.381 237.431L845.726 238.949L841.452 239.733L855.895 398.308L870.591 557.461L887.246 555.944L891.519 555.162L877.078 396.582L862.381 237.431Z" fill="#FF5700"/>
<path opacity="0.6" d="M816.582 229.394L800.609 232.152L796.734 233.312L822.891 385.533L849.403 538.419L865.376 535.66L869.252 534.5L843.094 382.282L816.582 229.394Z" fill="#FF5D00"/>
<path opacity="0.7" d="M770.77 225.158L755.457 228.965L751.979 230.421L788.325 376.01L825.126 522.353L840.44 518.542L843.918 517.087L807.573 371.497L770.77 225.158Z" fill="#FF6400"/>
<path opacity="0.8" d="M725.781 222.945L711.216 227.633L708.154 229.322L752.735 367.894L797.89 507.297L812.458 502.607L815.519 500.916L770.932 362.344L725.781 222.945Z" fill="#FF6A00"/>
<path opacity="0.9" d="M682.746 223.524L668.934 228.909L666.287 230.771L717.598 362.05L769.598 494.227L783.414 488.843L786.055 486.985L734.746 355.702L682.746 223.524Z" fill="#FF7000"/>
<path d="M640.65 224.891L627.598 230.836L625.367 232.816L681.786 356.98L739.005 482.111L752.063 476.165L754.288 474.186L697.87 350.017L640.65 224.891Z" fill="#FF7600"/>
<path d="M598.58 227.8L586.243 234.175L584.416 236.236L644.782 353.575L706.062 471.937L718.397 465.566L720.222 463.505L659.861 346.172L598.58 227.8Z" fill="#FF7D00"/>
<path d="M558.511 231.246L546.864 237.933L545.433 240.042L608.593 350.828L672.784 462.709L684.43 456.02L685.862 453.92L622.703 343.13L558.511 231.246Z" fill="#FF8300"/>
<path d="M519.437 236.226L508.466 243.131L507.412 245.252L572.227 349.763L638.19 455.431L649.162 448.526L650.216 446.405L585.399 341.899L519.437 236.226Z" fill="#FF8900"/>
<path d="M480.418 241.489L470.083 248.466L469.396 250.574L535.324 348.738L602.499 448.127L612.841 441.155L613.526 439.052L547.599 340.883L480.418 241.489Z" fill="#FF8F00"/>
<path d="M442.721 245.838L432.93 252.845L432.602 254.932L499.116 347.652L566.983 441.672L576.774 434.661L577.103 432.574L510.593 339.855L442.721 245.838Z" fill="#FF9500"/>
<path d="M405.136 250.485L395.87 257.463L395.884 259.528L462.24 347.145L530.058 436.143L539.318 429.168L539.309 427.104L472.952 339.487L405.136 250.485Z" fill="#FF9C00"/>
<path d="M370.495 255.653L361.754 262.556L362.089 264.59L427.203 347.349L493.85 431.574L502.593 424.676L502.253 422.645L437.144 339.883L370.495 255.653Z" fill="#FFA200"/>
<path d="M335.002 259.593L326.682 266.35L327.34 268.365L391.498 346.866L457.277 426.942L465.599 420.19L464.937 418.174L400.78 339.669L335.002 259.593Z" fill="#FFA800"/>
<path d="M302.444 263.051L294.553 269.624L295.513 271.628L357.635 346.113L421.446 422.276L429.338 415.699L428.376 413.699L366.256 339.211L302.444 263.051Z" fill="#FFAE00"/>
<path d="M269.953 265.527L262.427 271.881L263.672 273.892L323.615 344.819L385.29 417.559L392.811 411.203L391.566 409.193L331.627 338.266L269.953 265.527Z" fill="#FFB500"/>
<path d="M238.53 267.021L231.294 273.17L232.812 275.228L290.294 343.505L349.543 413.754L356.776 407.6L355.261 405.547L297.777 337.261L238.53 267.021Z" fill="#FFBB00"/>
<path d="M205.16 265.798L198.169 271.555L254.442 339.239L310.706 406.924L317.697 401.163L261.429 333.48L205.16 265.798Z" fill="#FFC100"/>
<path d="M194.644 262.555L187.684 267.262L232.431 334.979L277.182 402.692L284.137 397.987L239.386 330.27L194.644 262.555Z" fill="#F3BE06"/>
<path d="M181.122 258.578L174.186 262.151L206.9 329.797L239.618 397.449L246.558 393.877L213.841 326.225L181.122 258.578Z" fill="#E8BC0B"/>
<path d="M168.546 254.854L161.675 257.215L182.136 323.746L202.6 390.282L209.475 387.922L189.007 321.385L168.546 254.854Z" fill="#DCB911"/>
<path d="M157.792 250.619L151.105 251.769L158.534 316.473L165.959 381.181L172.644 380.022L165.222 315.323L157.792 250.619Z" fill="#D1B616"/>
<path d="M149.711 245.832L143.487 245.758L137.541 306.519L131.599 367.282L137.824 367.352L143.769 306.594L149.711 245.832Z" fill="#C5B41C"/>
<path d="M141 242L135.089 240.634L116.141 296.009L97.1952 351.39L103.102 352.755L122.052 297.375L141 242Z" fill="#B9B122"/>
<path d="M133.708 238.091L128.666 235.571L97.4399 283.561L66.2182 331.553L71.2652 334.071L102.486 286.083L133.708 238.091Z" fill="#AEAF27"/>
<path d="M126.373 234.339L122.17 230.706L79.3749 268.714L36.5795 306.722L40.7827 310.355L83.578 272.347L126.373 234.339Z" fill="#A2AC2D"/>
<path d="M119.067 230.483L115.958 225.917L63.5318 251.936L11.1027 277.95L14.2126 282.512L66.6376 256.497L119.067 230.483Z" fill="#97A932"/>
<path d="M110.795 226.496L108.93 221.177L48.729 233.691L-11.4731 246.209L-9.61266 251.531L50.5934 239.014L110.795 226.496Z" fill="#8BA738"/>
<path opacity="0.9" d="M101.578 221.307L101.08 215.485L35.9193 213.299L-29.241 211.112L-28.7427 216.934L36.4176 219.121L101.578 221.307Z" fill="#7FA43E"/>
<path opacity="0.8" d="M91.3347 214.215L92.3246 207.819L24.3619 190.419L-43.6019 173.023L-44.5907 179.415L23.3772 196.812L91.3347 214.215Z" fill="#74A143"/>
<path opacity="0.8" d="M81.5799 203.675L83.8857 197.551L15.793 165.079L-52.3027 132.602L-54.6085 138.727L13.4872 171.203L81.5799 203.675Z" fill="#689F49"/>
<path opacity="0.7" d="M71.5092 190.303L75.1981 184.241L8.70203 136.816L-57.7962 89.3981L-61.4811 95.461L5.01206 142.882L71.5092 190.303Z" fill="#5D9C4E"/>
<path opacity="0.6" d="M61.7182 172.971L66.7123 167.179L3.15894 105.57L-60.4046 43.9672L-65.3989 49.7593L-1.84333 111.36L61.7182 172.971Z" fill="#519954"/>
<path opacity="0.5" d="M52.2217 152.682L58.4523 147.274L-0.849208 72.2879L-60.151 -2.69694L-66.386 2.71132L-7.0842 77.6962L52.2217 152.682Z" fill="#469759"/>
<path opacity="0.4" d="M45.3283 127.484L52.674 122.57L-1.20754 35.4805L-55.0933 -51.6097L-62.4392 -46.6954L-8.55757 40.394L45.3283 127.484Z" fill="#3A945F"/>
<path opacity="0.3" d="M39.4292 98.2844L47.8929 93.8778L-0.568909 -5.31969L-49.0297 -104.521L-57.4889 -100.115L-9.02719 -0.917267L39.4292 98.2844Z" fill="#2E9265"/>
<path opacity="0.2" d="M35.1353 65.1767L44.6046 61.3461L2.24338 -48.7951L-40.1138 -158.936L-49.583 -155.106L-7.22184 -44.9639L35.1353 65.1767Z" fill="#238F6A"/>
<path opacity="0.1" d="M33.1597 28.1189L43.5666 24.8801L7.63559 -95.6145L-28.2995 -216.11L-38.7024 -212.87L-2.77143 -92.3753L33.1597 28.1189Z" fill="#178C70"/>
</g>
</g>
<defs>
<clipPath id="clip0_4647_48848">
<rect width="1440" height="319" fill="white"/>
</clipPath>
</defs>
</svg>
