<svg width="267" height="293" viewBox="0 0 267 293" fill="none" xmlns="http://www.w3.org/2000/svg">
<path d="M92.567 66.7589C94.0048 65.8699 95.4668 65.0295 96.9687 64.2538L71.677 15.832L64.3281 20.1311L92.5596 66.7669L92.567 66.7589Z" fill="#C6C717"/>
<path d="M75.754 80.4943C77.0716 79.0639 78.4209 77.7225 79.8103 76.4053L42.487 36C40.126 38.2627 37.7484 40.5173 35.5159 42.9173L75.7623 80.4943H75.754Z" fill="#E9C507"/>
<path d="M64.5922 96.0411C65.6205 94.1255 66.7531 92.2593 67.9331 90.4653L22.2176 59.959C20.0651 62.949 18.3463 66.2299 16.5391 69.4381L64.5839 96.0487L64.5922 96.0411Z" fill="#F4C402"/>
<path d="M4.41406 99.6463L57.471 113.861L57.6879 113.085C58.2658 110.993 58.9247 108.932 59.6719 106.927L8.13271 87.8965C6.84756 91.8 5.46572 95.6783 4.4216 99.6463H4.41406Z" fill="#F7C401"/>
<path d="M0 131.972L54.8324 132.909C54.8725 130.258 55.0568 127.608 55.362 124.941L0.931544 118.412C0.690528 120.666 0.28938 122.905 0.23267 125.184L0.00829691 131.972H0Z" fill="#F9C400"/>
<path d="M3.375 164.496L56.8656 151.994C56.2151 149.174 55.6931 146.305 55.372 143.412L0.804688 149.82C1.59195 154.734 2.23411 159.68 3.38248 164.496H3.375Z" fill="#FAC400"/>
<path d="M61.1776 165.257C60.6231 163.964 60.1093 162.655 59.6356 161.33L8.15234 180.385L11.052 187.924C12.1929 190.349 13.373 192.732 14.5622 195.125L63.4026 170.025C62.607 168.466 61.8607 166.873 61.1693 165.265" fill="#FAC400"/>
<path d="M32.5791 222.195L74.079 185.976C71.8623 183.398 69.8057 180.667 67.9427 177.846L22.2188 208.32L24.5714 211.948L27.1984 215.383C28.9731 217.669 30.7719 219.948 32.5791 222.195Z" fill="#FAC300"/>
<path d="M56.7933 243.989L88.2613 198.768C85.2732 196.667 82.4302 194.363 79.804 191.883L42.3281 232.321C47.0184 236.377 51.621 240.587 56.7933 243.989Z" fill="#F8B001"/>
<path d="M85.3808 259.405L105.091 207.791C101.436 206.385 97.9186 204.713 94.5936 202.781L67.5664 250.823C73.2374 254.25 79.317 256.803 85.3808 259.405Z" fill="#F49703"/>
<path d="M106.474 265.553C109.879 266.41 113.365 266.805 116.827 267.266L123.621 212.509C119.871 212.04 116.112 211.272 112.353 210.23L111.509 209.996L96.2578 263.064C99.6145 264.098 103.045 264.761 106.474 265.553Z" fill="#F17E05"/>
<path d="M127.004 268.161L132.578 268.322C134.441 268.387 136.288 268.404 138.144 268.25C141.874 268.015 145.594 267.814 149.288 267.434L142.708 212.539C138.417 213.064 134.04 213.234 129.63 213.016L127.012 268.169L127.004 268.161Z" fill="#EE6706"/>
<path d="M238.614 216.51C240.841 213.52 242.934 210.409 245.044 207.314C246.128 205.795 247.07 204.194 247.979 202.554L250.706 197.665L202.353 171.547C200.276 175.466 197.883 179.159 195.223 182.586L238.614 216.518V216.51Z" fill="#007F78"/>
<path d="M255.186 188.467C256.57 185.243 258.03 182.027 259.056 178.649C260.14 175.312 261.341 171.982 262.183 168.58L209.118 154.414L208.892 155.262C207.842 159.044 206.557 162.681 205.031 166.156L255.194 188.467H255.186Z" fill="#008A77"/>
<path d="M210.562 147.73L264.687 157.282C265.588 150.736 266.538 144.15 266.538 137.499L211.697 136.102C211.63 139.964 211.255 143.851 210.562 147.73Z" fill="#009476"/>
<path d="M211.529 128.54L266.262 124.661C266.02 118.439 264.803 112.306 263.76 106.172L210.02 117.696C210.787 121.235 211.279 124.872 211.529 128.532V128.54Z" fill="#009F76"/>
<path d="M207.895 109.757L260.118 92.585C259.126 89.8697 258.117 87.1468 257.082 84.4391L255.498 80.407L253.621 76.5039L204.117 100.279C205.568 103.333 206.828 106.517 207.887 109.757H207.895Z" fill="#00AA75"/>
<path d="M199.787 92.3385L246.314 63.1175C244.896 60.8548 243.47 58.6083 241.985 56.3779L237.057 50.002L194.324 84.6129C196.317 87.0614 198.127 89.6475 199.787 92.3385Z" fill="#00B474"/>
<path d="M187.703 77.3318L226.041 37.7992C222.546 34.3163 218.668 31.1971 214.907 27.9727L181.156 71.5942C183.458 73.4044 185.643 75.3115 187.695 77.3318H187.703Z" fill="#00BE73"/>
<path d="M172.571 65.8149L199.984 18.0236L194.071 14.7265C192.12 13.6032 190.001 12.8032 187.958 11.8496L165.508 62.1704C167.943 63.2775 170.295 64.4896 172.563 65.8149H172.571Z" fill="#00C672"/>
<path d="M147.977 56.6371C150.053 57.025 152.155 57.5179 154.24 58.0997L155.007 58.318L170.185 5.24964C166.274 4.08597 162.262 3.27786 158.268 2.38086L147.977 56.6371Z" fill="#00D071"/>
<path d="M129.657 55.322C131.81 55.2008 133.978 55.1847 136.139 55.2897L138.187 0.144563C134.524 0.0556705 130.846 -0.154437 127.184 0.193049L129.657 55.3301V55.322Z" fill="#37CD58"/>
<path d="M111.563 58.282C113.395 57.7648 115.235 57.2961 117.138 56.8921L105.821 2.83789C102.632 3.53286 99.4842 4.42178 96.3359 5.29453L111.563 58.2901V58.282Z" fill="#8CC931"/>
<path d="M159.001 264.625L164.456 263.485C166.274 263.114 170.352 261.966 172.12 261.384C175.689 260.293 181.585 258.087 185.096 256.859L161.453 206.861C157.4 208.373 153.189 209.561 148.844 210.369L159.001 264.633V264.625Z" fill="#EF4C26"/>
<path d="M262.275 261.525C251.116 274.526 237.423 285.29 221.944 293L144.652 156.236C146.771 154.846 148.789 153.303 150.699 151.605L262.275 261.516V261.525Z" fill="#07847B"/>
</svg>
