<?xml version="1.0" encoding="UTF-8"?> <svg xmlns="http://www.w3.org/2000/svg" width="56" height="57" viewBox="0 0 56 57" fill="none"><g clip-path="url(#clip0_4647_32901)"><path d="M23.6633 38.7882L14.47 47.9582L13.4666 38.2282L3.80664 37.2949L12.9766 28.1016" stroke="#00877B" stroke-width="3" stroke-linejoin="round"></path><path d="M42.9623 27.9375L52.1556 37.1308L42.4256 38.1342L41.4923 47.7942L32.3223 38.6242" stroke="#00877B" stroke-width="3" stroke-linejoin="round"></path><path d="M28.0755 39.0455C36.3745 39.0455 43.1022 32.3179 43.1022 24.0189C43.1022 15.7199 36.3745 8.99219 28.0755 8.99219C19.7765 8.99219 13.0488 15.7199 13.0488 24.0189C13.0488 32.3179 19.7765 39.0455 28.0755 39.0455Z" stroke="#00877B" stroke-width="3" stroke-linejoin="round"></path><path d="M34.0039 19.8668L34.9606 18.9102" stroke="#FFC100" stroke-width="3" stroke-miterlimit="10"></path><path d="M32.418 21.4513L32.6046 21.2646L33.7013 20.168" stroke="#FFC100" stroke-width="3" stroke-miterlimit="10"></path><path d="M30.5255 23.3645L31.1555 22.7112L31.9955 21.8945" stroke="#FFC100" stroke-width="3" stroke-miterlimit="10"></path><path d="M21.334 24.4151L25.394 28.4751L30.1073 23.7617" fill="white"></path><path d="M21.334 24.4151L25.394 28.4751L30.1073 23.7617" stroke="#00877B" stroke-width="3" stroke-miterlimit="10"></path></g><defs><clipPath id="clip0_4647_32901"><rect width="56" height="56" fill="white" transform="translate(0 0.5)"></rect></clipPath></defs></svg> 