<?xml version="1.0" encoding="UTF-8"?> <svg xmlns="http://www.w3.org/2000/svg" width="175" height="42" viewBox="0 0 175 42" fill="none"><path d="M43.6537 4.35938L51.671 24.8488H48.2641L46.4066 20.0987L46.378 20.0257H37.5415L35.7444 24.8519H32.3184L39.9864 4.36255H43.6569L43.6537 4.35938ZM45.1334 16.8473L41.9772 8.78556L41.8471 8.45217L38.7894 16.6632L38.7227 16.8473H45.1334Z" fill="#8C8C8C"></path><path d="M80.4984 24.6649V9.48438H77.2757V20.2704L77.2312 20.3816C77.1867 20.4514 76.2723 22.1216 74.2688 22.1216C71.9477 22.1216 70.9094 20.4355 70.9094 18.7654V9.48438H67.7216V19.918C67.7216 22.7629 70.0267 25.0681 72.8717 25.0681C75.1102 25.0681 76.5866 23.9568 77.2757 22.8931V24.668H80.4984V24.6649Z" fill="#8C8C8C"></path><path d="M60.0567 9.19458C63 9.19458 64.7877 10.4488 65.8513 11.8871L63.6891 13.8907C62.8445 12.7 61.6855 12.1062 60.2122 12.1062C57.4562 12.1062 55.64 14.1733 55.64 17.1198C55.64 20.0664 57.4562 22.162 60.2122 22.162C61.6855 22.162 62.8445 21.5365 63.6891 20.3775L65.8513 22.3811C64.7877 23.8226 63 25.0736 60.0567 25.0736C55.4527 25.0736 52.2235 21.7206 52.2235 17.1166C52.2235 12.5126 55.4495 9.19141 60.0567 9.19141V9.19458Z" fill="#8C8C8C"></path><path d="M141.014 9.50781H137.883V24.628H141.014V9.50781Z" fill="#8C8C8C"></path><path d="M137.572 5.18792V4.6926C137.572 3.73369 138.153 3.03516 139.465 3.03516C140.776 3.03516 141.325 3.73369 141.325 4.6926V5.18792C141.325 6.14682 140.773 6.84536 139.465 6.84536C138.156 6.84536 137.572 6.14682 137.572 5.18792Z" fill="#8C8C8C"></path><path d="M131.743 5.69922H128.612V9.49672H126.564V12.2782H128.558L128.612 21.8481C128.612 23.4008 129.869 24.6582 131.422 24.6582H134.321V21.6608H131.746V12.2782H134.822V9.49672H131.746V5.69922H131.743Z" fill="#8C8C8C"></path><path d="M120.544 9.52361V11.343C119.696 10.2317 117.918 9.11719 115.695 9.11719C111.431 9.11719 108.338 12.4606 108.338 17.0678C108.338 21.0749 110.853 25.1296 115.66 25.1296C119.048 25.1296 120.547 22.853 120.547 22.853V24.6469H123.722V9.52361H120.547H120.544ZM116.137 22.3227C113.498 22.3227 111.583 20.1446 111.583 17.1408C111.583 14.1371 113.498 11.9209 116.137 11.9209C118.439 11.9209 120.763 13.5466 120.763 17.1758C120.763 19.6556 119.315 22.3227 116.137 22.3227Z" fill="#8C8C8C"></path><path d="M170.934 9.52361V11.343C170.086 10.2317 168.308 9.11719 166.085 9.11719C161.821 9.11719 158.728 12.4606 158.728 17.0678C158.728 21.0749 161.243 25.1296 166.05 25.1296C169.438 25.1296 170.937 22.853 170.937 22.853V24.6469H174.112V9.52361H170.937H170.934ZM166.526 22.3227C163.888 22.3227 161.973 20.1446 161.973 17.1408C161.973 14.1371 163.888 11.9209 166.526 11.9209C168.828 11.9209 171.153 13.5466 171.153 17.1758C171.153 19.6556 169.705 22.3227 166.526 22.3227Z" fill="#8C8C8C"></path><path d="M151.448 9.19458C154.391 9.19458 156.179 10.4488 157.242 11.8871L155.08 13.8907C154.235 12.7 153.077 12.1062 151.603 12.1062C148.847 12.1062 147.031 14.1733 147.031 17.1198C147.031 20.0664 148.847 22.162 151.603 22.162C153.077 22.162 154.235 21.5365 155.08 20.3775L157.242 22.3811C156.179 23.8226 154.391 25.0736 151.448 25.0736C146.844 25.0736 143.615 21.7206 143.615 17.1166C143.615 12.5126 146.84 9.19141 151.448 9.19141V9.19458Z" fill="#8C8C8C"></path><path d="M100.893 9.07666C98.5493 9.07666 96.7013 10.5722 95.9266 11.9661C95.0883 10.2546 93.3325 9.07666 91.3003 9.07666C89.0618 9.07666 87.5854 10.188 86.8964 11.2517V9.47673H83.6736V24.6572H86.8964V13.8712L86.9408 13.76C86.9853 13.6902 87.8997 12.02 89.9033 12.02C92.2243 12.02 93.2626 13.7061 93.2626 15.3762V24.6572H96.4505V14.2236C96.4505 14.1569 96.4505 14.0903 96.4441 14.0236L96.4886 13.868L96.533 13.7569C96.5775 13.687 97.4919 12.0169 99.4955 12.0169C101.817 12.0169 102.855 13.7029 102.855 15.373V24.6541H106.043V14.2204C106.043 11.3755 103.737 9.07031 100.893 9.07031V9.07666Z" fill="#8C8C8C"></path><path d="M97.311 41.2677V34.4125H94.8566V33.3711H100.937V34.4125H98.4953V41.2677H97.311Z" fill="#8C8C8C"></path><path d="M111.177 35.4094C112.895 35.4094 113.958 36.7462 113.958 38.4989V38.7592H109.437C109.52 39.7308 110.231 40.5341 111.377 40.5341C111.98 40.5341 112.644 40.296 113.069 39.8578L113.568 40.5564C113 41.112 112.196 41.4073 111.272 41.4073C109.567 41.4073 108.313 40.2008 108.313 38.4004C108.313 36.743 109.51 35.4062 111.177 35.4062V35.4094ZM109.424 37.9908H112.917C112.895 37.232 112.384 36.2858 111.177 36.2858C109.97 36.2858 109.485 37.2097 109.424 37.9908Z" fill="#8C8C8C"></path><path d="M118.331 37.3294C118.331 34.9035 120.131 33.2461 122.379 33.2461C123.928 33.2461 124.9 33.9923 125.516 34.9162L124.509 35.4497C124.097 34.7861 123.312 34.3003 122.379 34.3003C120.782 34.3003 119.55 35.5544 119.55 37.3294C119.55 39.1043 120.782 40.3585 122.379 40.3585C123.316 40.3585 124.097 39.8727 124.509 39.2091L125.516 39.7425C124.887 40.6665 123.928 41.4126 122.379 41.4126C120.131 41.4126 118.331 39.7552 118.331 37.3294Z" fill="#8C8C8C"></path><path d="M126.831 41.2677V33.3711H127.897V41.2677H126.831Z" fill="#8C8C8C"></path><path d="M129.282 38.4043C129.282 36.7596 130.393 35.4102 132.171 35.4102C133.949 35.4102 135.061 36.7596 135.061 38.4043C135.061 40.0491 133.959 41.4112 132.171 41.4112C130.384 41.4112 129.282 40.0618 129.282 38.4043ZM133.946 38.4043C133.946 37.328 133.317 36.3564 132.171 36.3564C131.025 36.3564 130.396 37.328 130.396 38.4043C130.396 39.4807 131.034 40.465 132.171 40.465C133.308 40.465 133.946 39.4934 133.946 38.4043Z" fill="#8C8C8C"></path><path d="M140.122 41.2693V40.4882C140.122 40.4882 139.528 41.4121 138.239 41.4121C137.15 41.4121 136.264 40.5294 136.264 39.4372V35.554H137.331V39.234C137.331 40.1802 137.995 40.4659 138.728 40.4659C139.392 40.4659 139.804 40.0881 140.125 39.6595V35.5508H141.192V41.2693H140.125H140.122Z" fill="#8C8C8C"></path><path d="M152.26 41.2677V33.3711H157.849V34.8158H153.943V36.5336H157.766V37.9783H153.943V39.8135H157.849V41.2709H152.26V41.2677Z" fill="#8C8C8C"></path><path d="M164.18 41.2677L162.631 38.4387H161.399V41.2677H159.719V33.3711H163.412C165.056 33.3711 166.063 34.4475 166.063 35.9176C166.063 37.3877 165.187 38.0608 164.336 38.2609L166.111 41.2677H164.18ZM163.161 34.8158H161.399V36.994H163.161C163.834 36.994 164.345 36.5685 164.345 35.9049C164.345 35.2413 163.837 34.8158 163.161 34.8158Z" fill="#8C8C8C"></path><path d="M167.762 41.2677V33.3711H171.454C173.172 33.3711 174.106 34.53 174.106 35.9176C174.106 37.3051 173.16 38.4387 171.454 38.4387H169.441V41.2677H167.762ZM171.229 34.8158H169.441V36.994H171.229C171.893 36.994 172.388 36.5685 172.388 35.9049C172.388 35.2413 171.889 34.8158 171.229 34.8158Z" fill="#8C8C8C"></path><path d="M103.315 33.375V36.3343C103.315 36.3343 103.909 35.4103 105.198 35.4103C106.287 35.4103 107.173 36.293 107.173 37.3852V41.2685H106.106V37.5885C106.106 36.6423 105.443 36.3565 104.709 36.3565C104.046 36.3565 103.633 36.7343 103.312 37.163V41.2717H102.245V33.375H103.312H103.315Z" fill="#8C8C8C"></path><path d="M146.853 33.3743V36.3812C146.393 35.7652 145.716 35.4096 144.983 35.4096C143.491 35.4096 142.427 36.5812 142.427 38.4164C142.427 40.2517 143.494 41.4106 144.983 41.4106C145.742 41.4106 146.428 41.0201 146.853 40.4517V41.2677H147.92V33.3711H146.853V33.3743ZM145.243 40.3914C144.189 40.3914 143.589 39.5023 143.589 38.4037C143.589 37.3051 144.253 36.4161 145.243 36.4161C146.234 36.4161 146.898 37.3051 146.898 38.4037C146.898 39.5023 146.256 40.3914 145.243 40.3914Z" fill="#8C8C8C"></path><path d="M12.9244 0C9.49526 0 6.38677 1.39072 4.13875 3.63875C1.89072 5.88677 0.5 8.99208 0.5 12.4244C0.5 19.286 6.0629 24.8489 12.9244 24.8489H25.3489V12.4244C25.3489 5.5629 19.786 0 12.9244 0ZM16.7124 1.77174C20.783 3.18152 23.7835 7.03935 24.1741 11.3004C24.0693 11.1194 23.955 10.948 23.8439 10.767C19.6018 4.30236 9.57146 5.90264 7.54253 13.3103C4.05937 7.11556 9.89533 -0.225438 16.7124 1.77174ZM17.9095 13.9136V17.3523H14.4708C12.1497 17.3587 9.92073 16.3458 8.42523 14.555C8.95866 11.0813 11.6798 8.39515 15.1598 7.90618C16.8998 9.41756 17.9095 11.5989 17.9095 13.9104V13.9136ZM9.99059 1.50821C5.25641 4.1309 3.93553 10.6178 7.25041 14.8947C6.87574 18.4128 8.72052 21.9563 11.8163 23.6773C-0.731967 22.1373 -2.01791 5.0136 9.99376 1.50821H9.99059ZM24.2281 23.7281H16.2774C12.1275 23.817 8.41253 20.2385 8.3395 16.0918C10.0192 17.6317 12.1783 18.4731 14.4708 18.4731H19.0303V13.9136C19.0303 11.6465 18.1984 9.50329 16.7092 7.84902C20.3226 7.96968 23.5867 10.8877 24.1264 14.4534C24.336 15.1995 24.1963 22.7914 24.2312 23.7281H24.2281Z" fill="#8C8C8C"></path></svg> 