<?xml version="1.0" encoding="UTF-8"?> <svg xmlns="http://www.w3.org/2000/svg" width="127" height="31" viewBox="0 0 127 31" fill="none"><g opacity="0.8"><path d="M32.0034 3.25L37.8414 18.1699H35.3605L34.008 14.711L33.9872 14.6578H27.5526L26.244 18.1722H23.7493L29.3329 3.25231H32.0057L32.0034 3.25ZM33.0808 12.3434L30.7826 6.47304L30.6878 6.23027L28.4613 12.2093L28.4127 12.3434H33.0808Z" fill="white"></path><path d="M58.8329 18.0345V6.98047H56.4861V14.8346L56.4537 14.9155C56.4214 14.9664 55.7555 16.1825 54.2966 16.1825C52.6064 16.1825 51.8504 14.9548 51.8504 13.7387V6.98047H49.5291V14.578C49.5291 16.6496 51.2076 18.3282 53.2793 18.3282C54.9093 18.3282 55.9844 17.5189 56.4861 16.7444V18.0368H58.8329V18.0345Z" fill="white"></path><path d="M43.9476 6.77184C46.0909 6.77184 47.3926 7.68511 48.1671 8.73249L46.5926 10.1914C45.9776 9.32438 45.1337 8.89202 44.0608 8.89202C42.054 8.89202 40.7315 10.3972 40.7315 12.5428C40.7315 14.6884 42.054 16.2144 44.0608 16.2144C45.1337 16.2144 45.9776 15.7589 46.5926 14.915L48.1671 16.3739C47.3926 17.4236 46.0909 18.3346 43.9476 18.3346C40.595 18.3346 38.2437 15.893 38.2437 12.5405C38.2437 9.18797 40.5927 6.76953 43.9476 6.76953V6.77184Z" fill="white"></path><path d="M102.899 6.99609H100.619V18.0062H102.899V6.99609Z" fill="white"></path><path d="M100.392 3.85275V3.49206C100.392 2.79381 100.815 2.28516 101.77 2.28516C102.725 2.28516 103.125 2.79381 103.125 3.49206V3.85275C103.125 4.55099 102.723 5.05965 101.77 5.05965C100.818 5.05965 100.392 4.55099 100.392 3.85275Z" fill="white"></path><path d="M96.1475 4.22656H93.8678V6.99181H92.3765V9.01719H93.8285L93.8678 15.9858C93.8678 17.1164 94.7833 18.032 95.914 18.032H98.0249V15.8494H96.1498V9.01719H98.3902V6.99181H96.1498V4.22656H96.1475Z" fill="white"></path><path d="M87.9926 7.01079V8.33561C87.3753 7.52638 86.0805 6.71484 84.4621 6.71484C81.3569 6.71484 79.105 9.14946 79.105 12.5043C79.105 15.4221 80.9361 18.3747 84.4366 18.3747C86.9036 18.3747 87.9949 16.7169 87.9949 16.7169V18.0232H90.307V7.01079H87.9949H87.9926ZM84.7834 16.3308C82.8621 16.3308 81.4679 14.7447 81.4679 12.5575C81.4679 10.3702 82.8621 8.75641 84.7834 8.75641C86.4597 8.75641 88.1522 9.94019 88.1522 12.5829C88.1522 14.3886 87.0978 16.3308 84.7834 16.3308Z" fill="white"></path><path d="M124.685 7.01079V8.33561C124.068 7.52638 122.773 6.71484 121.155 6.71484C118.05 6.71484 115.798 9.14946 115.798 12.5043C115.798 15.4221 117.629 18.3747 121.13 18.3747C123.596 18.3747 124.688 16.7169 124.688 16.7169V18.0232H127V7.01079H124.688H124.685ZM121.476 16.3308C119.555 16.3308 118.161 14.7447 118.161 12.5575C118.161 10.3702 119.555 8.75641 121.476 8.75641C123.153 8.75641 124.845 9.94019 124.845 12.5829C124.845 14.3886 123.791 16.3308 121.476 16.3308Z" fill="white"></path><path d="M110.496 6.77184C112.639 6.77184 113.941 7.68511 114.716 8.73249L113.141 10.1914C112.526 9.32438 111.682 8.89202 110.609 8.89202C108.603 8.89202 107.28 10.3972 107.28 12.5428C107.28 14.6884 108.603 16.2144 110.609 16.2144C111.682 16.2144 112.526 15.7589 113.141 14.915L114.716 16.3739C113.941 17.4236 112.639 18.3346 110.496 18.3346C107.144 18.3346 104.792 15.893 104.792 12.5405C104.792 9.18797 107.141 6.76953 110.496 6.76953V6.77184Z" fill="white"></path><path d="M73.6832 6.68431C71.9769 6.68431 70.6312 7.7733 70.0671 8.7883C69.4567 7.54209 68.1781 6.68431 66.6984 6.68431C65.0684 6.68431 63.9933 7.49354 63.4915 8.26809V6.97563H61.1448V18.0297H63.4915V10.1756L63.5239 10.0946C63.5563 10.0438 64.2222 8.82761 65.6811 8.82761C67.3712 8.82761 68.1273 10.0553 68.1273 11.2715V18.0297H70.4486V10.4322C70.4486 10.3836 70.4486 10.3351 70.444 10.2865L70.4763 10.1732L70.5087 10.0923C70.5411 10.0415 71.2069 8.8253 72.6659 8.8253C74.356 8.8253 75.1121 10.053 75.1121 11.2692V18.0274H77.4334V10.4299C77.4334 8.35826 75.7548 6.67969 73.6832 6.67969V6.68431Z" fill="white"></path><path d="M71.0753 30.129V25.1373H69.2881V24.3789H73.7157V25.1373H71.9377V30.129H71.0753Z" fill="white"></path><path d="M81.1722 25.8617C82.423 25.8617 83.1975 26.8351 83.1975 28.1113V28.3009H79.9051C79.9653 29.0084 80.4832 29.5934 81.3178 29.5934C81.7571 29.5934 82.2403 29.42 82.5502 29.1009L82.9132 29.6096C82.4993 30.0142 81.9143 30.2292 81.2415 30.2292C79.9999 30.2292 79.0867 29.3506 79.0867 28.0397C79.0867 26.8328 79.9583 25.8594 81.1722 25.8594V25.8617ZM79.8959 27.7414H82.4392C82.423 27.1888 82.0508 26.4998 81.1722 26.4998C80.2936 26.4998 79.9398 27.1726 79.8959 27.7414Z" fill="white"></path><path d="M86.3813 27.2585C86.3813 25.4921 87.6923 24.2852 89.3292 24.2852C90.4575 24.2852 91.165 24.8285 91.6136 25.5013L90.8807 25.8897C90.5801 25.4065 90.009 25.0528 89.3292 25.0528C88.1663 25.0528 87.2692 25.966 87.2692 27.2585C87.2692 28.5509 88.1663 29.4642 89.3292 29.4642C90.0113 29.4642 90.5801 29.1105 90.8807 28.6272L91.6136 29.0157C91.1558 29.6885 90.4575 30.2318 89.3292 30.2318C87.6923 30.2318 86.3813 29.0249 86.3813 27.2585Z" fill="white"></path><path d="M92.5708 30.129V24.3789H93.3477V30.129H92.5708Z" fill="white"></path><path d="M94.3557 28.0436C94.3557 26.8459 95.1649 25.8633 96.4597 25.8633C97.7545 25.8633 98.5637 26.8459 98.5637 28.0436C98.5637 29.2412 97.7614 30.2331 96.4597 30.2331C95.158 30.2331 94.3557 29.2505 94.3557 28.0436ZM97.7522 28.0436C97.7522 27.2598 97.2944 26.5523 96.4597 26.5523C95.625 26.5523 95.1672 27.2598 95.1672 28.0436C95.1672 28.8274 95.632 29.5441 96.4597 29.5441C97.2874 29.5441 97.7522 28.8366 97.7522 28.0436Z" fill="white"></path><path d="M102.249 30.1289V29.5601C102.249 29.5601 101.817 30.2329 100.878 30.2329C100.085 30.2329 99.4399 29.5902 99.4399 28.7948V25.9672H100.217V28.6469C100.217 29.3359 100.7 29.5439 101.234 29.5439C101.717 29.5439 102.018 29.2688 102.251 28.9567V25.9648H103.028V30.1289H102.251H102.249Z" fill="white"></path><path d="M111.088 30.129V24.3789H115.157V25.4309H112.314V26.6817H115.097V27.7337H112.314V29.0701H115.157V30.1314H111.088V30.129Z" fill="white"></path><path d="M119.768 30.129L118.639 28.069H117.742V30.129H116.519V24.3789H119.208C120.406 24.3789 121.139 25.1627 121.139 26.2332C121.139 27.3037 120.501 27.7938 119.881 27.9395L121.173 30.129H119.768ZM119.026 25.4309H117.742V27.017H119.026C119.516 27.017 119.888 26.7072 119.888 26.2239C119.888 25.7407 119.518 25.4309 119.026 25.4309Z" fill="white"></path><path d="M122.376 30.129V24.3789H125.065C126.316 24.3789 126.995 25.2228 126.995 26.2332C126.995 27.2436 126.306 28.069 125.065 28.069H123.599V30.129H122.376ZM124.901 25.4309H123.599V27.017H124.901C125.384 27.017 125.744 26.7072 125.744 26.2239C125.744 25.7407 125.381 25.4309 124.901 25.4309Z" fill="white"></path><path d="M75.4474 24.3789V26.5338C75.4474 26.5338 75.8797 25.861 76.8185 25.861C77.6115 25.861 78.2566 26.5037 78.2566 27.2991V30.1267H77.4797V27.447C77.4797 26.758 76.9965 26.5499 76.4624 26.5499C75.9792 26.5499 75.6786 26.8251 75.4451 27.1372V30.1291H74.6682V24.3789H75.4451H75.4474Z" fill="white"></path><path d="M107.151 24.3812V26.5708C106.816 26.1222 106.323 25.8633 105.789 25.8633C104.702 25.8633 103.928 26.7164 103.928 28.0528C103.928 29.3892 104.705 30.2331 105.789 30.2331C106.342 30.2331 106.841 29.9487 107.151 29.5348V30.129H107.928V24.3789H107.151V24.3812ZM105.979 29.4909C105.211 29.4909 104.774 28.8435 104.774 28.0436C104.774 27.2436 105.257 26.5962 105.979 26.5962C106.7 26.5962 107.183 27.2436 107.183 28.0436C107.183 28.8435 106.716 29.4909 105.979 29.4909Z" fill="white"></path><path d="M9.62725 0.078125C7.1302 0.078125 4.86667 1.09082 3.22972 2.72777C1.59277 4.36472 0.580078 6.62594 0.580078 9.12529C0.580078 14.1217 4.63084 18.1725 9.62725 18.1725H18.6744V9.12529C18.6744 4.12889 14.6237 0.078125 9.62725 0.078125ZM12.3856 1.36827C15.3496 2.39483 17.5346 5.20401 17.8189 8.30682C17.7426 8.17503 17.6594 8.05018 17.5785 7.91839C14.4896 3.21099 7.18569 4.37628 5.70827 9.77036C3.17192 5.2595 7.42152 -0.0860331 12.3856 1.36827ZM13.2572 10.2097V12.7136H10.7532C9.0631 12.7183 7.44002 11.9807 6.35103 10.6767C6.73946 8.14728 8.72091 6.19127 11.255 5.8352C12.522 6.93576 13.2572 8.52415 13.2572 10.2073V10.2097ZM7.49089 1.17636C4.04357 3.08614 3.08175 7.80972 5.49556 10.9241C5.22273 13.4859 6.56605 16.0662 8.82033 17.3193C-0.317009 16.1979 -1.2534 3.7289 7.4932 1.17636H7.49089ZM17.8583 17.3563H12.0688C9.04691 17.421 6.34178 14.8153 6.2886 11.7957C7.51169 12.9171 9.08391 13.5298 10.7532 13.5298H14.0734V10.2097C14.0734 8.55884 13.4676 6.99818 12.3832 5.79359C15.0144 5.88145 17.3912 8.00625 17.7843 10.6027C17.9369 11.1461 17.8351 16.6742 17.8606 17.3563H17.8583Z" fill="white"></path></g></svg> 