<?xml version="1.0" encoding="UTF-8"?> <svg xmlns="http://www.w3.org/2000/svg" width="56" height="56" viewBox="0 0 56 56" fill="none"><g id="Frame 1973341518"><g id="Group 1171279500"><path id="Vector" d="M11.2492 33.317C7.34715 29.2142 4.20001 24.8078 4.20001 21.2385C4.20001 14.4955 9.60289 9.03125 16.2701 9.03125C20.2722 9.03125 23.8014 11.0091 26.0026 14.0448C26.0208 14.0172 26.039 13.9988 26.0571 13.9712C26.0753 13.9988 26.0935 14.0172 26.1117 14.0448C28.3129 11.0091 31.8421 9.03125 35.8442 9.03125C42.5114 9.03125 47.9143 14.4955 47.9143 21.2385" stroke="#00877B" stroke-width="4.2" stroke-miterlimit="10"></path><path id="Vector_2" d="M14.8857 36.2268C13.9014 35.2936 12.917 34.3194 11.9714 33.3125" stroke="#FFC100" stroke-width="4.2" stroke-miterlimit="10"></path><path id="Vector_3" d="M17.8 39.1421C17.1701 38.5299 16.5174 37.8735 15.8572 37.1992" stroke="#FFC100" stroke-width="4.2" stroke-miterlimit="10"></path><path id="Vector_4" d="M21.6857 43.0315C20.8131 42.185 19.8219 41.1993 18.7714 40.1172" stroke="#FFC100" stroke-width="4.2" stroke-miterlimit="10"></path><path id="Vector_5" d="M25.4283 46.5616C25.132 46.3073 24.1481 45.4759 22.8004 44.2461" stroke="#00877B" stroke-width="4.2" stroke-miterlimit="10"></path><path id="Vector_6" d="M51.8 31.6427C51.8 37.602 38.3459 47.1131 37.2285 47.8912C36.1112 47.1131 22.6571 37.602 22.6571 31.6427C22.6571 27.203 26.2565 23.6055 30.6984 23.6055C33.3636 23.6055 35.7174 24.9145 37.1827 26.9101C37.1919 26.8918 37.2102 26.8735 37.2194 26.8643C37.2285 26.8826 37.2468 26.9009 37.256 26.9101C38.7214 24.9145 41.0752 23.6055 43.7403 23.6055C48.1823 23.6055 51.7816 27.203 51.7816 31.6427H51.8Z" stroke="#00877B" stroke-width="4.2" stroke-miterlimit="10"></path></g></g></svg> 