<?xml version="1.0" encoding="UTF-8"?> <svg xmlns="http://www.w3.org/2000/svg" width="21" height="17" viewBox="0 0 21 17" fill="none"><path d="M20.5612 13.9965C20.3197 14.982 19.6081 15.758 18.7046 16.0214C17.0669 16.5 10.5 16.5 10.5 16.5C10.5 16.5 3.93315 16.5 2.29544 16.0214C1.39193 15.758 0.680333 14.982 0.438815 13.9965C0 12.2104 0 8.48383 0 8.48383C0 8.48383 0 4.75725 0.438815 2.97112C0.680333 1.98571 1.39193 1.24196 2.29544 0.978583C3.93315 0.499999 10.5 0.5 10.5 0.5C10.5 0.5 17.0668 0.499999 18.7046 0.978583C19.6081 1.24196 20.3197 1.98571 20.5612 2.97112C21 4.75725 21 8.48383 21 8.48383C21 8.48383 21 12.2104 20.5612 13.9965ZM8.35226 5.10037V11.8673L13.8409 8.48375L8.35226 5.10037Z" fill="#CCE7E5"></path></svg> 