<svg width="549" height="223" viewBox="0 0 549 223" fill="none" xmlns="http://www.w3.org/2000/svg">
<g opacity="0.16">
<path d="M589.715 45.205L559.363 53.209L504.98 -124.17L450.598 -301.553L480.954 -309.558L535.332 -132.178L589.715 45.205Z" fill="url(#paint0_linear_2452_14385)"/>
<path d="M527.875 73.1499L504.646 77.3408L497.715 78.5179L465.938 -99.1045L434.195 -276.849L457.423 -281.04L464.355 -282.217L496.131 -104.598L527.875 73.1499Z" fill="url(#paint1_linear_2452_14385)"/>
<path d="M465.288 95.6049L442.329 97.9221L435.692 98.4396L425.842 -77.5049L416.09 -253.701L439.049 -256.019L445.686 -256.536L455.536 -80.5916L465.288 95.6049Z" fill="url(#paint2_linear_2452_14385)"/>
<path d="M402.947 112.839L380.826 113.365L374.665 113.276L385.016 -59.1284L395.552 -231.902L417.673 -232.428L423.834 -232.343L413.484 -59.9346L402.947 112.839Z" fill="url(#paint3_linear_2452_14385)"/>
<path d="M341.659 125.342L320.397 124.249L314.728 123.637L343.212 -43.7142L371.982 -211.539L393.244 -210.446L398.913 -209.838L370.429 -42.4828L341.659 125.342Z" fill="url(#paint4_linear_2452_14385)"/>
<path d="M281.713 133.699L261.401 131.174L256.255 130.123L300.597 -30.9889L345.349 -192.676L365.661 -190.154L370.807 -189.103L326.465 -27.9874L281.713 133.699Z" fill="url(#paint5_linear_2452_14385)"/>
<path d="M223.336 138.487L204.051 134.734L199.454 133.322L257.286 -20.7261L315.67 -175.436L334.955 -171.683L339.551 -170.272L281.719 -16.2232L223.336 138.487Z" fill="url(#paint6_linear_2452_14385)"/>
<path d="M166.632 140.275L148.404 135.487L144.362 133.795L213.367 -12.6936L283.059 -159.922L301.287 -155.133L305.329 -153.441L236.324 -6.9526L166.632 140.275Z" fill="url(#paint7_linear_2452_14385)"/>
<path d="M111.586 139.587L94.428 133.952L90.9412 132.048L168.926 -6.66596L247.756 -146.188L264.914 -140.553L268.401 -138.65L190.411 0.0651947L111.586 139.587Z" fill="url(#paint8_linear_2452_14385)"/>
<path d="M58.154 136.887L42.0489 130.578L39.1016 128.522L124.089 -2.41753L210.073 -134.237L226.183 -127.928L229.125 -125.876L144.139 5.06789L58.154 136.887Z" fill="url(#paint9_linear_2452_14385)"/>
<path d="M6.2283 132.581L-8.86587 125.753L-11.2836 123.603L78.9457 0.257127L170.321 -124.027L185.421 -117.196L187.833 -115.045L97.6041 8.30071L6.2283 132.581Z" fill="url(#paint10_linear_2452_14385)"/>
<path d="M-44.2721 127.046L-58.4089 119.832L-60.3139 117.626L33.6219 1.59306L128.858 -115.434L142.989 -108.219L144.894 -106.013L50.9631 10.0152L-44.2721 127.046Z" fill="url(#paint11_linear_2452_14385)"/>
<path d="M-93.4662 120.587L-106.695 113.107L-108.109 110.879L-11.7908 1.80325L85.9804 -108.331L99.2094 -100.85L100.623 -98.6267L4.30496 10.4532L-93.4662 120.587Z" fill="url(#paint12_linear_2452_14385)"/>
<path d="M-141.393 113.5L-153.775 105.854L-154.721 103.636L-57.155 1.10538L42.0221 -102.54L54.4041 -94.8937L55.3493 -92.6763L-42.2163 9.85461L-141.393 113.5Z" fill="url(#paint13_linear_2452_14385)"/>
<path d="M-188.124 106.06L-199.726 98.3291L-200.221 96.1403L-102.361 -0.272024L-2.75567 -97.8601L8.85143 -90.1338L9.34126 -87.9444L-88.514 8.46727L-188.124 106.06Z" fill="url(#paint14_linear_2452_14385)"/>
</g>
<defs>
<linearGradient id="paint0_linear_2452_14385" x1="481.157" y1="-973.431" x2="232.62" y2="-902.468" gradientUnits="userSpaceOnUse">
<stop stop-color="#CCE7E5"/>
<stop offset="1" stop-color="#CCE7E5" stop-opacity="0"/>
</linearGradient>
<linearGradient id="paint1_linear_2452_14385" x1="426.415" y1="-927.539" x2="280.734" y2="-897.745" gradientUnits="userSpaceOnUse">
<stop stop-color="#CCE7E5"/>
<stop offset="1" stop-color="#CCE7E5" stop-opacity="0"/>
</linearGradient>
<linearGradient id="paint2_linear_2452_14385" x1="381.557" y1="-882.636" x2="276.563" y2="-864.267" gradientUnits="userSpaceOnUse">
<stop stop-color="#CCE7E5"/>
<stop offset="1" stop-color="#CCE7E5" stop-opacity="0"/>
</linearGradient>
<linearGradient id="paint3_linear_2452_14385" x1="356.654" y1="-842.786" x2="163.393" y2="-794.103" gradientUnits="userSpaceOnUse">
<stop stop-color="#CCE7E5"/>
<stop offset="1" stop-color="#CCE7E5" stop-opacity="0"/>
</linearGradient>
<linearGradient id="paint4_linear_2452_14385" x1="329.683" y1="-799.518" x2="64.7545" y2="-712.659" gradientUnits="userSpaceOnUse">
<stop stop-color="#CCE7E5"/>
<stop offset="1" stop-color="#CCE7E5" stop-opacity="0"/>
</linearGradient>
<linearGradient id="paint5_linear_2452_14385" x1="300.467" y1="-754.12" x2="-18.2333" y2="-625.742" gradientUnits="userSpaceOnUse">
<stop stop-color="#CCE7E5"/>
<stop offset="1" stop-color="#CCE7E5" stop-opacity="0"/>
</linearGradient>
<linearGradient id="paint6_linear_2452_14385" x1="268.932" y1="-708.009" x2="-86.2572" y2="-538.693" gradientUnits="userSpaceOnUse">
<stop stop-color="#CCE7E5"/>
<stop offset="1" stop-color="#CCE7E5" stop-opacity="0"/>
</linearGradient>
<linearGradient id="paint7_linear_2452_14385" x1="235.127" y1="-662.472" x2="-141.285" y2="-455.644" gradientUnits="userSpaceOnUse">
<stop stop-color="#CCE7E5"/>
<stop offset="1" stop-color="#CCE7E5" stop-opacity="0"/>
</linearGradient>
<linearGradient id="paint8_linear_2452_14385" x1="199.178" y1="-618.525" x2="-185.809" y2="-379.451" gradientUnits="userSpaceOnUse">
<stop stop-color="#CCE7E5"/>
<stop offset="1" stop-color="#CCE7E5" stop-opacity="0"/>
</linearGradient>
<linearGradient id="paint9_linear_2452_14385" x1="161.315" y1="-576.91" x2="-222.428" y2="-311.682" gradientUnits="userSpaceOnUse">
<stop stop-color="#CCE7E5"/>
<stop offset="1" stop-color="#CCE7E5" stop-opacity="0"/>
</linearGradient>
<linearGradient id="paint10_linear_2452_14385" x1="121.755" y1="-538.127" x2="-253.536" y2="-253.014" gradientUnits="userSpaceOnUse">
<stop stop-color="#CCE7E5"/>
<stop offset="1" stop-color="#CCE7E5" stop-opacity="0"/>
</linearGradient>
<linearGradient id="paint11_linear_2452_14385" x1="80.7776" y1="-502.397" x2="-281.119" y2="-203.338" gradientUnits="userSpaceOnUse">
<stop stop-color="#CCE7E5"/>
<stop offset="1" stop-color="#CCE7E5" stop-opacity="0"/>
</linearGradient>
<linearGradient id="paint12_linear_2452_14385" x1="38.6211" y1="-469.804" x2="-306.783" y2="-162.139" gradientUnits="userSpaceOnUse">
<stop stop-color="#CCE7E5"/>
<stop offset="1" stop-color="#CCE7E5" stop-opacity="0"/>
</linearGradient>
<linearGradient id="paint13_linear_2452_14385" x1="-4.44432" y1="-440.293" x2="-331.704" y2="-128.646" gradientUnits="userSpaceOnUse">
<stop stop-color="#CCE7E5"/>
<stop offset="1" stop-color="#CCE7E5" stop-opacity="0"/>
</linearGradient>
<linearGradient id="paint14_linear_2452_14385" x1="-48.1979" y1="-413.713" x2="-356.762" y2="-101.95" gradientUnits="userSpaceOnUse">
<stop stop-color="#CCE7E5"/>
<stop offset="1" stop-color="#CCE7E5" stop-opacity="0"/>
</linearGradient>
</defs>
</svg>
