<svg width="272" height="299" viewBox="0 0 272 299" fill="none" xmlns="http://www.w3.org/2000/svg">
<path d="M94.456 68.0006C95.9233 67.0947 97.4153 66.2382 98.9481 65.4476L73.137 16.1001L65.6372 20.4814L94.4484 68.0089L94.456 68.0006Z" fill="#C6C717"/>
<path d="M77.3393 82.0212C78.684 80.5636 80.0611 79.1965 81.479 77.8541L43.3892 36.6763C40.9798 38.9822 38.5533 41.2799 36.2749 43.7259L77.3478 82.0212H77.3393Z" fill="#E9C507"/>
<path d="M65.9461 97.8863C66.9955 95.934 68.1513 94.0322 69.3556 92.2039L22.7012 61.1143C20.5046 64.1615 18.7504 67.5051 16.9061 70.7746L65.9376 97.894L65.9461 97.8863Z" fill="#F4C402"/>
<path d="M4.50439 101.587L58.6509 116.073L58.8722 115.283C59.462 113.15 60.1344 111.05 60.897 109.007L8.2994 89.6123C6.98787 93.5904 5.57765 97.5429 4.51208 101.587H4.50439Z" fill="#F7C401"/>
<path d="M0 134.485L55.9585 135.44C55.9993 132.738 56.1874 130.037 56.4989 127.319L0.950675 120.666C0.704709 122.962 0.295322 125.244 0.237448 127.566L0.0084673 134.485H0Z" fill="#F9C400"/>
<path d="M3.44463 167.605L58.0337 154.865C57.3699 151.99 56.8371 149.067 56.5094 146.118L0.821533 152.649C1.62497 157.657 2.28031 162.697 3.45226 167.605H3.44463Z" fill="#FAC400"/>
<path d="M62.4404 168.402C61.8744 167.085 61.3501 165.751 60.8667 164.4L8.32617 183.82L11.2854 191.503C12.4497 193.974 13.654 196.403 14.8677 198.841L64.7111 173.261C63.8991 171.673 63.1374 170.049 62.4319 168.411" fill="#FAC400"/>
<path d="M33.2679 226.409L75.62 189.497C73.3578 186.87 71.2591 184.087 69.3577 181.212L22.6948 212.269L25.0957 215.966L27.7767 219.467C29.5878 221.797 31.4236 224.119 33.2679 226.409Z" fill="#FAC300"/>
<path d="M57.9652 248.672L90.0795 202.586C87.03 200.445 84.1286 198.098 81.4485 195.57L43.203 236.781C47.9896 240.914 52.6867 245.206 57.9652 248.672Z" fill="#F8B001"/>
<path d="M87.1658 264.399L107.281 211.798C103.551 210.365 99.9611 208.661 96.5678 206.692L68.9856 255.653C74.773 259.145 80.9775 261.747 87.1658 264.399Z" fill="#F49703"/>
<path d="M108.67 270.611C112.145 271.484 115.702 271.887 119.235 272.357L126.169 216.553C122.342 216.075 118.506 215.292 114.67 214.23L113.809 213.992L98.2438 268.074C101.669 269.129 105.17 269.804 108.67 270.611Z" fill="#F17E05"/>
<path d="M129.633 273.275L135.322 273.439C137.223 273.505 139.108 273.522 141.002 273.365C144.809 273.126 148.605 272.921 152.375 272.533L145.66 216.589C141.281 217.125 136.814 217.297 132.313 217.075L129.642 273.283L129.633 273.275Z" fill="#EE6706"/>
<path d="M243.529 220.668C245.802 217.621 247.938 214.451 250.091 211.297C251.198 209.748 252.159 208.117 253.087 206.446L255.87 201.464L206.524 174.846C204.404 178.84 201.962 182.604 199.247 186.096L243.529 220.677V220.668Z" fill="#007F78"/>
<path d="M260.44 192.065C261.852 188.78 263.342 185.502 264.389 182.059C265.495 178.659 266.721 175.265 267.58 171.798L213.425 157.361L213.195 158.226C212.123 162.08 210.813 165.786 209.255 169.327L260.448 192.065H260.44Z" fill="#008A77"/>
<path d="M214.875 150.549L270.11 160.284C271.03 153.613 272 146.901 272 140.123L216.032 138.698C215.964 142.634 215.581 146.596 214.875 150.549Z" fill="#009476"/>
<path d="M215.887 131.033L271.744 127.079C271.497 120.738 270.255 114.487 269.191 108.236L214.347 119.981C215.13 123.588 215.632 127.294 215.887 131.024V131.033Z" fill="#009F76"/>
<path d="M212.197 111.858L265.492 94.3573C264.479 91.5901 263.449 88.8152 262.394 86.0556L260.777 81.9465L258.862 77.9688L208.341 102.198C209.822 105.311 211.107 108.555 212.188 111.858H212.197Z" fill="#00AA75"/>
<path d="M203.908 94.0947L251.39 64.3151C249.943 62.0091 248.488 59.7196 246.973 57.4466L241.943 50.9487L198.333 86.2214C200.367 88.7167 202.214 91.3523 203.908 94.0947Z" fill="#00B474"/>
<path d="M191.565 78.8048L230.69 38.5164C227.124 34.9669 223.166 31.788 219.328 28.502L184.884 72.9576C187.233 74.8023 189.463 76.7459 191.557 78.8048H191.565Z" fill="#00BE73"/>
<path d="M176.142 67.0879L204.118 18.3828L198.084 15.0227C196.092 13.878 193.93 13.0627 191.845 12.0908L168.934 63.3737C171.419 64.502 173.819 65.7373 176.134 67.0879H176.142Z" fill="#00C672"/>
<path d="M151.025 57.7282C153.144 58.1235 155.289 58.6258 157.417 59.2187L158.2 59.4412L173.69 5.3582C169.698 4.17228 165.604 3.34872 161.528 2.43457L151.025 57.7282Z" fill="#00D071"/>
<path d="M132.337 56.3797C134.534 56.2562 136.747 56.2397 138.952 56.3468L141.042 0.147327C137.304 0.0567349 133.55 -0.157389 129.813 0.19674L132.337 56.3879V56.3797Z" fill="#37CD58"/>
<path d="M113.858 59.4285C115.727 58.9014 117.604 58.4237 119.547 58.012L107.998 2.92432C104.744 3.63258 101.531 4.53849 98.3177 5.42792L113.858 59.4367V59.4285Z" fill="#8CC931"/>
<path d="M162.322 269.655L167.888 268.494C169.744 268.115 173.905 266.945 175.71 266.352C179.352 265.241 185.37 262.993 188.953 261.741L164.824 210.787C160.688 212.327 156.39 213.538 151.956 214.362L162.322 269.663V269.655Z" fill="#EF4C26"/>
<path d="M267.682 266.504C256.294 279.754 242.319 290.724 226.523 298.581L147.644 159.203C149.806 157.786 151.865 156.213 153.814 154.483L267.682 266.496V266.504Z" fill="#007F78"/>
</svg>
